<ttFont>
          <CharString index="0">
            141 0 228 96 16 253 rrcurveto
            21 329 -409 0 -33 -360 139 0 rlineto
            -14 -75 -35 -70 -98 -13 rrcurveto
            -16 -153 rlineto
            18 -5 20 -2 22 0 rrcurveto
            return
          </CharString>
          <CharString index="1">
            -63 3 -339 0 0 -233 rlineto
            0 -72 0 -29 2 -38 rrcurveto
            396 0 4 77 rlineto
            return
          </CharString>
          <CharString index="2">
            -443.995758057 -3.53312683105 0 -340 2 -72 60 0 rlineto
            110 0 131 1 135 4 rrcurveto
            return
          </CharString>
          <CharString index="3">
            -8 0 -4 -9 -1 -10 0 -1 1 -1 0 -3 12 -112 8 -102.920822144 0 -101.079177856 0 -27 11 -8 43 -21 rrcurveto
            656 -382 rlineto
            17.8151397705 -10.3740539551 9.18486022949 -1.62594604492 11 0 12 0 8 6 5 13 37 104 32 107 56 100 1 4 1 4 0 4 0 4 -3 4 -5 3 -69 36 -342 171 -45 24 rrcurveto
            440 162 rlineto
            8 1 4 7 0 15 -24 100 -5.97653198242 118.13243103 -9.02346801758 102.86756897 -0.976531982422 11.1324310303 -6.02346801758 4.86756896973 -9 0 -9 0 -15.5806732178 -1.26643371582 -20.4193267822 -7.73356628418 -280.580673218 -106.266433716 -382.419326782 -136.733566284 -133 -64 rrcurveto
            return
          </CharString>
          <CharString index="4">
            -317 hlineto
            38 101 58 138 78 242 47 -181 49 -149 47 -151 rrcurveto
            return
          </CharString>
          <CharString index="5">
            44 0 31 3 29 4 30 83 17 33 28 72 70 0 473 -2 48 -6 21 -72 20 -53 36 -64 39 -2 40 -4 41 0 19 0 19 1 620 38 rrcurveto
            -84 196 rlineto
            -164 381 -356 828 -5 17 -55 18 -63 2 -63 0 -259 0 -244 -15 -201 -6 -371 -840 -218 -483 -51 -107 105 -5 361 -17 43 0 rrcurveto
            return
          </CharString>
          <CharString index="6">
            35 2 107 6 75 0 147 0 171 -96 0 -232 0 -338 -212 -43 -356 -3 rrcurveto
            return
          </CharString>
          <CharString index="7">
            0 152 10 36 vhcurveto
            777 vlineto
            -39 9 -668 1 -35 3 rrcurveto
            -13 -289 238 0 rlineto
            -37 -71 -84 -69 -142 0 rrcurveto
            -199 -132 115 229 267 265 68 231 hvcurveto
            179 0 214 -41 86 -21 rrcurveto
            441 vlineto
            -139 35 -288 27 -132 0 rrcurveto
            -615 -584 -196 -595 -510 459 -225 535 hvcurveto
            232 0 328 89 122 150 rrcurveto
            return
          </CharString>
          <CharString index="8">
            -55 -2 -57 -3 -54 0 -145 0 -442 -4 -48 -2 1 -203 -2 -504 0 -45 0 -276 -90 -139 -221 -38 107 -215 82 -130 13 -20 648 54 225 230 34 699 rrcurveto
            return
          </CharString>
          <CharString index="9">
            4 hlineto
            0 0 -3 1 -1 2 rrcurveto
            return
          </CharString>
          <CharString index="10">
            522 682 158 640 587 -631 141 -530 -462 -690 -137 -655 -583 621 -151 488 hvcurveto
            return
          </CharString>
          <CharString index="11">
            21 438 rlineto
            47 0 191 -6 128 0 rrcurveto
            426 445 91 407 422 -423 107 -423 hvcurveto
            -344 0 -392 -11 -330 -19 -6 -271 -14 -683 -8 -214 rrcurveto
            -3 -168 rlineto
            -1 -34 -1 -36 -3 -37 11 -3 26 -1 36 0 160 0 358 14 99 4 rrcurveto
            return
          </CharString>
          <CharString index="12">
            -101 -91 -62 -210 vhcurveto
            -60 0 -70 5 -80 11 0 14 1 95 13 146 28 14 227 13 44 0 rrcurveto
            94 104 -14 -121 hvcurveto
            return
          </CharString>
          <CharString index="13">
            76 3 56 3 98 0 87 0 155 -13 0 -103 0 -151 -222 9 -267 -30 rrcurveto
            return
          </CharString>
          <CharString index="14">
            -220 419 -3 0 rlineto
            -5 0 -281 -91 -61 -19 rrcurveto
            417 -365 28 11 rlineto
            return
          </CharString>
          <CharString index="15">
            248 0 155 105 77 125 rrcurveto
            61 -197 376 28 3 1019 -452 38 -2 -213 rlineto
            -117 158 -142 44 -223 0 rrcurveto
            -325 -291 -203 -389 -362 332 -153 300 hvcurveto
            return
          </CharString>
          <CharString index="16">
            -142 -74 116 116 114 72 114 151 139 81 -97 -127 hvcurveto
            0 -152 -80 -81 -147 -3 rrcurveto
            return
          </CharString>
          <CharString index="17">
            -127 -84 -128 -164 -153 -78 124 125 125 79 126 159 161 80 -122 -123 vhcurveto
            return
          </CharString>
          <CharString index="18">
            176 0 134 21 110 29 rrcurveto
            -7 315 rlineto
            -112 -19 -137 -9 -81 0 rrcurveto
            -252 -109 89 124 159 203 46 208 hvcurveto
            112 0 113 -13 85 -16 rrcurveto
            25 321 rlineto
            -149 37 -174 23 -172 0 rrcurveto
            -441 -433 -149 -429 -411 484 -118 417 hvcurveto
            return
          </CharString>
          <CharString index="19">
            37 -74 44 -73 50 -88 94 24 160 17 23 12 rrcurveto
            1407 -3 vlineto
            -61 0 -360 -17 -96 -3 -1 -16 -5 -63 0 -37 -3 -115 -6 -138 -3 -114 -97 73 -146 55 -151 0 rrcurveto
            -346 -355 -196 -392 -309 285 -210 362 hvcurveto
            329 0 147 121 102 136 rrcurveto
            return
          </CharString>
          <CharString index="20">
            -361 2 rlineto
            15 90 62 80 118 0 100 0 64 -40 2 -132 rrcurveto
            return
          </CharString>
          <CharString index="21">
            253 0 230 58 79 60 rrcurveto
            19 254 -54 0 rlineto
            -145 -60 -134 -27 -113 0 -184 1 -130 73 -32 121 rrcurveto
            811 -4 9 123 rlineto
            1 11 1 2 0 10 rrcurveto
            19 vlineto
            342 -350 123 -272 -345 -408 -123 -471 -403 397 -109 367 vhcurveto
            return
          </CharString>
          <CharString index="22">
            3 128 rlineto
            0 150 16 240 11 233 rrcurveto
            410 hlineto
            11 72 8 106 0 46 -60 8 -63 2 -61 0 rrcurveto
            -244 hlineto
            30 121 55 86 247 0 41 0 47 -4 56 -8 5 68 7 114 0 140 -105 14 -100 7 -93 0 -452 0 -308 -163 -17 -375 rrcurveto
            -209 hlineto
            -8 -57 -12 -125 -2 -49 27 -7 -4 2 55 0 rrcurveto
            140 hlineto
            -16 -267 -14 -263 -2 -131 0 -33 3 -29 1 -27 30 -2 30 -1 31 0 rrcurveto
            return
          </CharString>
          <CharString index="23">
            449 0 482 209 17 364 rrcurveto
            55 987 -97 7 -437 34 -10 -103 rlineto
            -111 75 -136 51 -178 0 rrcurveto
            -377 -298 -260 -319 -338 337 -163 316 hvcurveto
            137 0 132 29 100 55 -13 -222 -190 -70 -200 0 -111 0 -114 22 -88 28 rrcurveto
            -47 0 -53 -308 rlineto
            127 -53 152 -25 156 0 rrcurveto
            return
          </CharString>
          <CharString index="24">
            130 81 134 163 158 68 -124 -124 -126 -70 -127 -189 -140 -71 117 120 vhcurveto
            return
          </CharString>
          <CharString index="25">
            18 591 0 15 rlineto
            268 -223 195 -329 vhcurveto
            -152 0 -175 -41 -186 -93 5 97 15 279 0 80 0 32 -3 29 -8 24 -37 0 -41 -6 -38 -1 -354 -34 -63 -4 -45 -2 rrcurveto
            -47 -1334 rlineto
            0 -36 1 -28 3 -33 rrcurveto
            494 2 rlineto
            43 2 36 4 30 4 rrcurveto
            236 vlineto
            375 89 86 164 189 32 -111 -76 vhcurveto
            -21 -523 0 -1 103 0 rlineto
            return
          </CharString>
          <CharString index="26">
            -159 0 -167 -6 -152 -10 -5 -45 -21 -377 -5 -172 -10 -207 -7 -154 0 -51 65 -4 342 -2 175 3 -2 21 4 40 0 20 rrcurveto
            0 7 38 934 rlineto
            -32 2 -32 1 -32 0 rrcurveto
            return
          </CharString>
          <CharString index="27">
            17 133 -88 94 -163 0 rrcurveto
            -321 -98 -130 -90 -161 81 -26 224 hvcurveto
            155 0 177 57 16 123 rrcurveto
            return
          </CharString>
          <CharString index="28">
            -1 vlineto
            33 -2 204 -7 93 0 410 0 238 138 21 413 rrcurveto
            29 920 rlineto
            -19 2 -20 1 -23 0 -150 0 -333 -23 -40 -3 -6 -323 -7 -223 -14 -270 -13 -269 -105 -38 -155 0 -33 0 -37 2 -38 2 0 -27 -35 -269 0 -23 rrcurveto
            return
          </CharString>
          <CharString index="29">
            136 -103 60 -185 -280 -87 -106 -85 -161 81 -56 224 182 168 65 147 vhcurveto
            return
          </CharString>
          <CharString index="30">
            586 55 rlineto
            -35 34 -30 36 -37 35 -111 123 -133 160 -138 146 44 41 43 36 39 33 rrcurveto
            247 236 89 80 rlineto
            -39 1 -40 1 -42 0 rrcurveto
            -572 -11 rlineto
            -26 -20 -43 -42 -46 -44 rrcurveto
            -174 -163 rlineto
            3 108 9 150 8 144 rrcurveto
            13 261 7 109 rlineto
            -105 1 -281 -17 -197 -11 0 -47 0 -44 -7 -45 rrcurveto
            -53 -1196 -5 -133 571 9 3 104 14 240 85 70 rlineto
            99 -114 169 -258 85 -68 rrcurveto
            return
          </CharString>
          <CharString index="31">
            -439 407 -90 367 353 446 75 488 347 -316 197 -426 -486 -345 -156 -422 vhcurveto
            return
          </CharString>
          <CharString index="32">
            318 0 37.8468017578 2.03413391113 20.1531982422 680.965866089 -351 0 0 -56 rlineto
            return
          </CharString>
          <CharString index="33">
            357 -372 vlineto
            -8 -357 rlineto
            return
          </CharString>
          <CharString index="34">
            171 -176 50 -185 vhcurveto
            -173 0 -181 -43 -57 -29 -4 -8 -41 -117 -17 -58 rrcurveto
            20 -13 28 12 rlineto
            66 28 58 15 45 0 61 0 37 -27 0 -54 0 -70 -62 -117 -150 -165 rrcurveto
            -102 -112 rlineto
            -22.8535614014 -25.0941162109 -20.1464385986 -16.9058837891 0 -15 0 -21 39 -12 117 0 174 0 77 1 307 3 15 1 21.8225708008 -0.847091674805 23 14 rrcurveto
            135.177429199 156.847091675 rlineto
            0 13 14 10 8 -16 5 -31 hvcurveto
            -90 0 -235 -18 -38 0 rrcurveto
            -4 0 142 141 rlineto
            74 73 74.7921142578 79.866897583 21.2078857422 24.133102417 36.7921142578 41.866897583 19.2078857422 37.133102417 0 36 rrcurveto
            return
          </CharString>
          <CharString index="35">
            1 2 -1 0 hvcurveto
            86 65 246 201 101 81 -47 14 -251 72 -46 12 -22 -31 -160 -237 -81 -135 36 -9 117 -29 18 -3 rrcurveto
            return
          </CharString>
          <CharString index="36">
            -7 3 0 8 vhcurveto
            129 0 119.145874023 -0.271133422852 112.854125977 3.27113342285 25.1458740234 0.728866577148 -0.145874023438 15.2711334229 5 44 rrcurveto
            28 314 rlineto
            1.68757629395 18.924911499 -10.6875762939 5.07508850098 -12 0 -113 -1 -135 -1 -117 0 -24.3310546875 0 -2.6689453125 -17 -2 -44 -17 -289 13 214 -11 -252 rrcurveto
            return
          </CharString>
          <CharString index="37">
            -16 0 -18 -1 -18 -2 rrcurveto
            48 142 -179 0 -63 -249 159 -21 rlineto
            50 -7 20 -29 0 -32 0 -48 -34 -45 -69 0 -41 0 -51 15 -64 39 rrcurveto
            -40 -143 rlineto
            68 -48 85 -25 81 0 rrcurveto
            144 132 78 167 122 -53 87 -141 hvcurveto
            return
          </CharString>
          <CharString index="38">
            261 432 -50 -432 rlineto
            return
          </CharString>
          <CharString index="39">
            -32 hlineto
            -11 0 -27 -1 -82 -1 16 231 14 89 15 229 rrcurveto
            6 vlineto
            17 -7 3 -15 vhcurveto
            -7 0 -7 -1 -10 -1 rrcurveto
            -384 hlineto
            -49 0 -6 -6 -8 -12 rrcurveto
            -514.358901978 -748.065628052 rlineto
            1.52587890625e-05 -17.9999847412 43.3589019775 -3.93437194824 109 0 66 0 140 2 209 0 rrcurveto
            -16 -173 rlineto
            -2 -19 17 -4 18 0 38 0 252.80569458 7.70690917969 25.1943054199 7.29309082031 12.8056945801 3.70690917969 3.19430541992 7.29309082031 0 7 rrcurveto
            17 165 173 0 rlineto
            return
          </CharString>
          <CharString index="40">
            -207 -339 -118 -216 -155 -247 -4 -7 -2 -6 0 -5 0 -33 98 -19 25 -7 rrcurveto
            127 -40 rlineto
            11.5249176025 -3.62989807129 11.4750823975 -3.37010192871 10 0 26 0 -4 19 14 23 rrcurveto
            807.32182312 1349.20906067 rlineto
            -1.52587890625e-05 6.99998474121 -10.3218231201 3.79093933105 -10 2 -89 13 -87 39 -91 27 rrcurveto
            -8 hlineto
            -24 0 -7 -12 -21 -37 -101 -174 -90 -166 -102 -168 rrcurveto
            return
          </CharString>
          <CharString index="41">
            65 89 68 84 67 87 rrcurveto
            126.780273438 -264.584960938 rlineto
            22 216.219726562 106.584960938 32 hvcurveto
            0 1 1 0 -1 1 2 3 1 3 0 5 0 5 -2 6 -5 8 -75 122 -178 267 -2 0 rrcurveto
            -148 hlineto
            -1 1 -2 1 -2 0 -3 0 -3 -2 -3 -3 -108 -126 -111.758789062 -131.211914062 -117.241210938 -128.788085938 -14.7587890625 -16.2119140625 -8.2412109375 -8.7880859375 0 -8 0 -2 1 -2 1 -2 -1 -1 0 -1 0 -2 rrcurveto
            0 -26 126.131835938 -56.005859375 34.8681640625 -21.994140625 30.1318359375 -19.005859375 17.8681640625 -2.994140625 6 0 rrcurveto
            return
          </CharString>
          <CharString index="42">
            -85 119 -76 6 -106 0 rrcurveto
            -188 -154 -169 -251 hvcurveto
            230 9 rlineto
            51 16 59 63 vhcurveto
            34 0 24 -5 22 -32 87 -127 82 -25 86 0 rrcurveto
            211 142 222 192 hvcurveto
            -230 10 rlineto
            -24.9765625 1.0859375 23.9765625 -108.0859375 -83 0 -29 0 -20 13 -25 35 rrcurveto
            return
          </CharString>
          <CharString index="43">
            -0.2607421875 -6.9951171875 3.373046875 -0.0087890625 7 0 117 0 107 2 147 0 rrcurveto
            5 358 -18 0 rlineto
            -100 0 -124 -2 -104 0 rrcurveto
            -27 hlineto
            return
          </CharString>
          <CharString index="44">
            -70 -39 -70 -84 -71.0634765625 -17.9365234375 67 51 66 39 72 89 64 20 -67 -49 vhcurveto
            return
          </CharString>
          <CharString index="45">
            175 109 147 145 153 -117 100 -148 -168 -130 -128 -152 -167 122 -98 157 hvcurveto
            return
          </CharString>
          <CharString index="46">
            -577 565 -170 538 vhcurveto
            85 0 107 3 108 12 rrcurveto
            439 vlineto
            -94 -18 -115 -17 -65 0 rrcurveto
            -207.060546875 -151.939453125 87 249 223 156 82 209 hvcurveto
            98 0 90 -7 80 -11 rrcurveto
            474 vlineto
            -62 7 -65 3 -66 0 rrcurveto
            -593 -617 -187 -592 hvcurveto
            return
          </CharString>
          <CharString index="47">
            244.001953125 0 153.998046875 1 239 0 0 34 11 62 0 262 rrcurveto
            -1050 12 11 195 rlineto
            60 1 58 0 59 0 64 0 55 -1 47 0 192 0 53 3 4 1 23 86 20 182 0 51 rrcurveto
            -156 4 rlineto
            -120.959960938 3.1015625 -170.040039062 -4.1015625 -175 -2 6 70 0 54 6 43 342 2 353 -4 269 24 rrcurveto
            41 377 rlineto
            -154 -4 -470 -2 -290 2 rrcurveto
            -643 hlineto
            -85.09375 0 -5.90625 -3 -66 -2 rrcurveto
            -29 -69 -1410 1 vhcurveto
            201 hlineto
            0 666 -8 276 vhcurveto
            return
          </CharString>
          <CharString index="48">
            65 89 68 84 67 87 rrcurveto
            126.780273438 -264.584960938 rlineto
            22 216.219726562 106.584960938 32 hvcurveto
            0 1 1 0 -1 1 2 3 1 3 0 5 0 5 -2 6 -5 8 -75 122 -178 267 -2 0 rrcurveto
            -148 hlineto
            -1 1 -2 1 -2 0 -3 0 -3 -2 -3 -3 -108 -126 -111.7578125 -131.211914062 -117.2421875 -128.788085938 -14.7578125 -16.2119140625 -8.2421875 -8.7880859375 0 -8 0 -2 1 -2 1 -2 -1 -1 0 -1 0 -2 rrcurveto
            0 -26 126.131835938 -56.005859375 34.8681640625 -21.994140625 30.1318359375 -19.005859375 17.8681640625 -2.994140625 6 0 rrcurveto
            return
          </CharString>
          <CharString index="49">
            -57 0 -58 -2 -59 0 -113.0703125 0 -364.9296875 -10 -59 -3 rrcurveto
            -32 -1281 rlineto
            -1.6728515625 -66.9794921875 -1.3271484375 -30.0205078125 4 -56 130 0 254 5 139 0 rrcurveto
            190.544921875 5.0322265625 27.455078125 1251.96777344 rlineto
            1.556640625 70.9833984375 7.443359375 60.0166015625 -8 56 rrcurveto
            return
          </CharString>
          <CharString index="50">
            423 hlineto
            144 0 144.0546875 1.62890625 145.9453125 6.37109375 610.0546875 26.62890625 567.9453125 6.37109375 0 764 rrcurveto
            481 -391 197 -510 -399 -621 -52 0 vhcurveto
            -25 -659 -73 -674 -16 -98 rrcurveto
            return
          </CharString>
          <CharString index="51">
            -354 vlineto
            0 -315.192382812 -33 -334.598632812 0 -290.208984375 0 -55 -2 -47 -3 -44 213 0 255 18 156 3 rrcurveto
            11 vlineto
            0 28 2 103 12 469 rrcurveto
            745 -668 rlineto
            518 95 81 -3 88 15 rrcurveto
            -2.013671875 166 3.013671875 227 rlineto
            2 161 2 192 0 150 rrcurveto
            -1.9970703125 488.696289062 -596.002929688 -6.6962890625 rlineto
            -4 -46 -1 -52 -1 -63 rrcurveto
            -440 vlineto
            -149 171 -364 404 -31 36 rrcurveto
            return
          </CharString>
          <CharString index="52">
            -217 -139 93 251 239.008789062 142 121.991210938 225 209 143 -77 -247 -258 -131.893554688 -123 -231.106445312 hvcurveto
            return
          </CharString>
          <CharString index="53">
            -0.26171875 -6.9951171875 3.373046875 -0.0087890625 7 0 117 0 107 2 147 0 rrcurveto
            5 358 -18 0 rlineto
            -100 0 -124 -2 -104 0 rrcurveto
            -27 hlineto
            return
          </CharString>
          <CharString index="54">
            427 0 518.639648438 106.5859375 130.360351562 483.4140625 17.6845703125 65.580078125 31.3154296875 575.321289062 0 253.098632812 -357 -5 -216.306640625 -3.9892578125 -201 -6 rrcurveto
            -25.693359375 -714.010742188 rlineto
            -8.1630859375 -226.85546875 -119.836914062 -125.14453125 -179 0 rrcurveto
            -224 -57.9970703125 149 104 hvcurveto
            31.9970703125 674 rlineto
            2.41796875 50.9423828125 -2.41796875 53.0576171875 3 54 rrcurveto
            -309 -6 -484 -2 rlineto
            -16 -108 3 -134 -7 -209 rrcurveto
            -6.384765625 -392.009765625 rlineto
            -596 582.384765625 -40.990234375 466 vhcurveto
            return
          </CharString>
          <CharString index="55">
            65 89 68 84 67 87 rrcurveto
            126.779296875 -264.584960938 rlineto
            22 216.220703125 106.584960938 32 hvcurveto
            0 1 1 0 -1 1 2 3 1 3 0 5 0 5 -2 6 -5 8 -75 122 -178 267 -2 0 rrcurveto
            -148 hlineto
            -1 1 -2 1 -2 0 -3 0 -3 -2 -3 -3 -108 -126 -111.758789062 -131.211914062 -117.241210938 -128.788085938 -14.7587890625 -16.2119140625 -8.2412109375 -8.7880859375 0 -8 0 -2 1 -2 1 -2 -1 -1 0 -1 0 -2 rrcurveto
            0 -26 126.131835938 -56.005859375 34.8681640625 -21.994140625 30.1318359375 -19.005859375 17.8681640625 -2.994140625 6 0 rrcurveto
            return
          </CharString>
          <CharString index="56">
            -0.26171875 -6.9951171875 3.3740234375 -0.0087890625 7 0 117 0 107 2 147 0 rrcurveto
            5 358 -18 0 rlineto
            -100 0 -124 -2 -104 0 rrcurveto
            -27 hlineto
            return
          </CharString>
          <CharString index="57">
            566 12 139 6 26 553 621 832 rlineto
            4 7 28 42 -6 1 -20 4 -661 1 -28 -4 rrcurveto
            -271 -392 -273 406 rlineto
            -33 -703.081054688 -18.404296875 0 hvcurveto
            600.081054688 -926.595703125 rlineto
            0 -32 2 -435 9 -56 rrcurveto
            return
          </CharString>
          <CharString index="58">
            -5 -55 -19.1953125 -377.069335938 -6.8046875 -171.930664062 -8.1953125 -207.069335938 -8.8046875 -153.930664062 0 -51 104 -2 440.421875 -3.935546875 36 3 rrcurveto
            41.578125 1021.93554688 rlineto
            -190 12 -203 -3 -181 -12 rrcurveto
            return
          </CharString>
          <CharString index="59">
            65 89 68 84 67 87 rrcurveto
            126.780273438 -264.584960938 rlineto
            22 216.219726562 106.584960938 32 hvcurveto
            0 1 1 0 -1 1 2 3 1 3 0 5 0 5 -2 6 -5 8 -75 122 -178 267 -2 0 rrcurveto
            -148 hlineto
            -1 1 -2 1 -2 0 -3 0 -3 -2 -3 -3 -108 -126 -111.7578125 -131.211914062 -117.2421875 -128.788085938 -14.7578125 -16.2119140625 -8.2421875 -8.7880859375 0 -8 0 -2 1 -2 1 -2 -1 -1 0 -1 0 -2 rrcurveto
            0 -26 126.1328125 -56.005859375 34.8671875 -21.994140625 30.1328125 -19.005859375 17.8671875 -2.994140625 6 0 rrcurveto
            return
          </CharString>
          <CharString index="60">
            118 82 -104 -136 hvcurveto
            -6 -476 596 4 rlineto
            10 364 8 105 0 74 0 48 -1.775390625 50.2802734375 -11.224609375 46.7197265625 -62.775390625 261.280273438 -236.224609375 123.719726562 -312 0 -211 0 -245 -61 -126 -186 rrcurveto
            -107 206 -335 -71 rlineto
            -1 -32 -26 -836 -1 -100 rrcurveto
            597 10 rlineto
            0 5 232 71 207 41 199 225 hvcurveto
            return
          </CharString>
          <CharString index="61">
            -162 -75.97265625 -124 -166.02734375 -162 -74 96 168 131 67 142 164 160 87 -110 -141 vhcurveto
            return
          </CharString>
          <CharString index="62">
            18 -45 58 -122 20 -40 rrcurveto
            315 47 49 888 rlineto
            1.908203125 34.5849609375 -1.908203125 33.7783203125 -1 34.63671875 -282 -6.587890625 -145 -3.294921875 -142 -4.1171875 rrcurveto
            -160 vlineto
            -358 -15 -244 -263 -144 -58 116 146 vhcurveto
            0 11 15 332 9 173 rrcurveto
            -196 -12 rlineto
            -129.783203125 -7.9462890625 -204.188476562 -3.64453125 -73.0283203125 -5.4091796875 -5 -182.172851562 -18 -118.412109375 0 -286.415039062 0 -337 326 -107 302 0 207 0 220 71 137 156 rrcurveto
            return
          </CharString>
          <CharString index="63">
            -55 -147 -330 -93 -59 0 rrcurveto
            173 -280 rlineto
            498 0 186.838867188 305.194335938 131.161132812 299.805664062 155.731445312 355.967773438 156.5 353.134765625 150.768554688 359.897460938 rrcurveto
            -431 16 rlineto
            -30.978515625 1.150390625 -28.021484375 -1.150390625 -28 -2 -49 -121 -124 -405 -46 -124 rrcurveto
            -281 651 -584 -25 rlineto
            57 -95 300 -624 153 -274 rrcurveto
            return
          </CharString>
          <CharString index="64">
            -12 -306 127 2 rlineto
            107.986328125 1.7001953125 368.013671875 6.2998046875 256 8 rrcurveto
            2 34 rlineto
            3 51 9 144 2 77 rrcurveto
            return
          </CharString>
          <CharString index="65">
            -85 -29 53 42 hvcurveto
            0 14 3 13 0 4 rrcurveto
            -201 hlineto
            -7 -25 -3 -24 0 -22 rrcurveto
            -145 141 -98 167 202 154 100 214 vhcurveto
            -209 -2 rlineto
            -86 -40 -38 -93 vhcurveto
            return
          </CharString>
          <CharString index="66">
            -143 129 -59 141 vhcurveto
            52 0 54 8 49 15 rrcurveto
            20 153 rlineto
            -106 15 -35 51 0 62 0 103 97 131 32 33 rrcurveto
            -179 hlineto
            -123 -83 -120 -126 -11 -160 rrcurveto
            return
          </CharString>
          <CharString index="67">
            -7 3 0 8 vhcurveto
            129 0 119.145507812 -0.271484375 112.854492188 3.271484375 25.1455078125 0.728515625 -0.1455078125 15.271484375 5 44 rrcurveto
            28 314 rlineto
            1.6875 18.9248046875 -10.6875 5.0751953125 -12 0 -113 -1 -135 -1 -117 0 -24.3310546875 0 -2.6689453125 -17 -2 -44 -17 -289 13 214 -11 -252 rrcurveto
            return
          </CharString>
          <CharString index="68">
            -69 -94 -72 -89 -71 -92 rrcurveto
            -122 254 rlineto
            -8.361328125 17.4091796875 -1.638671875 6.5908203125 -4 0 -23 0 -228 -111 0 -34 0 -1 0 0 1 -1 -2 -3 -2 -4 0 -5 0 -6 2 -6 5 -8 80 -129 188 -281 2 0 rrcurveto
            2 -2 7 0 3 0 rrcurveto
            151 hlineto
            3 0 3 1 3 3 115 134 117.698242188 137.267578125 124.301757812 136.732421875 15.6982421875 17.267578125 8.3017578125 9.732421875 0 8 0 2 -1 3 -1 2 1 1 0 1 0 2 0 27 -133.137695312 60.0283203125 -36.8623046875 22.9716796875 rrcurveto
            -32.1376953125 20.0283203125 -17.8623046875 2.9716796875 -7 0 rrcurveto
            return
          </CharString>
          <CharString index="69">
            -69 -94 -72 -89 -71 -92 rrcurveto
            -122 254 rlineto
            -8.3623046875 17.4091796875 -1.6376953125 6.5908203125 -4 0 -23 0 -228 -111 0 -34 0 -1 0 0 1 -1 -2 -3 -2 -4 0 -5 0 -6 2 -6 5 -8 80 -129 188 -281 2 0 rrcurveto
            2 -2 7 0 3 0 rrcurveto
            151 hlineto
            3 0 3 1 3 3 115 134 117.697265625 137.267578125 124.302734375 136.732421875 15.697265625 17.267578125 8.302734375 9.732421875 0 8 0 2 -1 3 -1 2 1 1 0 1 0 2 0 27 -133.138671875 60.0283203125 -36.861328125 22.9716796875 rrcurveto
            -32.138671875 20.0283203125 -17.861328125 2.9716796875 -7 0 rrcurveto
            return
          </CharString>
          <CharString index="70">
            -14.103515625 -174.036132812 149.26171875 1.1376953125 rlineto
            126.915039062 0.966796875 432.522460938 3.5830078125 300.875 4.5498046875 rrcurveto
            2.3505859375 19.3369140625 rlineto
            3.525390625 29.0068359375 10.578125 81.8994140625 2.3505859375 43.79296875 rrcurveto
            return
          </CharString>
          <CharString index="71">
            -7 3 0 8 vhcurveto
            129 0 119.146484375 -0.271484375 112.853515625 3.271484375 25.146484375 0.728515625 -0.146484375 15.271484375 5 44 rrcurveto
            28 314 rlineto
            1.6875 18.9248046875 -10.6875 5.0751953125 -12 0 -113 -1 -135 -1 -117 0 -24.3310546875 0 -2.6689453125 -17 -2 -44 -17 -289 13 214 -11 -252 rrcurveto
            return
          </CharString>
          <CharString index="72">
            38 510 -19 0 rlineto
            -116 0 -494 -5 -77 -4 -3 -77 -21 -340 -2 -61 rrcurveto
            -21.01171875 -564 rlineto
            -5.2529296875 -140.990234375 -3.73046875 -158.176757812 0 -120 rrcurveto
            689.995117188 19.1669921875 26 430 534 0 rlineto
            -6 -115 -8 -257 0 -71 75 0 587 13 56 0 17 696 4 -21 0 40 0 75 37 642 -1 20 rrcurveto
            -576 -15 rlineto
            -39 -1 -61 2 -42 0 0 0 -28 -476 -3 -21 rrcurveto
            return
          </CharString>
          <CharString index="73">
            -85 119 -76 6 -106 0 rrcurveto
            -188 -154 -169 -251 hvcurveto
            230 9 rlineto
            51 16 59 63 vhcurveto
            34 0 24 -5 22 -32 87 -127 82 -25 86 0 rrcurveto
            211 142 222 192 hvcurveto
            -230 10 rlineto
            -24.9755859375 1.0859375 23.9755859375 -108.0859375 -83 0 -29 0 -20 13 -25 35 rrcurveto
            return
          </CharString>
          <CharString index="74">
            -12 -306 127 2 rlineto
            107.987304688 1.7001953125 368.012695312 6.2998046875 256 8 rrcurveto
            2 34 rlineto
            3 51 9 144 2 77 rrcurveto
            return
          </CharString>
          <CharString index="75">
            -1 vlineto
            33 -2 204 -7 93 0 410 0 238 138 21 413 rrcurveto
            29 920 rlineto
            -19 2 -20 1 -23 0 rrcurveto
            -3 hlineto
            -151 -12 -328 -11 -41 -3 -6 -323 -7 -223 -14 -270 -13 -269 -105 -38 -155 0 -33 0 -37 2 -38 2 0 -27 -35 -269 0 -23 rrcurveto
            return
          </CharString>
          <CharString index="76">
            -245.42578125 76.57421875 -241.515625 80.484375 -237.05859375 84.94140625 rrcurveto
            -65 -76 -415 -524 rlineto
            4 117 13 116.635742188 0 137.364257812 0 71 -3 60 -9 56 -32 0 -32 1 -33 0 -161 0 -409 -14 -61 -8 -4 -31 -2 -39 0 -46 0 -135 -11 -174 -10 -214 rrcurveto
            -19 -636 rlineto
            -1.7919921875 -59.9736328125 3.7919921875 -53.0263671875 3 -50 136 0 536 14 65 2 rrcurveto
            70 vlineto
            0 18 14 290 2 148 81 -86 274 -246 165 -139 rrcurveto
            173 -142 106 54 555 229 -656 514 rlineto
            172.490234375 175.176757812 176.723632812 170.942382812 167.786132812 179.880859375 rrcurveto
            return
          </CharString>
          <CharString index="77">
            71 -5 35 -2 85 0 158 1 282 1 276 0 367 0 354 -1 33 0 rrcurveto
            32 206 rlineto
            12.3427734375 79.4580078125 3.6572265625 43.5419921875 0 44 -57 9 -60.9638671875 2.4716796875 -71 0 rrcurveto
            -771.036132812 -18.4716796875 rlineto
            12.1796875 264 8.3330078125 134 4.4873046875 192 rrcurveto
            23 500 rlineto
            -400 7 -242 -10 -102 -12 -14 -204 -21 -569 -6 -92 rrcurveto
            -8 -327 rlineto
            return
          </CharString>
          <CharString index="78">
            583.76171875 16.0087890625 rlineto
            19.4755859375 488.267578125 13.32421875 494.41796875 23.4384765625 484.305664062 -191 -10 -312 -13 -88 -5 0 -2 -12 -341 -7 -167 rrcurveto
            return
          </CharString>
          <CharString index="79">
            -69 -94 -72 -89 -71 -92 rrcurveto
            -122 254 rlineto
            -8.3623046875 17.4091796875 -1.6376953125 6.5908203125 -4 0 -23 0 -228 -111 0 -34 0 -1 0 0 1 -1 -2 -3 -2 -4 0 -5 0 -6 2 -6 5 -8 80 -129 188 -281 2 0 rrcurveto
            2 -2 7 0 3 0 rrcurveto
            151 hlineto
            3 0 3 1 3 3 115 134 117.697265625 137.267578125 124.302734375 136.732421875 15.697265625 17.267578125 8.302734375 9.732421875 0 8 0 2 -1 3 -1 2 1 1 0 1 0 2 0 27 -133.137695312 60.0283203125 -36.8623046875 22.9716796875 rrcurveto
            -32.1376953125 20.0283203125 -17.8623046875 2.9716796875 -7 0 rrcurveto
            return
          </CharString>
          <CharString index="80">
            262 369 -248 162 -151 -449 rlineto
            return
          </CharString>
          <CharString index="81">
            354 368 -250 184 -216 -449 rlineto
            -1 -2 0 1 0 -2 rrcurveto
            return
          </CharString>
          <CharString index="82">
            781.041992188 104.6875 rlineto
            -97 121 -252 361 -112 128 182 62 175 131 0 205 0 398 -416 35 -459 0 -892.350585938 0 -92.6494140625 -25 -14 0 rrcurveto
            -30 -624 -6 -165 rlineto
            -9 -233 -11 -255 0 -176 rrcurveto
            234 8 rlineto
            104.938476562 3.587890625 224.061523438 4.412109375 125 2 7 1 0 4 0 4 rrcurveto
            20 497 245 17 rlineto
            52 -123 193.958007812 -399.6875 47 -86 rrcurveto
            return
          </CharString>
          <CharString index="83">
            433 21 42 637 rlineto
            1 0 60 69 133 0 56 0 69 -12 82 -34 rrcurveto
            105 290 rlineto
            -35 46 -130 54 -110 0 -106 0 -134 -63 -141 -182 rrcurveto
            -116 201 -277 -59 -37 -897 rlineto
            -1.0302734375 -24.978515625 4.0302734375 -25.021484375 3 -23 rrcurveto
            return
          </CharString>
          <CharString index="84">
            584 416 120 385 hvcurveto
            0 391 -513 43 -421 72 -125 21 -70 13 0 46 0 41 79 15 113 0 226 0 361 -60 139 -38 18 55 36 118 45 169 -127 62 -339 73 -232 0 rrcurveto
            -485 -560 -45 -445 hvcurveto
            0 -411 492 -40 524 -84 21 -3 49 -2 0 -46 0 -47 -92 -8 -67 0 -331 0 -199 49 -291 73 -6 0 -2 -4 0 -3 -34 -131 -31 -111 -32 -133 rrcurveto
            277 -92 322.9921875 -43 254.0078125 0 rrcurveto
            return
          </CharString>
          <CharString index="85">
            568 131 141 211 hvcurveto
            0 318 -362 24 -300 39 -72 9 -42 7 0 32 0 25 52 9 74 0 176 0 260 -31 82 -20 rrcurveto
            48 280 rlineto
            -143 36 -164 27 -200 0 -194 0 -537 -30 0 -318 0 -288 357.076171875 -9.6259765625 307.923828125 -62.3740234375 82.076171875 -16.6259765625 40.923828125 -7.3740234375 0 -38 0 -17 -63 -15 -114 0 -125 0 -185 17 -234 49 rrcurveto
            -66 -277 rlineto
            132 -73 312 -21 178 0 rrcurveto
            return
          </CharString>
          <CharString index="86">
            -1 4 20 571 11 256 rrcurveto
            6 216 521 0 rlineto
            31 100 30 209 10 86 -50 1 -59 2 -57 0 -468 -1 -761 -6 -388 -5 -16 -105 -21 -239 -2 -42 rrcurveto
            546 hlineto
            -7 -132 -3 -93 -5 -157 rrcurveto
            -20.8330078125 -684 4.8330078125 0 rlineto
            82 0 542 18 55 1 rrcurveto
            return
          </CharString>
          <CharString index="87">
            2 21 3 21.9169921875 0 24.0830078125 0 113.44140625 2 69.55859375 -5 49 -69 -19 -127.874023438 -40 -99.1259765625 0 -110.004882812 0 -82.9951171875 31 5 153 rrcurveto
            10 279 335 0 rlineto
            42 0 38 1 28 9 rrcurveto
            53 213 rlineto
            -27 8 -29 4 -32 0 rrcurveto
            -389 0 17 363 rlineto
            2 27 0 25 -1 25 -153 1 -282 -20 -161 -15 -12 -98 4 -120 -25 -185 rrcurveto
            -182 0 -62 -229 rlineto
            24 -7 39 -2 55 0 rrcurveto
            102 hlineto
            -5 -27 0 -221 -6 -57 rrcurveto
            -12 vlineto
            -5 -321 240 -143 367 -2 128 0 229 25 140 55 rrcurveto
            return
          </CharString>
          <CharString index="88">
            144 0 396.20703125 12.5263671875 73 7 rrcurveto
            571.79296875 1455.47363281 -670 -7 -224 -690 -263 697 -548.276367188 -8.9169921875 -222.723632812 -738.083007812 -233 759 -260 -6 -487 -15 83 -250 499 -1216 rlineto
            148 0 449 6 75 4 rrcurveto
            57 169 156 511 rlineto
            return
          </CharString>
          <CharString index="89">
            107.504882812 284.65625 114.794921875 319.993164062 119.700195312 281.350585938 rrcurveto
            -384 -2 -136.3359375 -10.162109375 -150.6640625 -617.837890625 rlineto
            -45.3359375 206.330078125 -48.978515625 202.688476562 -42.685546875 208.981445312 -66 4 -65 2 -71 0 rrcurveto
            -322 -3 -30 -123 -133 -504 -110.98046875 623.825195312 rlineto
            -37 -2.2880859375 -34.01953125 -0.537109375 -40 0 rrcurveto
            -100 -5 rlineto
            -116.33984375 -3.4140625 -84.2470703125 -1.861328125 -141.413085938 -3.724609375 122.384765625 -347.958984375 103.325195312 -352.041015625 92.2900390625 -300 rrcurveto
            111 hlineto
            161.42578125 0 223.147460938 11.6259765625 124.553710938 6.591796875 rrcurveto
            115.873046875 444.782226562 rlineto
            36 -179 30 -146 27 -145 36 1 33 0 40 0 158.168945312 0 227.448242188 5.478515625 120.3828125 3.521484375 17.5 49.63671875 19.8447265625 43.56640625 17.6552734375 46.796875 rrcurveto
            return
          </CharString>
          <CharString index="90">
            156.029296875 0 256.970703125 3 24 0 12 53 55 324 0 45 -46 1 -53 0 -54 0 -80 0 -77 -6 -81 0 rrcurveto
            -303 hlineto
            224 299 399 645 40 76 -394 0 -389 10 -396 0 -156 0 -161 -1 -137 -6 rrcurveto
            -55 -432 rlineto
            63 -4 530 -10 120 -1 rrcurveto
            -717 -937 rlineto
            0 -2 -1 -50 0 -2 58 -4 73 -1 69 0 rrcurveto
            return
          </CharString>
          <CharString index="91">
            136.208007812 373.559570312 -8.2080078125 6.4404296875 rlineto
            -104.970703125 0 -100.87109375 -5.4658203125 -107.501953125 -1.8955078125 117.403320312 225.118164062 117.244140625 223.963867188 114.696289062 228.279296875 rrcurveto
            9 -93 vlineto
            -320.211914062 0 -338.359375 14.482421875 -323.26171875 0 -47.9208984375 -113.294921875 -54.37890625 -106.837890625 -43.8671875 -117.349609375 rrcurveto
            -1 vlineto
            102.278320312 0 205.53125 11 143.190429688 0 rrcurveto
            -417 -742 rlineto
            27 0 76 0 54 -4 rrcurveto
            return
          </CharString>
          <CharString index="92">
            145 87 -160 473 -263 -170 rlineto
            return
          </CharString>
          <CharString index="93">
            120 105 rlineto
            0 2 0 0 -1 2 rrcurveto
            -229 474 -264 -195 rlineto
            return
          </CharString>
          <CharString index="94">
            181 10 rlineto
            147.69921875 -80.859375 151.30078125 -195.140625 -180.118164062 -143.881835938 -105.510742188 -179.489257812 vhcurveto
            168 -20 rlineto
            50.818359375 29.5048828125 78.181640625 101.495117188 90.953125 30.8544921875 -47.587890625 -59.3388671875 vhcurveto
            0 -8.4853515625 -0.630859375 -8.7265625 -1.1767578125 -8.861328125 rrcurveto
            return
          </CharString>
          <CharString index="95">
            181 10 rlineto
            147.69921875 -80.859375 151.30078125 -195.140625 -180.118164062 -143.881835938 -105.510742188 -179.489257812 vhcurveto
            168 -20 rlineto
            50.818359375 29.50390625 78.181640625 101.49609375 90.953125 30.8544921875 -47.587890625 -59.3388671875 vhcurveto
            0 -8.4853515625 -0.630859375 -8.7265625 -1.1767578125 -8.861328125 rrcurveto
            return
          </CharString>
          <CharString index="96">
            181 10 rlineto
            147.69921875 -80.859375 151.30078125 -195.140625 -180.119140625 -143.880859375 -105.510742188 -179.489257812 vhcurveto
            168 -20 rlineto
            50.818359375 29.50390625 78.181640625 101.49609375 90.953125 30.853515625 -47.587890625 -59.3388671875 vhcurveto
            0 -8.4853515625 -0.630859375 -8.7265625 -1.17578125 -8.861328125 rrcurveto
            return
          </CharString>
          <CharString index="97">
            -141 0 -222 -96 -3 -253 rrcurveto
            -4 -329 409 0 14 360 -139 0 rlineto
            10 75 32 70 97 13 rrcurveto
            8 153 rlineto
            -18 5 -21 2 -22 0 rrcurveto
            return
          </CharString>
          <CharString index="98">
            141 0 222 96 3 253 rrcurveto
            4 329 -409 0 -14 -360 139 0 rlineto
            -10 -75 -32 -70 -97 -13 rrcurveto
            -8 -153 rlineto
            18 -5 21 -2 22 0 rrcurveto
            return
          </CharString>
          <CharString index="99">
            -36 -55 -56 -20 -66 0 -171 0 -241 132 -138 0 -92 0 -93 -42 -92 -127 rrcurveto
            116 -227 rlineto
            52 75 68 26 76 0 165 0 204 -121 173 0 89 0 90 31 95 93 rrcurveto
            return
          </CharString>
          <CharString index="100">
            112 36 130 127 107 36 -129 -91 -108 -36 -139 -125 -117 -28 121 104 vhcurveto
            return
          </CharString>
          <CharString index="101">
            -253 163 -163 233 249 168 170 285 219 -121 208 -268 -283 -141 -203 -263 vhcurveto
            return
          </CharString>
          <CharString index="102">
            -875 39 rlineto
            -34 -37 -392 -377 -161 -177 rrcurveto
            23 440 11 155 -454 11 rlineto
            -48.99609375 1.1875 -72.00390625 0.8125 -50 0 rrcurveto
            -38 -1219 -11 -226 741 -17 720 638 rlineto
            -12 -453 -3 -132 -1 -27 0 -7 -1 -2 0 -2 150 -10 262 -8 206 0 rrcurveto
            7 155 rlineto
            6 386 27 815 0 53 rrcurveto
            return
          </CharString>
          <CharString index="103">
            -2 21 0 37 0 20 rrcurveto
            0 7 38 934 -533 -6 -1 0 rlineto
            -103 -119 -358 -421 -49 -66 10 175 7 175 8 175 rrcurveto
            5 90 rlineto
            -67 5 -114 9 -325 -12 rrcurveto
            -36 -911 0 -104 82 -2 rlineto
            94 -3 350 -5 115 6 rrcurveto
            347 389 rlineto
            -8 -173 -6 -176 0 -45 rrcurveto
            return
          </CharString>
          <CharString index="104">
            1012 11 rlineto
            552.967330933 6.01051330566 239.032669067 206.989486694 0 311 0 332 -298 155 -338 -8 rrcurveto
            -415 -10 22 457 rlineto
            -111 -7 -15 2 -15 0 rrcurveto
            -587 -10 -21 -496 -12 -511 rlineto
            -2.70809936523 -115.319839478 -11.2919006348 -100.680160522 0 -115 rrcurveto
            return
          </CharString>
          <CharString index="105">
            184 hlineto
            119 65 -80 -104 -132 -94 -76 -128 hvcurveto
            -60 0 -37 -2 -66 6 rrcurveto
            return
          </CharString>
          <CharString index="106">
            -353 1 292 -1 -472 0 -91 0 -388 -12 -60 -9 rrcurveto
            -10 -10 rlineto
            -19 -248 -14 -182 -10 -246 0 -10 -2 -17 0 -11 -4 -96 -3 -107 0 -81 rrcurveto
            106 -4 15 0 437 5 52 666 505 0 rlineto
            5 42 14 320 0 0 rrcurveto
            return
          </CharString>
          <CharString index="107">
            616 25 rlineto
            -149 145 -170 166 -180 191 rrcurveto
            121 121 336 357 rlineto
            -39 1 -40 1 -42 0 rrcurveto
            -552 -11 -135 -147 -174 -193 12 282 2 70 -416 5 -171 0 -30 -873 -5 -133 583 9 5 243 115 90 rlineto
            return
          </CharString>
          <CharString index="108">
            263 2 315 -4 rlineto
            15 499 4 -15 0 29 rrcurveto
            14 529 -568 -12 -33 -662 -411 0 rlineto
            5 126 2 1 0 18 rrcurveto
            14 529 -228 -5 -347 0 -23 -669 -424 0 30 670 -559 -2 -11 -10 -4 -49 -36 -976 1131 -4 rlineto
            return
          </CharString>
        <CharString name=".notdef">
          -880 102 hmoveto
          820 1092 -820 hlineto
          102 -990 rmoveto
          888 616 -888 vlineto
          endchar
        </CharString>
        <CharString name="A">
          372 1226 540 rmoveto
          -103 callsubr
          -646 -562 rmoveto
          -102 callsubr
          endchar
        </CharString>
        <CharString name="AE">
          938 2760 349 rmoveto
          -904 0 -2 207 330 0 rlineto
          192 0 53 3 4 1 rrcurveto
          21 323 -134 0 rlineto
          -120.998046875 0.9033203125 -170.001953125 -1.9033203125 -175 -2 6 70 0 54 6 43 rrcurveto
          844 15 10.9986114502 382.479278564 -763.991775513 -2.20584106445 -643.006835938 1.7265625 0 -3 -403 -6 rlineto
          -124 -176.5 -750 -1131.02011108 -89 -104.479888916 rrcurveto
          698 -37 106 188 399 0 -23 -175.6953125 1617.99609375 0 rlineto
          -1576.99609375 546.6953125 rmoveto
          -249 -4 285 481 rlineto
          -12 -139 -12 -159 -12 -179 rrcurveto
          endchar
        </CharString>
        <CharString name="Aacute">
          372 1177.11816406 1645 rmoveto
          -72 callsubr
          48.8818359375 -1105 rmoveto
          -103 callsubr
          -646 -562 rmoveto
          -102 callsubr
          endchar
        </CharString>
        <CharString name="Abreve">
          372 1175.56347656 1832 rmoveto
          -42 callsubr
          50.4365234375 -1292 rmoveto
          -103 callsubr
          -646 -562 rmoveto
          -102 callsubr
          endchar
        </CharString>
        <CharString name="Acircumflex">
          372 1006.203125 1648 rmoveto
          -66 callsubr
          219.796875 -1105 rmoveto
          -103 callsubr
          -646 -562 rmoveto
          -102 callsubr
          endchar
        </CharString>
        <CharString name="Adieresis">
          372 1684.74316406 1645 rmoveto
          -74 callsubr
          -632.112304688 6.00390625 rmoveto
          -64 callsubr
          540.256835938 -1462 rmoveto
          -103 callsubr
          -646 -562 rmoveto
          -102 callsubr
          endchar
        </CharString>
        <CharString name="Agrave">
          372 1317.74316406 1700 rmoveto
          -93 callsubr
          33.2568359375 -1115 rmoveto
          -103 callsubr
          -646 -562 rmoveto
          -102 callsubr
          endchar
        </CharString>
        <CharString name="Amacron">
          372 757.153320312 1950 rmoveto
          -43 callsubr
          -394.153320312 -1428 rmoveto
          -103 callsubr
          -646 -562 rmoveto
          -102 callsubr
          endchar
        </CharString>
        <CharString name="Aogonek">
          372 1747 -336 rmoveto
          -41 callsubr
          -521 876 rmoveto
          -103 callsubr
          -646 -562 rmoveto
          -102 callsubr
          endchar
        </CharString>
        <CharString name="Aring">
          372 1271 1839 rmoveto
          -63 callsubr
          -105 -286 rmoveto
          -62 callsubr
          60 -1013 rmoveto
          -103 callsubr
          -646 -562 rmoveto
          -102 callsubr
          endchar
        </CharString>
        <CharString name="Atilde">
          372 1295.15136719 2009 rmoveto
          -65 callsubr
          -69.1513671875 -1469 rmoveto
          -103 callsubr
          -646 -562 rmoveto
          -102 callsubr
          endchar
        </CharString>
        <CharString name="B">
          461 949 281 rmoveto
          6 84 9 120 10 142 392 0 175 -34 21 -112 1 -6 1 -7 0 -6 4 -132 -347 -49 -272 0 rrcurveto
          43 577 rmoveto
          7 136 8 100 7 60 38 5 1 2 50 0 180 0 223 -24 3 -117 0 -10 -2 -10 -3 -10 -20 -74 -77 -58 -290 0 rrcurveto
          -32 -883 rmoveto
          904 0 304 228 -68 348 -27 140 -132 97 -199 32 164 40 144 131 -2 115 -6 240 -350 116 -561 0 -269 0 -540 -5 -150 -6 rrcurveto
          -33 -429 1 0 rlineto
          -22 -316 -24 -367 -15 -296 0 -4 -1 0 1 -4 0 -17 7 -15 27 -7 111 -8 493 -13 243 0 rrcurveto
          endchar
        </CharString>
        <CharString name="C">
          -162 133 702 rmoveto
          -577 565 -170 538 vhcurveto
          85 0 107 3 108 12 rrcurveto
          439 vlineto
          -94 -18 -115 -17 -65 0 rrcurveto
          -207.060379028 -151.939620972 87 249 223 156 82 209 hvcurveto
          98 0 90 -7 80 -11 rrcurveto
          474 vlineto
          -62 7 -65 3 -66 0 rrcurveto
          -593 -617 -187 -592 hvcurveto
          endchar
        </CharString>
        <CharString name="Cacute">
          -162 1051.71191406 1645 rmoveto
          -72 callsubr
          -918.711914062 -943 rmoveto
          -61 callsubr
          endchar
        </CharString>
        <CharString name="Ccaron">
          -162 1296.17773438 2232 rmoveto
          -39 callsubr
          -1163.17773438 -1533 rmoveto
          -61 callsubr
          endchar
        </CharString>
        <CharString name="Ccedilla">
          -162 1240 -164 rmoveto
          -70 callsubr
          -1107 866 rmoveto
          -61 callsubr
          endchar
        </CharString>
        <CharString name="Ccircumflex">
          -162 889.796875 1648 rmoveto
          -59 callsubr
          -756.796875 -943 rmoveto
          -61 callsubr
          endchar
        </CharString>
        <CharString name="Cdotaccent">
          -162 846.045898438 1651 rmoveto
          -40 callsubr
          -713.045898438 -953 rmoveto
          -61 callsubr
          endchar
        </CharString>
        <CharString name="D">
          415 955 1064 rmoveto
          -101 callsubr
          -769 -382 rmoveto
          423 hlineto
          144 0 144.054931641 1.62937927246 145.945068359 6.37062072754 610.054931641 26.6293792725 567.945068359 6.37062072754 0 764 rrcurveto
          481 -391 197 -510 -399 -621 -52 0 vhcurveto
          -25 -659 -73 -674 -16 -98 rrcurveto
          endchar
        </CharString>
        <CharString name="Dcaron">
          415 1399.84179688 2233 rmoveto
          -39 callsubr
          -444.841796875 -1172 rmoveto
          -101 callsubr
          -769 -382 rmoveto
          -57 callsubr
          endchar
        </CharString>
        <CharString name="Dcroat">
          -356 166 562.806121826 rmoveto
          47.5488739014 hlineto
          -25.7798309326 -303.409408569 -25.9814758301 -227.572738647 -8.78758239746 -53.8239746094 rrcurveto
          423 hlineto
          144 0 144.054931641 1.62937927246 145.945068359 6.37062072754 610.054931641 26.6293792725 567.945068359 6.37062072754 0 764 rrcurveto
          481 -391 197 -510 -399 -621 -52 0 vhcurveto
          -6.91792297363 -182.356445312 -10.6094665527 -182.644729614 -12.0440368652 -172.130996704 rrcurveto
          -153.428573608 -2.86782836914 -37 -278 rlineto
          -3.03439331055 -22.7989501953 42.0343933105 -5.39492797852 80 0 rrcurveto
          765.369338989 -3.80612182617 rmoveto
          215.630661011 0 16 285 rlineto
          1.2891998291 22.9638366699 -18.2891998291 6.03616333008 -11 0 -21.2713165283 0 -68.8164367676 -0.243194580078 -98.8916168213 -0.316787719727 rrcurveto
          8.97937011719 191.5599823 rlineto
          35 2 107 6 75 0 147 0 171 -96 0 -232 0 -338 -212 -43 -356 -3 rrcurveto
          endchar
        </CharString>
        <CharString name="E">
          144 1318 -10 rmoveto
          244.002044678 0 153.997955322 1 239 0 0 34 11 62 0 262 rrcurveto
          -1050 12 11 195 rlineto
          60 1 58 0 59 0 64 0 55 -1 47 0 192 0 53 3 4 1 23 86 20 182 0 51 rrcurveto
          -156 4 rlineto
          -120.960235596 3.10154724121 -170.039764404 -4.10154724121 -175 -2 6 70 0 54 6 43 342 2 353 -4 269 24 rrcurveto
          41 377 rlineto
          -154 -4 -470 -2 -290 2 rrcurveto
          -643 hlineto
          -85.0940704346 0 -5.90592956543 -3 -66 -2 rrcurveto
          -29 -69 -1410 1 vhcurveto
          201 hlineto
          0 666 -8 276 vhcurveto
          endchar
        </CharString>
        <CharString name="E_E">
          2073 3883 -13 rmoveto
          12 362 -1050 0 11 207 rlineto
          60 1 517 2 4 1 rrcurveto
          44 327 -612 -7 rlineto
          6 70 0 54 6 43 rrcurveto
          987 22 18 362 -196 2 -1361 0 rlineto
          -85.0940704346 0 -5.90592956543 -3 -66 -2 0 -29 -27 -1405 -1 -1 161 5 666 -7 276 0 244 0 153 -3 239 -1 rrcurveto
          -1949 -11 rmoveto
          32 373 -1050 0 11 207 rlineto
          60 1 528 2 4 1 23 86 20 182 0 51 rrcurveto
          8 vlineto
          -27 -4 -420 -1 -175 -2 6 70 0 54 6 43 rrcurveto
          964 22 41 362 -196 2 -1361 0 rlineto
          -85.0940704346 0 -5.90592956543 -3 -66 -2 0 -29 -67 -1400 -1 -1 rrcurveto
          201 5 rlineto
          0 666 -25 276 vhcurveto
          244 0 133 -1 239 -1 rrcurveto
          endchar
        </CharString>
        <CharString name="Eacute">
          144 1105.33398438 1645 rmoveto
          -72 callsubr
          212.666015625 -1655 rmoveto
          -60 callsubr
          endchar
        </CharString>
        <CharString name="Ecaron">
          144 1304.82617188 2233 rmoveto
          -38 callsubr
          13.173828125 -2246 rmoveto
          -60 callsubr
          endchar
        </CharString>
        <CharString name="Ecircumflex">
          144 934.418945312 1648 rmoveto
          -59 callsubr
          383.581054688 -1655 rmoveto
          -60 callsubr
          endchar
        </CharString>
        <CharString name="Edieresis">
          144 1612.95898438 1645 rmoveto
          -74 callsubr
          -632.112304688 6.00390625 rmoveto
          -64 callsubr
          704.041015625 -2012 rmoveto
          -60 callsubr
          endchar
        </CharString>
        <CharString name="Egrave">
          144 1245.95898438 1700 rmoveto
          -93 callsubr
          197.041015625 -1665 rmoveto
          -60 callsubr
          endchar
        </CharString>
        <CharString name="Emacron">
          144 685.368164062 1950 rmoveto
          -43 callsubr
          -230.368164062 -1978 rmoveto
          -60 callsubr
          endchar
        </CharString>
        <CharString name="Eogonek">
          144 964 -374 rmoveto
          -41 callsubr
          354 364 rmoveto
          -60 callsubr
          endchar
        </CharString>
        <CharString name="Eth">
          -356 166 563 rmoveto
          981 -4 16 285 rlineto
          1.2891998291 22.9638366699 -18.2891998291 6.03616333008 -11 0 -61 0 -452 -2 -431 0 rrcurveto
          -107 -2 -37 -278 rlineto
          -3.03439331055 -22.7989501953 42.0343933105 -5.20104980469 80 0 rrcurveto
          789 501 rmoveto
          -101 callsubr
          -769 -382 rmoveto
          -57 callsubr
          endchar
        </CharString>
        <CharString name="Euro">
          -276 1576 -30 rmoveto
          419 vlineto
          -88 -17 -81 -8 -74 0 -175 0 -130 49 -61 106 97 1 114 0 85 1 rrcurveto
          -3 135 -314 0 rlineto
          -2 17 -1 18 0 19 0 10 0 10 1 9 106 0 109 1 108 1 rrcurveto
          5 135 -309 0 rlineto
          39 108 140 79 236 0 60 0 66 -5 72 -11 rrcurveto
          406 vlineto
          -62 7 -65 3 -66 0 -497 0 -573 -108 -120 -480 rrcurveto
          -135 0 -11 -139 127 0 rlineto
          -1 -11 0 -11 0 -12 0 -16 0 -16 1 -15 rrcurveto
          -114 0 -10 -135 144 0 rlineto
          108 -432 498 -133 476 0 85 0 107 3 108 12 rrcurveto
          endchar
        </CharString>
        <CharString name="F">
          8 905.573699951 -0.0217590332031 rmoveto
          19.4263000488 512.021759033 363 2 rlineto
          109.016693115 0.600646972656 93.9833068848 4.39935302734 97 10 22 111 23 117 0 70 -48 10 -53 2 -49 0 -145 0 -200 -3 -199 -2 2 81 0 56 8 90 rrcurveto
          500 6 rlineto
          160.98840332 1.93185424805 162.01159668 -1.93185424805 138 17 rrcurveto
          19 170 rlineto
          8.91149902344 79.7344665527 13.0885009766 59.2655334473 0 44 -40 10 -53 2 -42 0 rrcurveto
          -638 -10 -968 0 -20 -1115 rlineto
          -2 -101 -10 -127 -1 -101 rrcurveto
          68 hlineto
          47 0 502.573699951 4.9782409668 111 0 rrcurveto
          endchar
        </CharString>
        <CharString name="G">
          294 1832 -10 rmoveto
          -100 callsubr
          endchar
        </CharString>
        <CharString name="Gbreve">
          294 1102.43164062 1832 rmoveto
          -42 callsubr
          729.568359375 -1842 rmoveto
          -100 callsubr
          endchar
        </CharString>
        <CharString name="Gcircumflex">
          294 933.072265625 1648 rmoveto
          -66 callsubr
          898.927734375 -1655 rmoveto
          -100 callsubr
          endchar
        </CharString>
        <CharString name="Gcommaaccent">
          294 877.830078125 -886 rmoveto
          -107 callsubr
          954.169921875 876 rmoveto
          -100 callsubr
          endchar
        </CharString>
        <CharString name="Gdotaccent">
          294 895.321289062 1651 rmoveto
          -40 callsubr
          936.678710938 -1665 rmoveto
          -100 callsubr
          endchar
        </CharString>
        <CharString name="H">
          517 950 943 rmoveto
          38 510 -19 0 rlineto
          -116 0 -494 -5 -77 -4 -3 -77 -21 -340 -2 -61 rrcurveto
          -21.0117492676 -563.999557495 rlineto
          -5.25259399414 -140.99079895 -3.7310333252 -158.17616272 0 -120 rrcurveto
          689.995376587 19.1665344238 26 430 534 0 rlineto
          -6 -115 -8 -257 0 -71 75 0 587 13 56 0 17 696 4 -21 0 40 0 75 37 642 -1 20 rrcurveto
          -576 -15 rlineto
          -39 -1 -61 2 -42 0 0 0 -28 -476 -3 -21 rrcurveto
          endchar
        </CharString>
        <CharString name="Hbar">
          517 950 943 rmoveto
          11.2688293457 151.239593506 rlineto
          164.023284912 0.158050537109 183.918106079 0.262313842773 189.025650024 0.435348510742 -4.97764587402 -80.1882324219 -4.19606018066 -64.4719085693 -1.06216430664 -7.43516540527 rrcurveto
          -513.572845459 327.838134766 rmoveto
          13.572845459 182.161865234 -19 0 rlineto
          -116 0 -494 -5 -77 -4 -1.16101074219 -29.7994537354 -3.85694885254 -70.0363006592 -4.40821838379 -77.1642456055 rrcurveto
          -198.573822021 0 -12 -173.41343689 200.605148315 0 rlineto
          -3.34794616699 -59.3897857666 -2.61328125 -48.5578308105 -0.643905639648 -19.638961792 rrcurveto
          -21.0117492676 -563.999557495 rlineto
          -5.25259399414 -140.99079895 -3.7310333252 -158.17616272 0 -120 rrcurveto
          689.995376587 19.1665344238 26 430 534 0 rlineto
          -6 -115 -8 -257 0 -71 75 0 587 13 56 0 17 696 4 -21 0 40 0 36.8941802979 8.9535369873 174.101165771 8.97915649414 169.770629883 66.9110412598 0.373138427734 64.9516448975 0.410125732422 62.2046203613 0.450759887695 rrcurveto
          7 177.183288574 -191.599227905 0 rlineto
          5.18380737305 98.1068267822 3.74270629883 73.1645202637 -0.327270507812 6.54536437988 rrcurveto
          -576 -15 rlineto
          -39 -1 -61 2 -42 0 0 0 -4.4153137207 -75.0603790283 -5.51182556152 -91.8225097656 rrcurveto
          endchar
        </CharString>
        <CharString name="Hcircumflex">
          517 1081.17089844 1648 rmoveto
          -59 callsubr
          -131.170898438 -702 rmoveto
          -35 callsubr
          endchar
        </CharString>
        <CharString name="I">
          -721 990 1449 rmoveto
          -57 0 -58 -2 -59 0 -113.070770264 0 -364.929229736 -10 -59 -3 rrcurveto
          -32 -1281 rlineto
          -1.67317199707 -66.9791107178 -1.32682800293 -30.0208892822 4 -56 130 0 254 5 139 0 rrcurveto
          190.544555664 5.03192138672 27.4554443359 1251.96807861 rlineto
          1.556640625 70.9829406738 7.443359375 60.0170593262 -8 56 rrcurveto
          endchar
        </CharString>
        <CharString name="IJ">
          642 2392 1452 rmoveto
          -99 callsubr
          -1398 595 rmoveto
          -58 callsubr
          endchar
        </CharString>
        <CharString name="Iacute">
          -721 523 1645 rmoveto
          -72 callsubr
          467 -196 rmoveto
          -58 callsubr
          endchar
        </CharString>
        <CharString name="Ibreve">
          -721 640.614257812 1832 rmoveto
          -42 callsubr
          349.385742188 -383 rmoveto
          -58 callsubr
          endchar
        </CharString>
        <CharString name="Icircumflex">
          -721 476 1647 rmoveto
          -59 callsubr
          514 -195 rmoveto
          -58 callsubr
          endchar
        </CharString>
        <CharString name="Idieresis">
          -721 1155 1645 rmoveto
          -74 callsubr
          -632.112304688 6.00390625 rmoveto
          -64 callsubr
          834 -553 rmoveto
          -58 callsubr
          endchar
        </CharString>
        <CharString name="Idotaccent">
          -721 441 1651 rmoveto
          -40 callsubr
          549 -206 rmoveto
          -58 callsubr
          endchar
        </CharString>
        <CharString name="Igrave">
          -721 941 1700 rmoveto
          -93 callsubr
          174 -206 rmoveto
          -58 callsubr
          endchar
        </CharString>
        <CharString name="Imacron">
          -721 222.204101562 1950 rmoveto
          -43 callsubr
          -95.2041015625 -519 rmoveto
          -58 callsubr
          endchar
        </CharString>
        <CharString name="Iogonek">
          -721 330 -344 rmoveto
          -41 callsubr
          660 1793 rmoveto
          -58 callsubr
          endchar
        </CharString>
        <CharString name="Itilde">
          -721 760.202148438 2009 rmoveto
          -34 callsubr
          229.797851562 -560 rmoveto
          -58 callsubr
          endchar
        </CharString>
        <CharString name="J">
          -541 1209 1452 rmoveto
          -99 callsubr
          endchar
        </CharString>
        <CharString name="Jcircumflex">
          -541 631.213867188 1648 rmoveto
          -59 callsubr
          577.786132812 -193 rmoveto
          -99 callsubr
          endchar
        </CharString>
        <CharString name="K">
          428 2154 1248 rmoveto
          -98 callsubr
          -2 vmoveto
          -245.426116943 76.5738830566 -241.515472412 80.4845275879 -237.058410645 84.9415893555 rrcurveto
          -65 -76 -415 -524 rlineto
          4 117 13 116.635528564 0 137.364471436 0 71 -3 60 -9 56 -32 0 -32 1 -33 0 -161 0 -409 -14 -61 -8 -4 -31 -2 -39 0 -46 0 -135 -11 -174 -10 -214 rrcurveto
          -19 -636 rlineto
          -1.79165649414 -59.9732513428 3.79165649414 -53.0267486572 3 -50 136 0 536 14 65 2 rrcurveto
          70 vlineto
          0 18 14 290 2 148 81 -86 274 -246 165 -139 rrcurveto
          173 -142 106 54 555 229 -656 514 rlineto
          172.489868164 175.176803589 176.7240448 170.942611694 167.786087036 179.880584717 rrcurveto
          endchar
        </CharString>
        <CharString name="Kcommaaccent">
          428 1045.11523438 -922 rmoveto
          -107 callsubr
          1108.88476562 2170 rmoveto
          -98 callsubr
          -2 vmoveto
          -31 callsubr
          endchar
        </CharString>
        <CharString name="L">
          32 168 hmoveto
          71 -5 35 -2 85 0 158 1 282 1 276 0 367 0 354 -1 33 0 rrcurveto
          32 206 rlineto
          12.3430633545 79.4584655762 3.65693664551 43.5415344238 0 44 -57 9 -60.9640350342 2.47143554688 -71 0 rrcurveto
          -771.035964966 -18.4714355469 rlineto
          12.1794891357 264 8.33332824707 134 4.48718261719 192 rrcurveto
          23 500 rlineto
          -400 7 -242 -10 -102 -12 -14 -204 -21 -569 -6 -92 rrcurveto
          -8 -327 rlineto
          endchar
        </CharString>
        <CharString name="Lacute">
          32 1052.12792969 1645 rmoveto
          -72 callsubr
          -884.127929688 -1645 rmoveto
          -30 callsubr
          endchar
        </CharString>
        <CharString name="Lcaron">
          32 2191.87011719 803 rmoveto
          -107 callsubr
          -2023.87011719 -803 rmoveto
          -30 callsubr
          endchar
        </CharString>
        <CharString name="Lcommaaccent">
          32 826.919921875 -848 rmoveto
          -107 callsubr
          -658.919921875 848 rmoveto
          -30 callsubr
          endchar
        </CharString>
        <CharString name="Ldot">
          32 1300 827 rmoveto
          -40 callsubr
          -1132 -831 rmoveto
          -30 callsubr
          endchar
        </CharString>
        <CharString name="Lslash">
          32 158 hmoveto
          74.7172698975 -5 36.8324737549 -2 89.4502563477 0 158 1 282 1 276 0 367 0 354 -1 33 0 rrcurveto
          32 206 rlineto
          12.3430633545 79.4584655762 3.65693664551 43.5415344238 0 44 -57 9 -60.9640350342 2.47143554688 -71 0 rrcurveto
          -785.035964966 -18.4714355469 rlineto
          9.53024291992 132.420288086 8.02069091797 99.7130126953 6.51110839844 90.7308959961 160.790252686 34.0581207275 145.653869629 31.4791870117 80.4938354492 19.5984954834 11 50 25 265 0 28 rrcurveto
          34 vlineto
          -57.3855743408 -13.6290740967 -157.593719482 -38.3273620605 -188.550384521 -45.8627166748 rrcurveto
          18.5296783447 402.819152832 rlineto
          -400 7 -242 -10 -102 -12 -8.27311706543 -120.551193237 -10.7175750732 -248.011703491 -8.62211608887 -201.717636108 -68.2583465576 -16.3515930176 -55.368270874 -13.128112793 -35.7605743408 -8.23976135254 rrcurveto
          7 -341 136.626296997 35.4873504639 rlineto
          -4.1262512207 -38.4873504639 -9.76986694336 -404.224182129 -5.73016357422 -78.7758026123 rrcurveto
          endchar
        </CharString>
        <CharString name="M">
          783 147 173 rmoveto
          -13 -169 rlineto
          104 -6 210 -5 143 0 79 0 70 1 67 2 rrcurveto
          73 639 rlineto
          97 -216 200 -396 0 0 92 -5 176 3 25 0 rrcurveto
          414 655 9 -158 rlineto
          8.33584594727 -146.340408325 37.6641540527 -380.659591675 0 0 161 0 298 9 163 3 rrcurveto
          -7 123 -33 454 rlineto
          -4.22720336914 58.1560821533 -32.7727966309 425.843917847 -26 392 rrcurveto
          -733 -2 -394 -675 -322 591 -36 77 rlineto
          -142 -5 -545 -5 -61 0 rrcurveto
          -5 hlineto
          -50 -964 -10 -166 -13 -134 rrcurveto
          endchar
        </CharString>
        <CharString name="N">
          464 187 1431 rmoveto
          -354 vlineto
          0 -315.192001343 -33 -334.599456787 0 -290.20854187 0 -55 -2 -47 -3 -44 213 0 255 18 156 3 rrcurveto
          11 vlineto
          0 28 2 103 12 469 rrcurveto
          745 -668 rlineto
          518 95 81 -3 88 15 rrcurveto
          -2.01327514648 166.000183105 3.01327514648 226.999816895 rlineto
          2 161 2 192 0 150 rrcurveto
          -1.99659729004 488.696670532 -596.00340271 -6.69667053223 rlineto
          -4 -46 -1 -52 -1 -63 rrcurveto
          -440 vlineto
          -149 171 -364 404 -31 36 rrcurveto
          endchar
        </CharString>
        <CharString name="Nacute">
          464 1222.55566406 1645 rmoveto
          -72 callsubr
          -1035.55566406 -214 rmoveto
          -56 callsubr
          endchar
        </CharString>
        <CharString name="Ncaron">
          464 1422.04785156 2233 rmoveto
          -39 callsubr
          -1235.04785156 -805 rmoveto
          -56 callsubr
          endchar
        </CharString>
        <CharString name="Ncommaaccent">
          464 996.399414062 -886 rmoveto
          -107 callsubr
          -809.399414062 2317 rmoveto
          -56 callsubr
          endchar
        </CharString>
        <CharString name="Ntilde">
          464 1340.58886719 2009 rmoveto
          -65 callsubr
          -1153.58886719 -578 rmoveto
          -56 callsubr
          endchar
        </CharString>
        <CharString name="O">
          661 1283 361 rmoveto
          -217 -139 93 251 239.008361816 142 121.991638184 225 209 143 -77 -247 -258 -131.893966675 -123 -231.106033325 hvcurveto
          -48 -406 rmoveto
          -97 callsubr
          endchar
        </CharString>
        <CharString name="OE">
          1469 942 705 rmoveto
          377.368743896 345.579391479 -36.3687438965 374.420608521 vhcurveto
          -21 -704 rlineto
          -66.347076416 -4.1875 -154.487213135 -1.8125 -118.165710449 0 rrcurveto
          -228 -132 124.347946167 244.652053833 hvcurveto
          1856 -707 rmoveto
          133.598953247 0 151.333343506 0 169.067703247 -1 5.68852233887 91.8031616211 3.31147766113 139.28604126 0 121.910797119 rrcurveto
          -907 0 11 198 rlineto
          64 1 60 1 59 0 rrcurveto
          62 hlineto
          133 0 125 0 131 -5 23 127.006713867 22 123.664428711 0 81.3288574219 -58 -1.66667175293 -67 -0.33332824707 -64 0 -130 0 -173 -2 -175 -2 rrcurveto
          12 160 rlineto
          288.399002075 3 303.960098267 0 239.640899658 2 11 89.3478240967 11 234.406646729 0 87.2455291748 -12 -1 -12 0 -11 0 -722.467102051 0 -822.15461731 -7 -379.37828064 0 rrcurveto
          -19 hlineto
          -503 -621 -192.958389282 -548.041610718 -503.984619141 491 -193.015380859 470 hvcurveto
          683.405349731 0 -732.612518311 -1.57301330566 1745.20716858 -1.42698669434 rrcurveto
          endchar
        </CharString>
        <CharString name="Oacute">
          661 1304.08984375 1645 rmoveto
          -72 callsubr
          -21.08984375 -1284 rmoveto
          -55 callsubr
          -48 -406 rmoveto
          -97 callsubr
          endchar
        </CharString>
        <CharString name="Obreve">
          661 1302.5390625 1832 rmoveto
          -42 callsubr
          -19.5390625 -1471 rmoveto
          -55 callsubr
          -48 -406 rmoveto
          -97 callsubr
          endchar
        </CharString>
        <CharString name="Ocircumflex">
          661 1133.17871094 1648 rmoveto
          -59 callsubr
          149.821289062 -1284 rmoveto
          -55 callsubr
          -48 -406 rmoveto
          -97 callsubr
          endchar
        </CharString>
        <CharString name="Odieresis">
          661 1811.71875 1645 rmoveto
          -74 callsubr
          -632.111328125 6.00390625 rmoveto
          -54 callsubr
          470.28125 -1641 rmoveto
          -55 callsubr
          -48 -406 rmoveto
          -97 callsubr
          endchar
        </CharString>
        <CharString name="Ograve">
          661 1444.71875 1700 rmoveto
          -93 callsubr
          -36.71875 -1294 rmoveto
          -55 callsubr
          -48 -406 rmoveto
          -97 callsubr
          endchar
        </CharString>
        <CharString name="Ohungarumlaut">
          661 1106.65722656 1650 rmoveto
          -27 callsubr
          535 -88 rmoveto
          -26 callsubr
          -108.657226562 -1383 rmoveto
          -55 callsubr
          -48 -406 rmoveto
          -97 callsubr
          endchar
        </CharString>
        <CharString name="Omacron">
          661 884.12890625 1950 rmoveto
          -43 callsubr
          -464.12890625 -1607 rmoveto
          -55 callsubr
          -48 -406 rmoveto
          -97 callsubr
          endchar
        </CharString>
        <CharString name="Oslash">
          661 1828.15283203 1627.45967102 rmoveto
          0 6.99998474121 -8.15283203125 3.54032897949 -8 3 rrcurveto
          -162 62 -7 0 -812 -1713 rlineto
          -29.5054626465 -62.2449035645 -45.4945373535 -77.7550964355 0 -24 rrcurveto
          149 -83 rlineto
          9 -5 9 -2 8 0 20 0 -2 21 11 23 292.350723267 612.853439331 285.984817505 619.219345093 289.81729126 615.386886597 rrcurveto
          -545.152832031 -1266.45967102 rmoveto
          -55 callsubr
          -48 -406 rmoveto
          -97 callsubr
          endchar
        </CharString>
        <CharString name="Otilde">
          661 1422.12695312 2009 rmoveto
          -65 callsubr
          -139.126953125 -1648 rmoveto
          -55 callsubr
          -48 -406 rmoveto
          -97 callsubr
          endchar
        </CharString>
        <CharString name="P">
          356 919 9 rmoveto
          -96 callsubr
          544 937 rmoveto
          -95 callsubr
          endchar
        </CharString>
        <CharString name="Q">
          612 1284 361 rmoveto
          -216 -164 95 249 247 159 115 224 225 109 -100 -240 -178 -82 -187 -248 hvcurveto
          -1 0 -1 1 -1 0 -1 0 -1 -1 -2 -1 rrcurveto
          337 -724 rmoveto
          286 146 -185 260 rlineto
          606 122 109 330 0 261 0 27 -1 25 -2 25 -37 492 -662 156 -461 0 rrcurveto
          -470 -677 -133 -659 -527 460 -206 498 hvcurveto
          110 0 105 10 98 15 13 -18 199 -326 11 0 rrcurveto
          endchar
        </CharString>
        <CharString name="R">
          494 1005 1064 rmoveto
          -94 callsubr
          522.9581604 -867.687835693 rmoveto
          781.0418396 104.687835693 rlineto
          -97 121 -252 361 -112 128 182 62 175 131 0 205 0 398 -416 35 -459 0 -892.350265503 0 -92.6497344971 -25 -14 0 rrcurveto
          -30 -624 -6 -165 rlineto
          -9 -233 -11 -255 0 -176 rrcurveto
          234 8 rlineto
          104.938690186 3.58764648438 224.061309814 4.41235351562 125 2 7 1 0 4 0 4 rrcurveto
          20 497 245 17 rlineto
          52 -123 193.9581604 -399.687835693 47 -86 rrcurveto
          endchar
        </CharString>
        <CharString name="Racute">
          494 1314.33007812 1645 rmoveto
          -72 callsubr
          -309.330078125 -581 rmoveto
          -94 callsubr
          522.958007812 -867.6875 rmoveto
          -25 callsubr
          endchar
        </CharString>
        <CharString name="Rcaron">
          494 1513.82226562 2233 rmoveto
          -38 callsubr
          -508.822265625 -1172 rmoveto
          -94 callsubr
          522.958007812 -867.6875 rmoveto
          -25 callsubr
          endchar
        </CharString>
        <CharString name="Rcommaaccent">
          494 1087.14941406 -927 rmoveto
          -107 callsubr
          -82.1494140625 1991 rmoveto
          -94 callsubr
          522.958007812 -867.6875 rmoveto
          -25 callsubr
          endchar
        </CharString>
        <CharString name="S">
          253 1019 -45 rmoveto
          584 416 120 385 hvcurveto
          0 391 -513 43 -421 72 -125 21 -70 13 0 46 0 41 79 15 113 0 226 0 361 -60 139 -38 18 55 36 118 45 169 -127 62 -339 73 -232 0 rrcurveto
          -485 -560 -45 -445 hvcurveto
          0 -411 492 -40 524 -84 21 -3 49 -2 0 -46 0 -47 -92 -8 -67 0 -331 0 -199 49 -291 73 -6 0 -2 -4 0 -3 -34 -131 -31 -111 -32 -133 rrcurveto
          277 -92 322.992126465 -43 254.007873535 0 rrcurveto
          endchar
        </CharString>
        <CharString name="Sacute">
          253 1112.98242188 1645 rmoveto
          -72 callsubr
          -93.982421875 -1690 rmoveto
          -23 callsubr
          endchar
        </CharString>
        <CharString name="Scaron">
          253 1312.47265625 2233 rmoveto
          -39 callsubr
          -293.47265625 -2281 rmoveto
          -23 callsubr
          endchar
        </CharString>
        <CharString name="Scedilla">
          253 1152.13183594 -164.233398438 rmoveto
          -70 callsubr
          -133.131835938 119.233398438 rmoveto
          -23 callsubr
          endchar
        </CharString>
        <CharString name="Scircumflex">
          253 942.067382812 1648 rmoveto
          -52 callsubr
          76.9326171875 -1690 rmoveto
          -23 callsubr
          endchar
        </CharString>
        <CharString name="Scommaaccent">
          253 886.825195312 -886 rmoveto
          -107 callsubr
          132.174804688 841 rmoveto
          -23 callsubr
          endchar
        </CharString>
        <CharString name="T">
          68 1293 4 rmoveto
          -1 4 20 571 11 256 rrcurveto
          6 216 521 0 rlineto
          31 100 30 209 10 86 -50 1 -59 2 -57 0 -468 -1 -761 -6 -388 -5 -16 -105 -21 -239 -2 -42 rrcurveto
          546 hlineto
          -7 -132 -3 -93 -5 -157 rrcurveto
          -20.8326416016 -684 4.83264160156 0 rlineto
          82 0 542 18 55 1 rrcurveto
          endchar
        </CharString>
        <CharString name="Tcaron">
          68 1217.50878906 2233 rmoveto
          -39 callsubr
          75.4912109375 -2232 rmoveto
          -21 callsubr
          endchar
        </CharString>
        <CharString name="Thorn">
          216 866 -311 rmoveto
          14 301 rlineto
          736 374 251 359 315 -218 233 -527 hvcurveto
          -96 0 -107 -7 -117 -17 rrcurveto
          22 296 rlineto
          2.00123596191 26.9257354736 -17.0012359619 7.07426452637 -25 0 -30 0 -38 -7 -22 -6 rrcurveto
          -535 -23 -56 -1650 rlineto
          -1.42463684082 -41.9758300781 3.42463684082 -42.0241699219 1 -37 rrcurveto
          10 hlineto
          86 0 332 21 209 21 rrcurveto
          493 892 rmoveto
          0 -145 -69 -154 -395 -10 rrcurveto
          25 559 rlineto
          370 69 -103 -147 hvcurveto
          endchar
        </CharString>
        <CharString name="U">
          531 1191 -45 rmoveto
          427 0 518.639770508 106.585876465 130.360229492 483.414123535 17.6846008301 65.5797119141 31.3153991699 575.321395874 0 253.098892212 -357 -5 -216.306427002 -3.98896789551 -201 -6 rrcurveto
          -25.693572998 -714.011032104 rlineto
          -8.1633605957 -226.855377197 -119.836639404 -125.144622803 -179 0 rrcurveto
          -224 -57.9969482422 148.999847412 104 hvcurveto
          31.9969482422 674.000152588 rlineto
          2.41841125488 50.9426269531 -2.41841125488 53.0573730469 3 54 rrcurveto
          -309 -6 -484 -2 rlineto
          -16 -108 3 -134 -7 -209 rrcurveto
          -6.38452148438 -392.010025024 rlineto
          -596.000015259 582.384521484 -40.9899749756 466 vhcurveto
          endchar
        </CharString>
        <CharString name="Uacute">
          531 1242.8203125 1645 rmoveto
          -72 callsubr
          -51.8203125 -1690 rmoveto
          -53 callsubr
          endchar
        </CharString>
        <CharString name="Ubreve">
          531 1241.25976562 1832 rmoveto
          -42 callsubr
          -50.259765625 -1877 rmoveto
          -53 callsubr
          endchar
        </CharString>
        <CharString name="Ucircumflex">
          531 1071.90039062 1648 rmoveto
          -52 callsubr
          119.099609375 -1690 rmoveto
          -53 callsubr
          endchar
        </CharString>
        <CharString name="Udieresis">
          531 1750.44042969 1645 rmoveto
          -74 callsubr
          -632.112304688 6.00390625 rmoveto
          -51 callsubr
          439.559570312 -2047 rmoveto
          -53 callsubr
          endchar
        </CharString>
        <CharString name="Ugrave">
          531 1383.44042969 1700 rmoveto
          -93 callsubr
          -67.4404296875 -1700 rmoveto
          -53 callsubr
          endchar
        </CharString>
        <CharString name="Uhungarumlaut">
          531 1045.37792969 1650 rmoveto
          -27 callsubr
          535 -88 rmoveto
          -26 callsubr
          -139.377929688 -1789 rmoveto
          -53 callsubr
          endchar
        </CharString>
        <CharString name="Umacron">
          531 822.849609375 1950 rmoveto
          -33 callsubr
          -494.849609375 -2013 rmoveto
          -53 callsubr
          endchar
        </CharString>
        <CharString name="Uogonek">
          531 1049 -389 rmoveto
          -41 callsubr
          142 344 rmoveto
          -53 callsubr
          endchar
        </CharString>
        <CharString name="Uring">
          531 1353.75976562 1930 rmoveto
          -63 callsubr
          -105 -286 rmoveto
          -62 callsubr
          -57.759765625 -1689 rmoveto
          -53 callsubr
          endchar
        </CharString>
        <CharString name="Utilde">
          531 1360.84765625 2009 rmoveto
          -34 callsubr
          -169.84765625 -2054 rmoveto
          -53 callsubr
          endchar
        </CharString>
        <CharString name="V">
          128 1771 1477 rmoveto
          -439 -7 -241 -759 -276 769 -257 0 -489 -21 44 -111 rlineto
          12 -29 492 -1133 96 -213 130 0 420 11 66 9 rrcurveto
          52 119 rlineto
          97 196 556 1165 0 6 rrcurveto
          endchar
        </CharString>
        <CharString name="W">
          1122 1819 -17 rmoveto
          144 0 396.206634521 12.525970459 73 7 rrcurveto
          571.793365479 1455.47402954 -670 -7 -224 -690 -263 697 -548.276580811 -8.91653442383 -222.723419189 -738.083465576 -233 759 -260 -6 -487 -15 83 -250 499 -1216 rlineto
          148 0 449 6 75 4 rrcurveto
          57 169 156 511 rlineto
          endchar
        </CharString>
        <CharString name="Wacute">
          1122 1553.16015625 1645 rmoveto
          -72 callsubr
          265.83984375 -1662 rmoveto
          -19 callsubr
          endchar
        </CharString>
        <CharString name="Wcircumflex">
          1122 1382.24023438 1648 rmoveto
          -66 callsubr
          436.759765625 -1662 rmoveto
          -19 callsubr
          endchar
        </CharString>
        <CharString name="Wdieresis">
          1122 2060.78417969 1645 rmoveto
          -74 callsubr
          -632.112304688 6.00390625 rmoveto
          -64 callsubr
          757.215820312 -2019 rmoveto
          -19 callsubr
          endchar
        </CharString>
        <CharString name="Wgrave">
          1122 1693.78027344 1700 rmoveto
          -93 callsubr
          250.219726562 -1672 rmoveto
          -19 callsubr
          endchar
        </CharString>
        <CharString name="X">
          356 1159 1130 rmoveto
          -369 362 rlineto
          0 0 -8.14218139648 -0.912170410156 -11.8578186035 -2.08782958984 -431.142181396 -75.9121704102 -173.857818604 -74.0878295898 -41 -10 rrcurveto
          601 -604 rlineto
          -270 -270 -84 -98 -55 -63 rrcurveto
          -152 -171 612 -215 386 391 445 -387 176 65 414 195 rlineto
          -157 149 -355 331 -90 80 82 74 127 133 412 411 rrcurveto
          -727 128 rlineto
          endchar
        </CharString>
        <CharString name="Y">
          129 667 -10 rmoveto
          566 12 139 6 26 553 621 832 rlineto
          4 7 28 42 -6 1 -20 4 -661 1 -28 -4 rrcurveto
          -271 -392 -273 406 rlineto
          -33 -703.080764771 -18.4046936035 0 hvcurveto
          600.080764771 -926.595306396 rlineto
          0 -32 2 -435 9 -56 rrcurveto
          endchar
        </CharString>
        <CharString name="Yacute">
          129 1053.32128906 1645 rmoveto
          -72 callsubr
          -386.321289062 -1655 rmoveto
          -50 callsubr
          endchar
        </CharString>
        <CharString name="Ycircumflex">
          129 882.40625 1648 rmoveto
          -66 callsubr
          -215.40625 -1655 rmoveto
          -50 callsubr
          endchar
        </CharString>
        <CharString name="Ydieresis">
          129 1560.94628906 1645 rmoveto
          -74 callsubr
          -632.112304688 6.00390625 rmoveto
          -64 callsubr
          105.053710938 -2012 rmoveto
          -50 callsubr
          endchar
        </CharString>
        <CharString name="Ygrave">
          129 1193.94628906 1700 rmoveto
          -93 callsubr
          -401.946289062 -1665 rmoveto
          -50 callsubr
          endchar
        </CharString>
        <CharString name="Z">
          80 1381 hmoveto
          156.028839111 0 256.971160889 3 24 0 12 53 55 324 0 45 -46 1 -53 0 -54 0 -80 0 -77 -6 -81 0 rrcurveto
          -303 hlineto
          224 299 399 645 40 76 -394 0 -389 10 -396 0 -156 0 -161 -1 -137 -6 rrcurveto
          -55 -432 rlineto
          63 -4 530 -10 120 -1 rrcurveto
          -717 -937 rlineto
          0 -2 -1 -50 0 -2 58 -4 73 -1 69 0 rrcurveto
          endchar
        </CharString>
        <CharString name="Zacute">
          80 1046.78222656 1645 rmoveto
          -72 callsubr
          334.217773438 -1645 rmoveto
          -17 callsubr
          endchar
        </CharString>
        <CharString name="Zcaron">
          80 1260 2233 rmoveto
          -28 callsubr
          121 -2236 rmoveto
          -17 callsubr
          endchar
        </CharString>
        <CharString name="Zdotaccent">
          80 838.116210938 1651 rmoveto
          -40 callsubr
          542.883789062 -1655 rmoveto
          -17 callsubr
          endchar
        </CharString>
        <CharString name="a">
          -96 751 -37 rmoveto
          -92 callsubr
          170 303 rmoveto
          -91 callsubr
          endchar
        </CharString>
        <CharString name="aacute">
          -96 916.842773438 1245 rmoveto
          -72 callsubr
          -165.842773438 -1282 rmoveto
          -92 callsubr
          170 303 rmoveto
          -91 callsubr
          endchar
        </CharString>
        <CharString name="abreve">
          -96 915.288085938 1432 rmoveto
          -42 callsubr
          -164.288085938 -1469 rmoveto
          -92 callsubr
          170 303 rmoveto
          -91 callsubr
          endchar
        </CharString>
        <CharString name="acircumflex">
          -96 745.927734375 1248 rmoveto
          -59 callsubr
          5.072265625 -1282 rmoveto
          -92 callsubr
          170 303 rmoveto
          -91 callsubr
          endchar
        </CharString>
        <CharString name="acute">
          -1210 234 1206 rmoveto
          -72 callsubr
          endchar
        </CharString>
        <CharString name="adieresis">
          -96 1424.46777344 1245 rmoveto
          -74 callsubr
          -632.111328125 6.00390625 rmoveto
          -54 callsubr
          325.532226562 -1639 rmoveto
          -92 callsubr
          170 303 rmoveto
          -91 callsubr
          endchar
        </CharString>
        <CharString name="ae">
          708 1678 625 rmoveto
          12 91 60 80 119 0 98 0 65 -40 7 -131 rrcurveto
          -1304 -317 rmoveto
          76 93 58 182 vhcurveto
          80 0 14 -1 51 -1 8 -53 16 -40 11 -24 -112 -77 -116 -37 -87 0 rrcurveto
          -92 -48 46 53 hvcurveto
          580 -163 rmoveto
          140 -122 214 -60 219 0 256 0 231 59 77 61 rrcurveto
          9 254 -54 0 rlineto
          -142 -61 -133 -28 -113 0 -184 0 -133 72 -37 121 rrcurveto
          811 0 5.93507385254 146.002639771 rlineto
          1.52587890625e-05 354.000015259 -338.935073853 128.997360229 -272 0 -167 0 -215 -47 -112 -119 -98 119 -242 47 -183 0 -256 0 -261 -69 -127 -62 rrcurveto
          71 -268 44 0 rlineto
          191 70 166 35 131 0 160 0 108 -52 35 -102 rrcurveto
          -299 hlineto
          -401 -235 -127 -228 -204 198 -100 330 hvcurveto
          212 0 219 30 175 152 rrcurveto
          endchar
        </CharString>
        <CharString name="afii10017">
          372 1226 540 rmoveto
          -103 callsubr
          -646 -562 rmoveto
          -102 callsubr
          endchar
        </CharString>
        <CharString name="afii10018">
          461 1060 -52 rmoveto
          904 125 254 336 171.067321777 -109.964263916 200.673080444 -765.284866333 hvcurveto
          -66.8026580811 0 -71.7960510254 -1.52906799316 -77.1521606445 -3.21133422852 rrcurveto
          14 146 838 0 rlineto
          31 100 30 209 10 86 -50 1 -59 2 -57 0 -468 -3 -593 -14 -388 -12 -71 -717 -30 -305 -21 -287 0 -4 -13 -153 0 -4 rrcurveto
          760 308 rmoveto
          8 86 12 94 13 146 69.4562530518 3.97489929199 60.5484313965 2.34352111816 52.3417205811 0 rrcurveto
          199.346221924 80.3073730469 -33.9928283691 -107.325592041 -139 -223 -52 -272 hvcurveto
          endchar
        </CharString>
        <CharString name="afii10019">
          461 931 298 rmoveto
          8 86 12 84 13 146 rrcurveto
          395.304489136 191.695510864 -28.2278137207 -136.772186279 -139 -348 -12 -272 hvcurveto
          57 547 rmoveto
          38 303 80 0 rlineto
          180 222 -24 -117 hvcurveto
          0 -10 -2 -10 -3 -10 -22 -74 -78 -58 -290 0 rrcurveto
          -51 -849 rmoveto
          904 248 206 336 hvcurveto
          0 142 -154 95 -198 32 165 40 147 131 0 115 rrcurveto
          253 -347 122 -561 vhcurveto
          -961 -4 rlineto
          -44.7653961182 -485.234603882 -40.280090332 -489.719909668 -41.9545135498 -488.04548645 rrcurveto
          endchar
        </CharString>
        <CharString name="afii10020">
          517 1577 1451 rmoveto
          -608 2 -697 -9 -16 -478 -28.9127044678 -983.031982422 128.936538696 -0.658111572266 569.976165771 19.6900787354 54 940 534 0 rlineto
          endchar
        </CharString>
        <CharString name="afii10021">
          438 1010 414 rmoveto
          120 648 364 0 rlineto
          -6 -73 -23 -321 -16 -254 rrcurveto
          -240 1040 rmoveto
          -630 -7 -12 -14 -11 -83 -187 -945 rlineto
          -156 -6 -160 -7 -41 -7 rrcurveto
          -11.4289855957 -14.0435333252 -64.5710144043 -846.956466675 690 19 64 450 824 0 -12 -443 708 -7 27 872 -146 0 rlineto
          8 276 2 -4 0 30 0 75 37 642 -1 20 rrcurveto
          endchar
        </CharString>
        <CharString name="afii10022">
          144 1318 -10 rmoveto
          -60 callsubr
          endchar
        </CharString>
        <CharString name="afii10023">
          144 1612.95898438 1645 rmoveto
          -74 callsubr
          -632.112304688 6.00390625 rmoveto
          -64 callsubr
          704.041015625 -2012 rmoveto
          -60 callsubr
          endchar
        </CharString>
        <CharString name="afii10024">
          356 26 1332 rmoveto
          588 -592 rlineto
          -255 -264 -98 -108 -55 -59 rrcurveto
          -143 -158 499 -211 431 479 -10 -438 502 15 -2 229 6 179 449 -465 165 63 334 192 rlineto
          -147 146 -333 324 -86 78 78 73 119 130 387 403 rrcurveto
          -574 125 -364 -401 7 241 6 141 rlineto
          -181 -23 -240 -28 -84 -10 0 -102 -2 -120 -3 -71 rrcurveto
          -368 392 rlineto
          -393.888656616 -65.6481170654 -204.202896118 -87.0075531006 -27.9084472656 -7.34432983398 rrcurveto
          endchar
        </CharString>
        <CharString name="afii10025">
          -267 1553 447 rmoveto
          0 201 -124 109 -165 25 132 16 128 90 0 206 0 285 -289 102 -506 0 -158 0 -167 -12 -163 -18 rrcurveto
          -300 vlineto
          75 3 79 5 71 0 rrcurveto
          141 114 -21 -103 -67 -31 -66 -137 hvcurveto
          -162 0 -11 -288 220 0 rlineto
          103 35 -62 -63 -92 -98 -25 -145 hvcurveto
          -72 0 -82 6 -88 7 rrcurveto
          -2 -378 rlineto
          121 -34 223 -18 220 0 576 0 162 236 0 256 rrcurveto
          endchar
        </CharString>
        <CharString name="afii10026">
          464 2236 1391 rmoveto
          -875 39 rlineto
          -34 -37 -392 -377 -161 -177 rrcurveto
          23 440 11 155 -454 11 rlineto
          -48.9958190918 1.18711853027 -72.0041809082 0.812881469727 -50 0 rrcurveto
          -38 -1219 -11 -226 741 -17 720 638 rlineto
          -12 -453 -3 -132 -1 -27 0 -7 -1 -2 0 -2 150 -10 262 -8 206 0 rrcurveto
          7 155 rlineto
          6 386 27 815 0 53 rrcurveto
          endchar
        </CharString>
        <CharString name="afii10027">
          464 1205.22558594 1832 rmoveto
          -42 callsubr
          1030.77441406 -441 rmoveto
          -5 callsubr
          endchar
        </CharString>
        <CharString name="afii10028">
          428 2154 1248 rmoveto
          -98 callsubr
          -2 vmoveto
          -31 callsubr
          endchar
        </CharString>
        <CharString name="afii10029">
          517 858 266 rmoveto
          57 108 10 297 11 271 rrcurveto
          578 hlineto
          -9 -115 -37 -611 -6 -115 rrcurveto
          -6 -118 rlineto
          75 0 122 10 86 7 rrcurveto
          441 2 rlineto
          17 696 4 -21 0 40 0 74 33 635 -1 20 rrcurveto
          -1264 hlineto
          -113 0 -479 -13 -75 -9 rrcurveto
          -12 -14 -4 -60 rlineto
          -17 -166 -7 -110 -6 -108 rrcurveto
          -13.0389862061 -333.998474121 rlineto
          -9.79632568359 -250.936309814 -82.1647033691 -128.065216064 -189 -36 97 -219 55 -132 12 -20 359 33 236 123 137 264 rrcurveto
          endchar
        </CharString>
        <CharString name="afii10030">
          783 147 173 rmoveto
          -13 -169 rlineto
          104 -6 210 -5 143 0 79 0 70 1 67 2 rrcurveto
          73 639 rlineto
          97 -216 200 -396 0 0 92 -5 176 3 25 0 rrcurveto
          414 655 9 -158 rlineto
          8.3359375 -146.340820312 37.6640625 -380.659179688 0 0 161 0 298 9 163 3 rrcurveto
          -7 123 -33 454 rlineto
          -4.2275390625 58.15625 -32.7724609375 425.84375 -26 392 rrcurveto
          -733 -2 -394 -675 -322 591 -36 77 rlineto
          -142 -5 -545 -5 -61 0 rrcurveto
          -5 hlineto
          -50 -964 -10 -166 -13 -134 rrcurveto
          endchar
        </CharString>
        <CharString name="afii10031">
          517 950 943 rmoveto
          -35 callsubr
          endchar
        </CharString>
        <CharString name="afii10032">
          661 1283 361 rmoveto
          -55 callsubr
          -48 -406 rmoveto
          -97 callsubr
          endchar
        </CharString>
        <CharString name="afii10033">
          517 2237 1446 rmoveto
          -436 0 -248 -1 -584 0 -113 0 -479 -12 -75 -9 rrcurveto
          -12 -14 -4 -60 rlineto
          -17 -166 -7 -110 -6 -108 rrcurveto
          -21.0117492676 -563.999557495 rlineto
          -5.25259399414 -140.99079895 -3.7310333252 -158.17616272 0 -120 rrcurveto
          689.995376587 19.1665344238 64 940 534 0 rlineto
          -9 -115 -34 -611 -9 -115 rrcurveto
          -10 -122 rlineto
          99 0 161 8 113 5 rrcurveto
          355 10 rlineto
          17 696 4 -21 0 40 0 74 37 635 -1 20 rrcurveto
          endchar
        </CharString>
        <CharString name="afii10034">
          356 919 9 rmoveto
          -96 callsubr
          544 937 rmoveto
          -95 callsubr
          endchar
        </CharString>
        <CharString name="afii10035">
          -162 133 702 rmoveto
          -61 callsubr
          endchar
        </CharString>
        <CharString name="afii10036">
          68 1293 4 rmoveto
          -21 callsubr
          endchar
        </CharString>
        <CharString name="afii10037">
          83 332 hmoveto
          595 3 162 3 rlineto
          300.513687134 476.15296936 303.920791626 472.745880127 303.56552124 473.101150513 rrcurveto
          -11 20 -686.876754761 -2.6716003418 -250.123245239 -418.328399658 -289.740646362 423.860870361 -180.259353638 -3.86087036133 -538 -3 -4 -29 640 -873 rlineto
          endchar
        </CharString>
        <CharString name="afii10038">
          661 1160.11981201 1049.0092926 rmoveto
          -7.11981201172 -674.009292603 rlineto
          -141 34 -85 100 0 196 0 188.010635376 87.1198120117 114.998657227 146 41 rrcurveto
          269.880187988 -664.009292603 rmoveto
          10 664 rlineto
          127 -34 79 -89 0 -184 0 -197 -77 -114 -139 -46 rrcurveto
          -284 -596 rmoveto
          279 -2 0 175 rlineto
          483 37 531 190 0 564 0 526 -507 168 -487 29 rrcurveto
          3 148 -281 -2 0 -146 rlineto
          -359 -29 -682 -172 0 -586 0 -548 550 -164 472 -18 rrcurveto
          endchar
        </CharString>
        <CharString name="afii10039">
          356 1159 1130 rmoveto
          -369 362 rlineto
          0 0 -8.142578125 -0.912109375 -11.857421875 -2.087890625 -431.142578125 -75.912109375 -173.857421875 -74.087890625 -41 -10 rrcurveto
          601 -604 rlineto
          -270 -270 -84 -98 -55 -63 rrcurveto
          -152 -171 612 -215 386 391 445 -387 176 65 414 195 rlineto
          -157 149 -355 331 -90 80 82 74 127 133 412 411 rrcurveto
          -727 128 rlineto
          endchar
        </CharString>
        <CharString name="afii10040">
          517 1767 -395 rmoveto
          32 -8 34 0 33 0 rrcurveto
          0 vlineto
          142 12 250 0 95 12 -2 18 -0.379623413086 17.0180511475 0 17 rrcurveto
          38.3796234131 806.981948853 rlineto
          -63 3 -60 0 -59 0 0 3 1 4 0 3 12 306 24 339 0 301 rrcurveto
          -696 11 -64 -940 -474 0 rlineto
          9 115 32 611 11 115 rrcurveto
          9 95 rlineto
          -75 0 -131 3 -521 -7 -17 -688 -4 21 0 -40 0 -75 -37 -642 1 -20 436 0 189 1 583 0 49 0 118 3 124 5 -9.3325958252 -158.654205322 -9.6674041748 -207.392807007 0 -35.9529876709 rrcurveto
          endchar
        </CharString>
        <CharString name="afii10041">
          356 1437 -1 rmoveto
          99 -1 358 -4 160 0 36 0 26 1 11 3 -3 35 -1 33 -1 32 rrcurveto
          -3 172 rlineto
          -8 202 -14 706 -6 256 rrcurveto
          -698 7 11 -552 -310 -6 rlineto
          -138 -3 -12 25 -1 101 rrcurveto
          -5 438 -709 0 0 -525 rlineto
          -407 215 -101 426 vhcurveto
          128 0 371 6 47 0 rrcurveto
          endchar
        </CharString>
        <CharString name="afii10042">
          1469 351 -1 rmoveto
          2138 hlineto
          113 0 439 17 75 12 rrcurveto
          12 14 4 60 rlineto
          17 166 7 110 6 108 rrcurveto
          21.0117492676 563.999557495 rlineto
          4.99369812012 134.041259766 4.9945526123 151.95916748 0 114 rrcurveto
          -651 0 -64 -940 -399 0 59 940 -620 0 -64 -940 -410 0 rlineto
          9 115 33 611 10 115 rrcurveto
          9 103 rlineto
          -75 0 -101 3 -521 -7 -17 -696 -4 21 0 -40 0 -75 -37 -641 1 -20 rrcurveto
          endchar
        </CharString>
        <CharString name="afii10043">
          1626 2811 -395 rmoveto
          32 -8 34 0 33 0 rrcurveto
          0 vlineto
          142 12 250 0 95 12 -2 18 -0.379623413086 17.0180511475 0 17 rrcurveto
          38.3796234131 806.981948853 rlineto
          -32 2 -32 1 -32 0 rrcurveto
          -4 hlineto
          -57 -5 -57.5966339111 -4.01502990723 -57 -4 rrcurveto
          21.6083831787 580.014587402 rlineto
          5.25259399414 140.99079895 3.73565673828 158.009628296 0 120 rrcurveto
          -650 -19 -64 -940 -399 0 59 959 -620 -19 -64 -940 -410 0 rlineto
          9 115 33 611 10 115 rrcurveto
          9 103 rlineto
          -75 0 -101 3 -521 -7 -17 -696 -4 21 0 -40 0 -75 -37 -641 1 -20 rrcurveto
          2138 hlineto
          58 0 146 5 137 6 -8.78135681152 -158.064422607 -10.2186431885 -211.069534302 0 -35.8660430908 rrcurveto
          endchar
        </CharString>
        <CharString name="afii10044">
          1411 1462 -7 rmoveto
          1012 11 rlineto
          552.967330933 6.01051330566 239.032669067 206.989486694 0 311 0 332 -298 155 -338 -8 rrcurveto
          -415 -10 22 457 -1069 -22 rlineto
          -16 -100 -21 -229 -2 -40 rrcurveto
          364 0 -5 -120 -12 -511 rlineto
          -2.70809936523 -115.319839478 -11.2919006348 -100.680160522 0 -115 rrcurveto
          727 241 rmoveto
          17 388 184 0 rlineto
          119 65 -80 -104 -132 -94 -76 -128 hvcurveto
          -60 0 -37 -2 -66 6 rrcurveto
          endchar
        </CharString>
        <CharString name="afii10045">
          1292 249.646484375 hmoveto
          -3 callsubr
          744 629 rmoveto
          -2 callsubr
          2033.03320312 1100 rmoveto
          -58 callsubr
          endchar
        </CharString>
        <CharString name="afii10046">
          1411 1462 -7 rmoveto
          -3 callsubr
          744 629 rmoveto
          -2 callsubr
          endchar
        </CharString>
        <CharString name="afii10047">
          -243 325 -45 rmoveto
          52 0 53 2 53 4 520 42 532 169 0 544 0 577 -565 170 -538 0 -85 0 -107 -3 -108 -12 rrcurveto
          -439 vlineto
          94 18 115 17 65 0 156.051269531 0 124.948730469 -51 52 -130 rrcurveto
          -470 -5 -8 -267 485 -2 rlineto
          -47 -134 -133 -52 -166 0 -98 0 -90 7 -80 11 rrcurveto
          -456 vlineto
          62 -7 65 -3 66 0 rrcurveto
          endchar
        </CharString>
        <CharString name="afii10048">
          1523 2197 -45 rmoveto
          522 582 158 640 587 -531 141 -530 hvcurveto
          -257 0 -586 -100 -165 -438 rrcurveto
          -302 0 38 510 -19 0 rlineto
          -113 0 -459 -17 -75 -12 rrcurveto
          -12 -14 -4 -60 rlineto
          -17 -166 -7 -110 -6 -108 rrcurveto
          -21.0117492676 -563.999557495 rlineto
          -5.25259399414 -140.99079895 -3.73565673828 -158.009628296 0 -120 rrcurveto
          130.046127319 -6.95932006836 539.953872681 25.9593200684 26 430 307 0 rlineto
          132 -372 429 -105 407 0 rrcurveto
          48 406 rmoveto
          -217 -99 93 251 239.008361816 102 121.991638184 225 209 103 -77 -247 -258 -91.8939666748 -123 -231.106033325 hvcurveto
          endchar
        </CharString>
        <CharString name="afii10049">
          494 1342 1070 rmoveto
          102 0 59 -3 79 -3 rrcurveto
          -13 -282 rlineto
          -259 29 -218 -8 0 141 0 113 159 13 91 0 rrcurveto
          -337 -1083 rmoveto
          53 82 202 336 61 118 rrcurveto
          244 -17 -15 -474 rlineto
          -4 -1.07106018066 -27 7.07106018066 vhcurveto
          125.003997803 0 221.996002197 -9 105 1 rrcurveto
          239 -4 rlineto
          9 274 14 273 8 275 rrcurveto
          24 622 rlineto
          -14 0 -319.973419189 16 -677.026580811 0 -459 0 -447 -34 0 -413 0 -191 160 -123 170 -59 -81 -118 -297 -431 -55 -71 rrcurveto
          endchar
        </CharString>
        <CharString name="afii10050">
          -47 1819 1823 rmoveto
          -547 16 -21.0116729736 -395.362197876 -975.988327026 8.36219787598 rlineto
          -2 -20 -27 -642 -4 -75 -2 -40 5 21 -19 -696 280 -4 167 -1 107 0 91 0 47 1 35 0 rrcurveto
          -4 103 rlineto
          -4 115 30 611 -3 115 rrcurveto
          263 0 574 5 rlineto
          endchar
        </CharString>
        <CharString name="afii10051">
          68 1293 10 rmoveto
          -1 3 10 255 10 237 78 15 64 6 54 0 rrcurveto
          198 48 -89 -92 hvcurveto
          -5 -202 rlineto
          -13 -269 -105 -38 -155 0 rrcurveto
          -13.0439758301 -295.998062134 rlineto
          33 -2.00001525879 74.0439758301 -7.00193786621 93 0 410 0 246 77 19 562 rrcurveto
          2 252 rlineto
          291 -242 106 -405 vhcurveto
          -152 0 -104 -13 -114 -22 rrcurveto
          6 267 521 0 rlineto
          31 99 30 206 10 85 -50 1 -59 2 -57 0 -468 -1 -761 -4 -388 -4 -16 -104 -21 -238 -2 -42 rrcurveto
          546 hlineto
          -7 -132 -3 -93 -5 -157 rrcurveto
          -20.0206604004 -674 4.02066040039 0 rlineto
          82 0 542 10 55 5 rrcurveto
          endchar
        </CharString>
        <CharString name="afii10052">
          517 922.844726562 1645 rmoveto
          -72 callsubr
          654.155273438 -194 rmoveto
          -608 2 -697 -9 -16 -478 -28.9130859375 -983.032226562 128.936523438 -0.658203125 569.9765625 19.6904296875 54 940 534 0 rlineto
          endchar
        </CharString>
        <CharString name="afii10053">
          -204 133 710 rmoveto
          -583 565 -172 538 vhcurveto
          85 0 107 3 108 12 rrcurveto
          419 vlineto
          -67 -4 -78 -8 -79 0 -162 0 -163 34 -60 170 rrcurveto
          450 -2 -7 274 -447 -5 rlineto
          60 163 191 31 179 0 65 0 63 -4 55 -3 rrcurveto
          436 vlineto
          -62 7 -65 3 -66 0 rrcurveto
          -591 -619 -185 -586 hvcurveto
          endchar
        </CharString>
        <CharString name="afii10054">
          253 1019 -45 rmoveto
          -23 callsubr
          endchar
        </CharString>
        <CharString name="afii10055">
          -721 990 1449 rmoveto
          -58 callsubr
          endchar
        </CharString>
        <CharString name="afii10056">
          -721 1208 1645 rmoveto
          -74 callsubr
          -632.112304688 6.00390625 rmoveto
          -64 callsubr
          781 -553 rmoveto
          -58 callsubr
          endchar
        </CharString>
        <CharString name="afii10057">
          -541 1209 1452 rmoveto
          -99 callsubr
          endchar
        </CharString>
        <CharString name="afii10058">
          1266 878 266 rmoveto
          62.325592041 119.353500366 6.67440795898 350.646499634 12 290 rrcurveto
          314 hlineto
          -9 -115 -22 -695 0 -115 rrcurveto
          0 -108 1012 11 rlineto
          552.967330933 6.01051330566 239.032669067 206.989486694 0 311 rrcurveto
          324 -284.014511108 155.60206604 -327 vhcurveto
          -439.985488892 -10.60206604 22 453 -1710 -10 -21 -474 -23.0687408447 -333.995254517 rlineto
          -17.303894043 -250.530593872 -74.6273498535 -128.47416687 -189 -36 97 -219 55 -132 12 -20 359 33 235.325592041 123.353500366 137.674407959 263.646499634 rrcurveto
          1190 72 rmoveto
          -30 0 -29 0 -40 4 rrcurveto
          17 388 184 0 rlineto
          119 65 -80 -104 -132 -94 -76 -128 hvcurveto
          endchar
        </CharString>
        <CharString name="afii10059">
          1411 1462 -7 rmoveto
          1012 11 rlineto
          552.967330933 6.01051330566 239.032669067 206.989486694 0 311 0 332 -298 155 -338 -8 rrcurveto
          -415 -10 22 452 rlineto
          -175 -1 -212 -7 -189 -2 -42 -1 -65 -3 -45 -6 rrcurveto
          -21 -486 -538 0 37.9968261719 510.245300293 -715.996826172 -9.24530029297 -16 -478 rlineto
          -19 -525 -11.0138549805 -337.482513428 0 -120 rrcurveto
          690.01385498 18.4825134277 26 430 534 0 rlineto
          -9 -115 -5 -101 0 -115 rrcurveto
          744 629 rmoveto
          -2 callsubr
          endchar
        </CharString>
        <CharString name="afii10060">
          575 1293 10 rmoveto
          20 454 rlineto
          82 16 68 7 56 0 rrcurveto
          198 48.2422485352 -89.0065307617 -92 hvcurveto
          -8.26916503906 -306.992752075 rlineto
          191 1 376.026916504 -0.000732421875 29 4 rrcurveto
          12.4939727783 378.983718872 rlineto
          9.58821105957 290.842010498 -266.082168579 166.174285889 -405 0 -157 0 -105 -13 -118 -24 rrcurveto
          5 248 521 0 rlineto
          31 100 30 209 10 86 -50 1 -59 2 -57 0 -468 -1 -761 -5 -388 -5 -16 -105 -21 -240 -2 -42 rrcurveto
          546 hlineto
          -7 -132 -3 -93 -5 -157 rrcurveto
          -20.0206604004 -674 4.02066040039 0 rlineto
          82 0 542 10 55 5 rrcurveto
          endchar
        </CharString>
        <CharString name="afii10061">
          428 1272.41992188 1655 rmoveto
          -72 callsubr
          881.580078125 -407 rmoveto
          -98 callsubr
          -2 vmoveto
          -31 callsubr
          endchar
        </CharString>
        <CharString name="afii10062">
          83 1019.15332031 1832 rmoveto
          -42 callsubr
          -687.153320312 -1832 rmoveto
          595 3 162 3 rlineto
          300.513671875 476.153320312 303.920898438 472.745117188 303.565429688 473.1015625 rrcurveto
          -11 20 -686.876953125 -2.671875 -250.123046875 -418.328125 -289.740234375 423.861328125 -180.259765625 -3.861328125 -538 -3 -4 -29 640 -873 rlineto
          endchar
        </CharString>
        <CharString name="afii10065">
          -96 751 -37 rmoveto
          -92 callsubr
          170 303 rmoveto
          -91 callsubr
          endchar
        </CharString>
        <CharString name="afii10066">
          -203 1151 1326 rmoveto
          -504 -85 -533 -293 0 -518 rrcurveto
          -137 123 -330 574 521 259 179 292 179 -168 193 -414 vhcurveto
          -48 0 -52 -2 -56 -6 107 92 217 60 76 10 rrcurveto
          -540 -570 rmoveto
          103 32 121 126 111 38 -69 -121 -120 -35 -96 -123 -112 -37 76 106 vhcurveto
          endchar
        </CharString>
        <CharString name="afii10067">
          -147 1018 -4 rmoveto
          370 268 106 217 hvcurveto
          0 112 -99 91 -138 22 133 27 74 76 7 92 19 233 -294 54 -312 0 rrcurveto
          -860 -17 -3 -42 -3.56527709961 -80.0924072266 -25.4347229004 -394.907592773 2 0 -25.623550415 -481.966842651 rlineto
          16.0000152588 -9.99998474121 19.623550415 -4.03315734863 25 0 rrcurveto
          719 617 rmoveto
          -190 0 13 208 208 0 rlineto
          104 66 -18 -78 -99 -89 -13 -112 hvcurveto
          -16 -403 rmoveto
          -188 0 8 209 209 0 rlineto
          104 67 -22 -78 -99 -88 -10 -112 hvcurveto
          endchar
        </CharString>
        <CharString name="afii10068">
          -527 1265 1023 rmoveto
          -1 callsubr
          endchar
        </CharString>
        <CharString name="afii10069">
          -44 255 298 rmoveto
          -219 -1 -11 -10 -4 -43 -44 -511 140 0 423 4 28 258 160 2 1 4 407 0 0 -2 119 1 -17 -271 243 2 315 -4 rlineto
          8 193 6 195 7 194 rrcurveto
          -141 -1 7 192 14 529 -548 -6 -793 -6 -11 -10 rlineto
          -27 -239 -33 -233 -30 -237 rrcurveto
          519 3 rmoveto
          54 390 337 0 -16 -389 rlineto
          endchar
        </CharString>
        <CharString name="afii10070">
          -268 1048 626 rmoveto
          -87 callsubr
          -170 -662 rmoveto
          -86 callsubr
          endchar
        </CharString>
        <CharString name="afii10071">
          -268 1325.19921875 1234 rmoveto
          -74 callsubr
          -632.112304688 6.00390625 rmoveto
          -64 callsubr
          721.80078125 -965 rmoveto
          -87 callsubr
          -170 -662 rmoveto
          -86 callsubr
          endchar
        </CharString>
        <CharString name="afii10072">
          83 819 -21 rmoveto
          310 -2 -1 6 6 284 251 -277 572 29 -79 79 -435 443 476 467 -460 10 rlineto
          -34 0 -17 0 -33 -1 rrcurveto
          -231 -299 7 293 -319 -2 0 -66 -3 -218 -209 282 -510 11 423 -529 -400 -385 -106 -106 460 -9 rlineto
          37 0 -11 0 37 2 rrcurveto
          273 281 rlineto
          endchar
        </CharString>
        <CharString name="afii10073">
          -511 1252 306 rmoveto
          0 155 -141 71 -98 32 87 41 128 76 0 121 0 191 -262 77 -327 0 -149 0 -163 -13 -158 -23 rrcurveto
          -221 vlineto
          75 17 110 19 95 0 rrcurveto
          73 43 -49 -50 -50 -42 -48 -96 hvcurveto
          -118 0 -25 -211 181 0 rlineto
          77 37 -46 -46 -49 -40 -49 -79 hvcurveto
          -86 0 -107 16 -88 20 rrcurveto
          -2 -250 rlineto
          100 -39 184 -35 182 0 404 0 205 153 0 190 rrcurveto
          endchar
        </CharString>
        <CharString name="afii10074">
          -86 1651 4 rmoveto
          -4 callsubr
          endchar
        </CharString>
        <CharString name="afii10075">
          -86 922.09375 1421 rmoveto
          -42 callsubr
          728.90625 -1417 rmoveto
          -4 callsubr
          endchar
        </CharString>
        <CharString name="afii10076">
          -136 1146 -18 rmoveto
          0 callsubr
          endchar
        </CharString>
        <CharString name="afii10077">
          -11 264 -37 rmoveto
          430.812179565 0 139.751266479 115 50.4365539551 417 rrcurveto
          16 158 283 0 -23 -664 263 2 305 -4 19 513 14 529 -528 -6 -823 -2 -11 -10 -4 -43 -36 -394 rlineto
          -25 -268 -103 -39 -155 0 rrcurveto
          -13 -294 0 -1 rlineto
          33 -2 74 -7 93 0 rrcurveto
          endchar
        </CharString>
        <CharString name="afii10078">
          352 129 -6 rmoveto
          377 -3 rlineto
          65 0 58 1 55 3 rrcurveto
          40 458 rlineto
          80 -155 184 -295 0 0 rrcurveto
          180 0 63 4 346 474 12 -132 28 -358 rlineto
          132 0 246 2 133 8 rrcurveto
          -7 88 -64 927 -585 13 -325 -508 -285 500 -658 0 -4 0 rlineto
          endchar
        </CharString>
        <CharString name="afii10079">
          103 762 668 rmoveto
          17 354 -16 0 -579 8 -27 -346 -16 -354 rlineto
          0 -10 -2 -17 0 -10 -4 -98 -4 -109 0 -84 rrcurveto
          600 -2 23 314 456 0 -3 -230 0 -95 rlineto
          66 0 106 1 75 1 rrcurveto
          368 5 28 515 rlineto
          0 53 27 444 -1 15 rrcurveto
          -485 -12 -143 0 -18 -343 rlineto
          endchar
        </CharString>
        <CharString name="afii10080">
          -103 1146 522 rmoveto
          -46 callsubr
          -1032 -30 rmoveto
          -76 callsubr
          endchar
        </CharString>
        <CharString name="afii10081">
          -50 694 -3 rmoveto
          40 654 407 0 -29 -662 263 2 315 -4 19 513 14 529 -568 -6 -973 -6 -11 -10 -4 -43 -36 -971 140 0 rlineto
          endchar
        </CharString>
        <CharString name="afii10082">
          1205 509 rmoveto
          -90 callsubr
          -510 -820 rmoveto
          0 159 14 184 0 33 rrcurveto
          7 vlineto
          100 -64 153 -45 159 0 rrcurveto
          362 324 238 359 292 -265 218 -346 hvcurveto
          -236 0 -225 -57 -131 -159 rrcurveto
          -108 199 -232 -35 rlineto
          -32.6904296875 -4.931640625 -25.3095703125 -2.068359375 -23 -17 rrcurveto
          -50 -1226 rlineto
          -1.7119140625 -41.96484375 3.7119140625 -42.03515625 1 -37 rrcurveto
          10 hlineto
          86 0 254 21 209 21 rrcurveto
          endchar
        </CharString>
        <CharString name="afii10083">
          -266 1020 -37 rmoveto
          -89 callsubr
          endchar
        </CharString>
        <CharString name="afii10084">
          -413 977 -3 rmoveto
          40 654 376 0 25 362 -23 10 -1292 -6 -11 -10 0 -26 -21 -325 368 0 -25 -663 140 0 rlineto
          endchar
        </CharString>
        <CharString name="afii10085">
          -197 665 -144 rmoveto
          -44 callsubr
          endchar
        </CharString>
        <CharString name="afii10086">
          217 1213.96972656 -411 rmoveto
          6.0302734375 375 rlineto
          332 23 442 59 13 488 8 347 -331 148 -416 36 rrcurveto
          10 246 -357 -5 -11 -237 rlineto
          -456 -34 -329 -130 -11 -422 -11 -439 441 -55 323 -26 rrcurveto
          -9.0302734375 -370 rlineto
          401.030273438 1181 rmoveto
          156 2 54 -111 -3 -140 -5 -162 -53 -121 -166 -5 rrcurveto
          -368 -3 rmoveto
          -162 -1 -62 95 4 168 4 131 64 143 164 1 rrcurveto
          endchar
        </CharString>
        <CharString name="afii10087">
          -35 1194 -14 rmoveto
          167.298828125 0 251.788085938 10.9609375 171 2.1259765625 rrcurveto
          -534.086914062 552.913085938 rlineto
          153 144 162 178 181 134 rrcurveto
          -460 10 rlineto
          -42.8271484375 0 -46.60546875 0 -41.5673828125 -1 rrcurveto
          -40 -51 -125 -139 rlineto
          -38 57 -42 56 -40 55 rrcurveto
          -33 49 -740 -66 rlineto
          190 -160 167 -172 165 -168 rrcurveto
          -419 -374 rlineto
          -34.810546875 -31.0712890625 -24.13671875 -29.9287109375 -25.052734375 -25 rrcurveto
          505 -19 rlineto
          36.9736328125 -1.390625 37.0263671875 1.390625 37 2 rrcurveto
          33 36 rlineto
          12.404296875 13.5322265625 65.595703125 70.4677734375 56 63 65 -90 80 -94 26 -19 44 3 38.98828125 2 41.01171875 0 rrcurveto
          endchar
        </CharString>
        <CharString name="afii10088">
          20 1142 -11 rmoveto
          263 2 126 -1 0 -145 rlineto
          0 -123.798568726 0 -49.8632965088 2 -65.3381347656 rrcurveto
          59 0 337 0 4 177 0 292 -63 3 -107 0 rlineto
          13 406 3 -11 0 27 rrcurveto
          14 529 -608 -12 -33 -662 -401 0 30 673 rlineto
          -4 0 -6 1 -8 0 -105 0 -406 -3 -70 -9 rrcurveto
          -11 -10 -4 -43 -36 -976 140 -4 rlineto
          endchar
        </CharString>
        <CharString name="afii10089">
          70 1192 -11 rmoveto
          263 2 355 -4 rlineto
          15 499 4 -15 0 29 rrcurveto
          14 519 -608 0 -16 -372 -199 0 rlineto
          -211 -29 103 189 hvcurveto
          0 25 0 26 1 27 -4 0 -6 1 -8 0 rrcurveto
          -581 11 -11 -10 -4 -55 rlineto
          -1 -28 0 -28 0 -26 rrcurveto
          -465 133 -149 552 vhcurveto
          353 hlineto
          endchar
        </CharString>
        <CharString name="afii10090">
          951 2113 -11 rmoveto
          1 callsubr
          endchar
        </CharString>
        <CharString name="afii10091">
          951 2113 -11 rmoveto
          1 callsubr
          1598 97 rmoveto
          -106 callsubr
          endchar
        </CharString>
        <CharString name="afii10092">
          92 1177 -5 rmoveto
          367 305 101 303 hvcurveto
          10 vlineto
          -8 332 -290 86 -338 0 rrcurveto
          -351 0 2 94 0 97 rlineto
          -41 9 -47 0 -46 0 rrcurveto
          -674 0 -15 -333 144 -2 133 0 -23 -552 1 -3 rlineto
          -1 -43 0 -33 0 -43 18 -14 21 -6 27 0 rrcurveto
          492 254 rmoveto
          4 297 201 -1 12 0 rlineto
          128 0 70 -2 3 -122 rrcurveto
          -9 vlineto
          -152 -105 -13 -143 vhcurveto
          endchar
        </CharString>
        <CharString name="afii10093">
          739 859 250 rmoveto
          -170 2 4 296 201 0 rlineto
          136 0 74 2 3 -126 4 -161 -106 -13 -146 0 rrcurveto
          154 -255 rmoveto
          371 0 308 103 -7 311 -8 332 -290 86 -338 0 rrcurveto
          -351 0 2 94 rlineto
          0 32 1 41 -1 32 -41 9 -47 2 -46 0 rrcurveto
          -400 -10 -6 -178 -29 -709 1 -3 rlineto
          -1 -43 0 -33 0 -43 18 -14 21 -6 27 0 rrcurveto
          2219 1028 rmoveto
          -4 0 -476 -6 -9 -604 rlineto
          -10 -207 3 -149 0 -51 32 -10 33 0 33 0 rrcurveto
          1 0 477 13 16 1011 rlineto
          -32 2 -32 1 -32 0 rrcurveto
          endchar
        </CharString>
        <CharString name="afii10094">
          -69 892 250 rmoveto
          -170 2 4 288 201 -1 rlineto
          136 0 74 2 3 -126 4 -161 -106 -4 -146 0 rrcurveto
          154 -255 rmoveto
          371 0 308 103 -7 311 -8 332 -290 77 -338 0 rrcurveto
          -351 0 2 103 rlineto
          0 32 1 33 -1 32 -41 9 -47 2 -46 0 rrcurveto
          -400 -2 -6 -88 -29 -799 1 -3 rlineto
          -1 -43 0 -33 0 -43 18 -14 21 -6 27 0 rrcurveto
          endchar
        </CharString>
        <CharString name="afii10095">
          -282 157 1027 rmoveto
          47 -275 rlineto
          107 17 97 8 85 0 206 0 134 -56 19 -105 rrcurveto
          -574 -202 567 hlineto
          -1 -97 -127 -47 -194 0 -103 0 -123 12 -133 23 rrcurveto
          -25 -291 rlineto
          147 -31 171 -20 172 0 rrcurveto
          441 438 136 429 404 -456 138 -442 hvcurveto
          -160 0 -159 -16 -134 -27 rrcurveto
          endchar
        </CharString>
        <CharString name="afii10096">
          480 1569 -37 rmoveto
          326 375 75 488 348 -255 197 -393 hvcurveto
          -380 0 -273 -112 -75 -291 rrcurveto
          -181 0 16 354 -15 0 -539 8 -20 -346 rlineto
          -15 -364 -9 -234 0 -84 rrcurveto
          554 -2 21 314 191 0 rlineto
          85 -286 301 -65 286 0 rrcurveto
          16 273 rmoveto
          -150 -50 96 168 131 43 142 151 148 44 -111 -140 hvcurveto
          0 -162 -33 -121 -153 -3 rrcurveto
          endchar
        </CharString>
        <CharString name="afii10097">
          -114 1084 792 rmoveto
          1 -205 rlineto
          -313 0 -74 16 6 110 5 75 123 9 69 0 78 0 44 -2 61 -3 rrcurveto
          -331 -797 rmoveto
          11 32 100 265 26 69 rrcurveto
          195 -4 -5 -351 rlineto
          -3 0 -3 5 vhcurveto
          546 -9 rlineto
          7 132 2 147 3 175 rrcurveto
          12 574 -800 9 rlineto
          -365 1 -331 -21 -17 -282 -8 -149 113 -96 142 -46 rrcurveto
          -232 -433 rlineto
          43 -1 552 -6 1 0 rrcurveto
          endchar
        </CharString>
        <CharString name="afii10098">
          120 291 1031 rmoveto
          -140 -4 -14.6204833984 -1012.99104309 11.6204833984 -10.0089569092 rlineto
          70 -9 405 -3 105 0 8 0 6 1 4 0 rrcurveto
          6 673 741 0 rlineto
          0 16 10 610.07321167 0 20 rrcurveto
          -397.32699585 0 -15.6730041504 -284.07321167 rlineto
          -451 -1 105 3 -453 1 rrcurveto
          endchar
        </CharString>
        <CharString name="afii10099">
          27 1115 -516 rmoveto
          410 0 246 97 19 562 rrcurveto
          2 402 rlineto
          291 -242 166 -405 vhcurveto
          -165 0 -108 -15 -125 -26 rrcurveto
          4 189 401 0 9 96 rlineto
          3 35 7 74 0 17 -70 0 -132 -1 -215 -3 rrcurveto
          -2 97 hlineto
          -197 0 -196 -1 -196 0 rrcurveto
          -2 -98 -125 0 -7 -216 127 0 -25 -1054 0 -103 130 0 477 8 16 625 rlineto
          82 16 68 7 56 0 rrcurveto
          198 48 -89 -92 hvcurveto
          -5 -352 rlineto
          -13 -269 -105 -38 -155 0 rrcurveto
          -13 -315 0 -1 rlineto
          33 -2 74 -7 93 0 rrcurveto
          endchar
        </CharString>
        <CharString name="afii10100">
          -527 714.006835938 1234 rmoveto
          -72 callsubr
          550.993164062 -211 rmoveto
          -1 callsubr
          endchar
        </CharString>
        <CharString name="afii10101">
          -282 1465 1027 rmoveto
          -134 29 -159 18 -160 0 rrcurveto
          -442 -456 -139 -407 -428 438 -135 441 hvcurveto
          172 0 171 20 147 31 rrcurveto
          -25 291 rlineto
          -133 -23 -123 -12 -103 0 -194 0 -127 47 -1 95 rrcurveto
          567 202 -574 hlineto
          19 105 134 56 206 0 85 0 97 -8 107 -17 rrcurveto
          endchar
        </CharString>
        <CharString name="afii10102">
          -339 748 -37 rmoveto
          -22 callsubr
          endchar
        </CharString>
        <CharString name="afii10103">
          -960 683 1026 rmoveto
          -81 callsubr
          161 352 rmoveto
          -80 callsubr
          endchar
        </CharString>
        <CharString name="afii10104">
          -960 991.643554688 1234 rmoveto
          -74 callsubr
          -632.111328125 6.00390625 rmoveto
          -54 callsubr
          212.356445312 -571 rmoveto
          -49 callsubr
          endchar
        </CharString>
        <CharString name="afii10105">
          -817 -63 -438 rmoveto
          -79 callsubr
          1089 1848 rmoveto
          -78 callsubr
          endchar
        </CharString>
        <CharString name="afii10106">
          821 959 530 rmoveto
          5 164 275 0 -20 -695 66 -1 736 -3 rlineto
          371 -2 251 105 0 311 rrcurveto
          332 -268 86 -338 vhcurveto
          -251 0 2 94 0 106 -1336 -4 0 -59 -13 -353 -1 0 rlineto
          -13 -269 -105 -38 -155 0 -33 0 -37 2 -38 2 0 -27 -3 -269 0 -23 rrcurveto
          -1 vlineto
          33 -2 172 -7 93 0 410 0 176 138 21 413 rrcurveto
          898 -280 rmoveto
          -80 2 4 297 111 -1 rlineto
          136 0 74 2 3 -126 4 -161 -106 -13 -146 0 rrcurveto
          endchar
        </CharString>
        <CharString name="afii10107">
          715 1740.8828125 250 rmoveto
          -90 2 4 297 121 -1 rlineto
          136 0 74 2 3 -126 4 -161 -106 -13 -146 0 rrcurveto
          134 -255 rmoveto
          371 0 308 103 -7 311 -8 332 -290 86 -338 0 rrcurveto
          -251 0 2 94 rlineto
          0 32 1 44 -1 32 rrcurveto
          -534 -2 -6 -88 -8 -271 -378 0 11 354 -16 0 -573 8 -27 -1028 587 -2 10 314 375 0 -10 -312 1 -3 65 -1 rlineto
          endchar
        </CharString>
        <CharString name="afii10108">
          20 1683 2 rmoveto
          46 3 35 2 30 4 rrcurveto
          12 519 0 15 rlineto
          291 -256 166 -405 vhcurveto
          -165 0 -108 -15 -125 -26 rrcurveto
          4 189 401 0 9 96 rlineto
          3 35 7 74 0 17 rrcurveto
          -48 hlineto
          -10 0 -194 -2 -165 -2 rrcurveto
          1 97 -102 0 -25 0 -462 -1 -3 -98 -127 0 -7 -216 129 0 -27 -1054 0 -103 130 0 477 8 16 625 rlineto
          82 16 68 7 56 0 198 0 48 -89 0 -92 rrcurveto
          0 -9 -8 -459 0 -1 rlineto
          endchar
        </CharString>
        <CharString name="afii10109">
          -136 974.452148438 1234 rmoveto
          -72 callsubr
          171.547851562 -1252 rmoveto
          0 callsubr
          endchar
        </CharString>
        <CharString name="afii10110">
          -197 874.127929688 1421 rmoveto
          -42 callsubr
          -209.127929688 -1565 rmoveto
          -44 callsubr
          endchar
        </CharString>
        <CharString name="afii10145">
          517 987 -416 rmoveto
          142 8 250 0 95 7 rrcurveto
          20 351 1 0 rlineto
          113 0 479 17 75 12 rrcurveto
          12 14 46 954 rlineto
          0 100 18 232 0 141 rrcurveto
          -130 6 -20 0 -540 5 -64 -970 -534 0 rlineto
          9 115 32 611 5 115 rrcurveto
          6 132 rlineto
          -75 0 -122 4 -86 -1 rrcurveto
          -435 -6 rlineto
          -27 -555 -32 -896 2 -31 rrcurveto
          24 hlineto
          246 0 189 0 227 1 -13 -196 -12 -126 0 -38 32 -6 33 0 33 0 rrcurveto
          endchar
        </CharString>
        <CharString name="afii10193">
          -7 741 362 rmoveto
          3 74 17 424 8 149 -3 1 -5 0 -8 0 rrcurveto
          -578 -3 rlineto
          -19 -327 -25 -344 0 -338 rrcurveto
          493 hlineto
          -8 -177 -6 -131 0 -46 32 -10 33 0 33 0 rrcurveto
          1 0 487 5 rlineto
          -2 19 0 35 8 304 rrcurveto
          164 0 364 4 rlineto
          21 679 15 265 0 69 rrcurveto
          -470 2 rlineto
          -35 0 -54 -3 -38 -4 rrcurveto
          -58 vlineto
          0 -32 -10 -444 -4 -113 rrcurveto
          endchar
        </CharString>
        <CharString name="afii61352">
          2265 3514 522 rmoveto
          -46 callsubr
          -1032 -30 rmoveto
          -76 callsubr
          -2295 939 rmoveto
          -56 callsubr
          endchar
        </CharString>
        <CharString name="agrave">
          -96 1057.46777344 1300 rmoveto
          -93 callsubr
          -181.467773438 -1292 rmoveto
          -92 callsubr
          170 303 rmoveto
          -91 callsubr
          endchar
        </CharString>
        <CharString name="amacron">
          -96 496.876953125 1550 rmoveto
          -43 callsubr
          -608.876953125 -1605 rmoveto
          -92 callsubr
          170 303 rmoveto
          -91 callsubr
          endchar
        </CharString>
        <CharString name="ampersand">
          63 825 1082 rmoveto
          84 62 39 62 60 60 -38 -69 vhcurveto
          0 -64 -50 -75 -85 -37 -66 36 -43 64 0 60 rrcurveto
          263 -747 rmoveto
          -49 -36 -71 -21 -65 0 -88 0 -77 37 0 84 0 48 30 53 52 40 rrcurveto
          569 -449 rmoveto
          222 -154 rlineto
          53 70 227 225 0 2 rrcurveto
          -161 118 272 275 -304 217 rlineto
          -59 -65 -115 -139 -107 -78 rrcurveto
          -235 152 rlineto
          183 115 82 149 0 138 rrcurveto
          195 -189 170 -314 -353 -195 -189 -196 vhcurveto
          0 -115 58 -117 123 -88 -224 -116 -108 -163 0 -150 0 -208 209 -184 399 0 210 0 227 69 99 67 rrcurveto
          endchar
        </CharString>
        <CharString name="aogonek">
          -96 1204 -347 rmoveto
          -41 callsubr
          -453 310 rmoveto
          -92 callsubr
          170 303 rmoveto
          -91 callsubr
          endchar
        </CharString>
        <CharString name="approxequal">
          -651 1049 528 rmoveto
          -8 callsubr
          -143 745 rmoveto
          -8 callsubr
          endchar
        </CharString>
        <CharString name="aring">
          -96 1027.78808594 1530 rmoveto
          -63 callsubr
          -105 -286 rmoveto
          -62 callsubr
          -171.788085938 -1281 rmoveto
          -92 callsubr
          170 303 rmoveto
          -91 callsubr
          endchar
        </CharString>
        <CharString name="asciicircum">
          -677 754 92 rmoveto
          406 43 -25 79 -262 746 -377 12 rlineto
          -87 -130 -193 -386 -152 -280 77 -16 258 -76 2 4 rrcurveto
          231 440 rlineto
          11 -42 91 -329 20 -65 rrcurveto
          endchar
        </CharString>
        <CharString name="asciitilde">
          -639 865 521 rmoveto
          178 87 177 139 hvcurveto
          -235 8 rlineto
          -2 -17 0 -70 -62 0 -6 0 -7 0 -8 2 -77.1982879639 16.3094940186 -171.531494141 122.690505981 -154.270217896 0 rrcurveto
          -178 -115 -145 -192 hvcurveto
          234 7 rlineto
          41 17 47 64 vhcurveto
          115.403060913 0 177.726089478 -136 142.870849609 0 rrcurveto
          endchar
        </CharString>
        <CharString name="asterisk">
          -448 829 138 rmoveto
          0 6 -4 4 -3 1 16 0 -2 1 6 55 9 85 20 64 15 84 rrcurveto
          285 -187 rlineto
          13 0 11 5 8 10 73 98 50 68 21 29 11 36 9 6 0 4 rrcurveto
          -330 271 rlineto
          340 243 7 2 0 16 rrcurveto
          2 vlineto
          0 5 -54 78 -125 178 -1 1 -1 0 -2 0 -1 0 -1 -1 -1 0 -1 0 -1 1 -2 0 -30 0 -118 -110 -111 -92 rrcurveto
          46.8350219727 329.881454468 rlineto
          2.38961791992 16.8312225342 -4.22463989258 15.2873382568 -14 0 -5 -1 -36 0 -46 0 -149 0 -101 -1 -25 -1 -2 -5 -2 -5 0 -3 rrcurveto
          -50 -361 rlineto
          -72 53 -183 152 -34 0 -30 0 -42 -79 -26 -40 -71 -107 -20 -30 0 -7 0 -13 102 -70 244 -167 rrcurveto
          -328 -271 rlineto
          0 -3 9 -9 10 -34 14 -21 52.9933013916 -51.2144927979 64.0066986084 -73.7855072021 7.9933013916 -9.21449279785 10.0066986084 -5.78550720215 14 0 33 0 137 95 60 34 -8 -89 -14 -79.7909545898 0 -86.2090454102 rrcurveto
          -26.0192260742 14 -10.9807739258 20 vhcurveto
          4 hlineto
          154 -6 81 -8 41 0 rrcurveto
          11 hlineto
          14 10 1 14 hvcurveto
          endchar
        </CharString>
        <CharString name="at">
          47 1390 235 rmoveto
          279 -10 164 245 0 280 rrcurveto
          441 -296 290 -428 -512 -465 -352 -537 -345 244 -410 646 vhcurveto
          58 176 rlineto
          -403 -289 241 328 375 267 327 425 340 194 -196 -337 -272 -100 -99 -82 -56 -48 48 70 hvcurveto
          0 9 0 50 1 7 rrcurveto
          66 482 -218 10 -39 -86 rlineto
          -23 59 -70 35 -60 0 -205 0 -180 -184 -12 -268 rrcurveto
          -22 vlineto
          -216 143 -105 154 vhcurveto
          65 0 108 53 44 113 45 -167 130 -29 113 -4 rrcurveto
          -330 258 rmoveto
          -33 -23 -62 -15 -24 0 rrcurveto
          -98 -40 76 88 121 75 142 107 hvcurveto
          37 0 64 -26 20 -19 rrcurveto
          endchar
        </CharString>
        <CharString name="atilde">
          -96 1034.87597656 1609 rmoveto
          -65 callsubr
          -283.875976562 -1646 rmoveto
          -92 callsubr
          170 303 rmoveto
          -91 callsubr
          endchar
        </CharString>
        <CharString name="b">
          5 1106 -37 rmoveto
          371 321 254 311 347 -298 195 -338 hvcurveto
          -158 0 -156 -55 -106 -72 2 74 16 248 0 76 0 32 2 33 0 32 -41 9 -47 2 -46 0 -47 0 -333 -39 -52 -7 rrcurveto
          0 -134 -48 -1129 1 -3 rlineto
          -2 -43 -1 -45 -1 -43 17 -14 21 -6 27 0 13 0 203 31 15 9 3 0 98 150 6 18 rrcurveto
          -4 vlineto
          121 -149 214 -78 223 0 rrcurveto
          95 546 rmoveto
          -90 callsubr
          endchar
        </CharString>
        <CharString name="backslash">
          -532 624 1634 rmoveto
          -525 -46 72 -185 rlineto
          23 -52 23 -54 22 -53 rrcurveto
          518 -1254 rlineto
          22 -57 17 -54 26 -47 rrcurveto
          503 49 -70 184 rlineto
          -154 375 -161 397 -171 422 -47 116 -49 126 -49 133 rrcurveto
          endchar
        </CharString>
        <CharString name="bar">
          -1309 121 -91 rmoveto
          0 -6 341 -12 150 1625 -343 16 rlineto
          -17 -240 -121 -1278 -10 -105 rrcurveto
          endchar
        </CharString>
        <CharString name="braceleft">
          -783 1031 -111 rmoveto
          9 199 rlineto
          -175 0 133 239 hvcurveto
          0 181 -85 78 -132 42 353 24 -345 517 416 0 rrcurveto
          -33 254 rlineto
          -7 1 -301 6 -32 0 -584 0 421 -673 -372 0 rrcurveto
          -298 vlineto
          164 4 -137 -154 hvcurveto
          -23 vlineto
          -279 169 -141 280 vhcurveto
          76 0 83 10 91 21 rrcurveto
          endchar
        </CharString>
        <CharString name="braceright">
          -783 156 1548 rmoveto
          -9 -199 rlineto
          175 0 -133 -239 hvcurveto
          0 -181 55 -78 162 -22 -403 -54 395 -507 -416 0 rrcurveto
          33 -254 rlineto
          76 -11 67 -5 59 0 692 0 -370 682 351 0 rrcurveto
          298 vlineto
          -164 -4 137 154 hvcurveto
          23 vlineto
          193 -6 211 -310 vhcurveto
          -108 0 -253 -10 -22 -5 rrcurveto
          endchar
        </CharString>
        <CharString name="bracketleft">
          -480 893 -171 rmoveto
          392 2 rlineto
          3 89 3 189 0 88 -90 4 -94 0 -94 0 rrcurveto
          -112 0 10 470 rlineto
          4.36817932129 205.304458618 17.6318206787 225.695541382 3 124 rrcurveto
          413 10 11 365 -976 0 -185 -2 -15 -767 rlineto
          -6.43721008301 -329.155838013 -16.562789917 -360.844161987 0 -157 0 -49 0 -48 6 -44 230 -12 263 -3 233 0 rrcurveto
          endchar
        </CharString>
        <CharString name="bracketright">
          -479 296 -169 rmoveto
          68 0 116 2 112 2 rrcurveto
          496 4 181 0 19 757 rlineto
          8 305 18 351 0 175 0 60 0 63 -7 54 rrcurveto
          -1125 -363 hlineto
          391 -2 rlineto
          -8 -360 -19 -433 -1 -232 rrcurveto
          -412 -18 -5 -167 2 -194 rlineto
          endchar
        </CharString>
        <CharString name="breve">
          -1070 396 1339 rmoveto
          -42 callsubr
          endchar
        </CharString>
        <CharString name="brokenbar">
          -1179 129 -15 rmoveto
          -75 callsubr
          5 282 rmoveto
          -75 callsubr
          endchar
        </CharString>
        <CharString name="bullet">
          -887 474 299 rmoveto
          248 205 165 276 204 -154 162 -216 -251 -215 -169 -252 -199 131 -187 252 hvcurveto
          endchar
        </CharString>
        <CharString name="c">
          -266 1020 -37 rmoveto
          -89 callsubr
          endchar
        </CharString>
        <CharString name="cacute">
          -266 814.078125 1234 rmoveto
          -72 callsubr
          205.921875 -1271 rmoveto
          -89 callsubr
          endchar
        </CharString>
        <CharString name="caron">
          -810 733 1833 rmoveto
          -69 -94 -72 -89 -71 -92 rrcurveto
          -122 254 rlineto
          -8.36187744141 17.4091644287 -1.63812255859 6.59083557129 -4 0 -23 0 -228 -111 0 -34 0 -1 0 0 1 -1 -2 -3 -2 -4 0 -5 0 -6 2 -6 5 -8 80 -129 188 -281 2 0 rrcurveto
          2 -2 7 0 3 0 rrcurveto
          151 hlineto
          3 0 3 1 3 3 115 134 117.697692871 137.267471313 124.302307129 136.732528687 15.6976928711 17.2674713135 8.30230712891 9.73252868652 0 8 0 2 -1 3 -1 2 1 1 0 1 0 2 0 27 -133.138122559 60.0281066895 -36.8618774414 22.9718933105 rrcurveto
          -32.1381225586 20.0281066895 -17.8618774414 2.97189331055 -7 0 rrcurveto
          endchar
        </CharString>
        <CharString name="ccaron">
          -266 1163.56933594 1822 rmoveto
          -38 callsubr
          -143.569335938 -1862 rmoveto
          -89 callsubr
          endchar
        </CharString>
        <CharString name="ccedilla">
          -266 1138 -158 rmoveto
          -70 callsubr
          -118 121 rmoveto
          -89 callsubr
          endchar
        </CharString>
        <CharString name="ccircumflex">
          -266 757.163085938 1237 rmoveto
          -59 callsubr
          262.836914062 -1271 rmoveto
          -89 callsubr
          endchar
        </CharString>
        <CharString name="cdotaccent">
          -266 761.436523438 1240.00488281 rmoveto
          -7 3 0 8 vhcurveto
          129 0 119.146484375 -0.271484375 112.853515625 3.271484375 25.146484375 0.728515625 -0.146484375 15.271484375 5 44 rrcurveto
          28 314 rlineto
          1.6884765625 18.9248046875 -10.6884765625 5.0751953125 -12 0 -113 -1 -135 -1 -117 0 -24.3310546875 0 -2.6689453125 -17 -2 -44 -17 -289 13 214 -11 -252 rrcurveto
          258.563476562 -1281.00488281 rmoveto
          -89 callsubr
          endchar
        </CharString>
        <CharString name="cedilla">
          -1359 337 -156 rmoveto
          -70 callsubr
          endchar
        </CharString>
        <CharString name="cent">
          -291 932 -242 rmoveto
          150 -3 93 1489 -157 0 rlineto
          2 -1281 rmoveto
          -89 callsubr
          endchar
        </CharString>
        <CharString name="circumflex">
          -800 380 1246 rmoveto
          65 89 68 84 67 87 rrcurveto
          126.780090332 -264.584533691 rlineto
          22 216.219909668 106.584533691 32 hvcurveto
          0 1 1 0 -1 1 2 3 1 3 0 5 0 5 -2 6 -5 8 -75 122 -178 267 -2 0 rrcurveto
          -148 hlineto
          -1 1 -2 1 -2 0 -3 0 -3 -2 -3 -3 -108 -126 -111.758178711 -131.211639404 -117.241821289 -128.788360596 -14.7581787109 -16.2116394043 -8.24182128906 -8.7883605957 0 -8 0 -2 1 -2 1 -2 -1 -1 0 -1 0 -2 rrcurveto
          0 -26 126.131942749 -56.0063018799 34.868057251 -21.9936981201 30.131942749 -19.0063018799 17.868057251 -2.99369812012 6 0 rrcurveto
          endchar
        </CharString>
        <CharString name="colon">
          -1084 642.995758057 414.533126831 rmoveto
          -105 callsubr
          5.99575805664 1107.53312683 rmoveto
          -105 callsubr
          endchar
        </CharString>
        <CharString name="comma">
          -1252 164 -331 rmoveto
          -107 callsubr
          endchar
        </CharString>
        <CharString name="copyright">
          168 1330 322 rmoveto
          3 0 -7 108 -4 63 rrcurveto
          -15 hlineto
          -49 -28 -57 -15 -56 0 -126 0 -120.529754639 73.9661865234 -10.4702453613 164.033813477 -10.5297546387 164.966186523 85.5297546387 121.033813477 142 0 118 0 82 -57 30 -18 rrcurveto
          24 hlineto
          -4 64 -19 125 -2 26 rrcurveto
          5 vlineto
          -39 32 -78 45 -153 0 -288 0 -200 -230 18 -291 17 -266 229 -163 232 0 89 0 90 25 79 51 rrcurveto
          -347 -214 rmoveto
          -365.583084106 -234.416915894 275.966049194 325.033950806 360 319 237 383 351.614761353 256.385238647 -251.68157959 -325.31842041 -374 -313 -247 -397 hvcurveto
          115 1385 rmoveto
          -512 -428 -307 -467 -418.783950806 317.510070801 -355.216049194 484.489929199 531 419 320 484 420.225570679 -344.346115112 323.774429321 -467.653884888 hvcurveto
          endchar
        </CharString>
        <CharString name="currency">
          -627 983 831 rmoveto
          -146 -96 -149 -192 -181 -88 136 140 147 98 151 189 181 89 -138 -141 vhcurveto
          -525 -441 rmoveto
          55 -32 87 -21 94 0 91 0 98 20 80 51 rrcurveto
          160 -140 139 170 -129 117 rlineto
          60 71 30 98 0 97 0 99 -31 99 -61 68 rrcurveto
          145 166 -179 151 -145 -161 rlineto
          -70 35 -83 19 -86 0 -78 0 -80 -16 -73 -34 rrcurveto
          -130 147 -189 -147 127 -142 rlineto
          -71 -87 -36 -103 0 -103 0 -99 33 -99 65 -86 rrcurveto
          -115 -133 174 -151 rlineto
          endchar
        </CharString>
        <CharString name="d">
          -6 1344 220 rmoveto
          -88 callsubr
          -156 289 rmoveto
          -90 callsubr
          endchar
        </CharString>
        <CharString name="dagger">
          -695 803 hmoveto
          30 759 rlineto
          109 1 166 -2 0 1 rrcurveto
          9 272 rlineto
          -28 0 -136 -2 -111 -1 rrcurveto
          19 437 -463 -3 rlineto
          -1 -68 -10 -183 -7 -187 rrcurveto
          -282 0 -7 -267 280 0 -29.2325744629 -752.990966797 rlineto
          endchar
        </CharString>
        <CharString name="daggerdbl">
          -689 817 hmoveto
          12 291 rlineto
          149 126 1 0 hvcurveto
          9 272 rlineto
          -28 0 -135 -2 -111 -1 rrcurveto
          8 198 rlineto
          109 1 166 -2 0 1 rrcurveto
          9 272 rlineto
          -28 0 -136 -2 -111 -1 rrcurveto
          19 437 -463 -3 rlineto
          -1 -68 -10 -183 -7 -187 rrcurveto
          -282 0 -7 -267 280 0 -8 -200 -283 0 -7 -267 279 0 -10.2140197754 -285.992355347 rlineto
          endchar
        </CharString>
        <CharString name="dcaron">
          -6 2074.91015625 767 rmoveto
          -107 callsubr
          -730.91015625 -547 rmoveto
          -88 callsubr
          -156 289 rmoveto
          -90 callsubr
          endchar
        </CharString>
        <CharString name="dcroat">
          -6 881.153320312 1297.18457031 rmoveto
          -37 callsubr
          -551.428710938 -1087.421875 rmoveto
          -88 callsubr
          -156 289 rmoveto
          -90 callsubr
          endchar
        </CharString>
        <CharString name="degree">
          -897 758 1026 rmoveto
          -114 -63 -116 -138 -116.038787842 -29.9612121582 115 83 106 68 114 140 106 33 -107 -81 vhcurveto
          -171 -468 rmoveto
          286 177 240 237 249 -190 164 -244 -276 -209 -209 -249 -273 199 -159 257 hvcurveto
          endchar
        </CharString>
        <CharString name="dieresis">
          -715 1101 1219 rmoveto
          -74 callsubr
          -632.111907959 6.0041809082 rmoveto
          -0.261322021484 -6.9951171875 3.37322998047 -0.00906372070312 7 0 117 0 107 2 147 0 rrcurveto
          5 358 -18 0 rlineto
          -100 0 -124 -2 -104 0 rrcurveto
          -27 hlineto
          endchar
        </CharString>
        <CharString name="divide">
          -542 116.997924805 802.787307739 rmoveto
          -20.9979248047 -275.787307739 1235 3 2 276 rlineto
          -788 -884 rmoveto
          409.860839844 2.00727844238 21.1391601562 403.992721558 -415 0 -16 -366 rlineto
          20.8463745117 971.005905151 rmoveto
          -0.269027709961 -6.9948425293 3.42265319824 -0.0110778808594 8 0 129 0 144.029388428 1.99755859375 113 1 rrcurveto
          32.9706115723 398.002441406 -415 0 rlineto
          endchar
        </CharString>
        <CharString name="dollar">
          -311 1212 1593 rmoveto
          -231 -11 -29 -206 -178 -19 21 213 -233 -20 -18 -245 rlineto
          -247 -88 -46 -124 0 -126 0 -203 197 -209 0 -74 0 -83 -8 -56 -275 -16 rrcurveto
          -43 -299 rlineto
          141 0 98 12 89 15 rrcurveto
          -17 -215 rlineto
          12 0 126 2 80 2 rrcurveto
          22 242 163 34 -19 -281 rlineto
          42 1 128 9 37 0 rrcurveto
          5 hlineto
          7 100 19 167 4 46 238 69 174 114 0 152 0 270 -318 57 0 157 0 81 94 20 91 0 83 0 80 -16 9 0 rrcurveto
          -41 300 rlineto
          -60 9 -95 11 -124 0 rrcurveto
          endchar
        </CharString>
        <CharString name="dotaccent">
          -1325 73 1396 rmoveto
          -71 callsubr
          endchar
        </CharString>
        <CharString name="dotlessi">
          -960 205 1020 rmoveto
          -5 -55 -19.1953735352 -377.06980896 -6.80462646484 -171.93019104 -8.19537353516 -207.06980896 -8.80462646484 -153.93019104 0 -51 104 -2 440.422317505 -3.93580627441 36 3 rrcurveto
          41.5776824951 1021.93580627 rlineto
          -190 12 -203 -3 -181 -12 rrcurveto
          endchar
        </CharString>
        <CharString name="e">
          -268 1048 626 rmoveto
          -87 callsubr
          -170 -662 rmoveto
          -86 callsubr
          endchar
        </CharString>
        <CharString name="eacute">
          -268 817.57421875 1234 rmoveto
          -72 callsubr
          230.42578125 -608 rmoveto
          -87 callsubr
          -170 -662 rmoveto
          -86 callsubr
          endchar
        </CharString>
        <CharString name="ecaron">
          -268 1017.06542969 1822 rmoveto
          -38 callsubr
          30.9345703125 -1199 rmoveto
          -87 callsubr
          -170 -662 rmoveto
          -86 callsubr
          endchar
        </CharString>
        <CharString name="ecircumflex">
          -268 646.658203125 1237 rmoveto
          -66 callsubr
          401.341796875 -608 rmoveto
          -87 callsubr
          -170 -662 rmoveto
          -86 callsubr
          endchar
        </CharString>
        <CharString name="edieresis">
          -268 1325.19921875 1234 rmoveto
          -74 callsubr
          -632.112304688 6.00390625 rmoveto
          -64 callsubr
          721.80078125 -965 rmoveto
          -87 callsubr
          -170 -662 rmoveto
          -86 callsubr
          endchar
        </CharString>
        <CharString name="egrave">
          -268 958.19921875 1289 rmoveto
          -93 callsubr
          214.80078125 -618 rmoveto
          -87 callsubr
          -170 -662 rmoveto
          -86 callsubr
          endchar
        </CharString>
        <CharString name="eight">
          195 1112 1226 rmoveto
          80 80 -51 -92 -98 -76 -45 -78 -79 -80 47 88 103 76 48 77 hvcurveto
          190 -755 rmoveto
          -88 -57 -89 -119 -129 -61 83 86 91 69 93 131 109 57 -88 -88 vhcurveto
          -199 1010 rmoveto
          -375 -371 -89 -310 hvcurveto
          0 -102 51 -93 146 -70 -187 -76 -169 -93 0 -221 rrcurveto
          -370 441 -102 432 529 351 146 341 vhcurveto
          0 203 -126 112 -156 82 99 61 89 102 0 127 rrcurveto
          300 -376 52 -378 vhcurveto
          endchar
        </CharString>
        <CharString name="ellipsis">
          -133 1252 -42 rmoveto
          -71 callsubr
          -579 -4 rmoveto
          -71 callsubr
          -579 -4 rmoveto
          -71 callsubr
          endchar
        </CharString>
        <CharString name="emacron">
          -268 397.608398438 1539 rmoveto
          -43 callsubr
          -212.608398438 -931 rmoveto
          -87 callsubr
          -170 -662 rmoveto
          -86 callsubr
          endchar
        </CharString>
        <CharString name="emdash">
          -495 1016.99432373 524 rmoveto
          238.00567627 0 20 296 rlineto
          -16 0 -507 -6.0771484375 -47 0.0771484375 rrcurveto
          -609 0 -12.989440918 -297.245666504 rlineto
          endchar
        </CharString>
        <CharString name="endash">
          -873 591 522 rmoveto
          52 0 80 1 67 0 rrcurveto
          140 0 1.978515625 267.01171875 -819.978515625 -6.01171875 -13 -267 147 0 rlineto
          endchar
        </CharString>
        <CharString name="eogonek">
          -268 797 -364 rmoveto
          -41 callsubr
          251 990 rmoveto
          -87 callsubr
          -170 -662 rmoveto
          -86 callsubr
          endchar
        </CharString>
        <CharString name="equal">
          -925 444 257 rmoveto
          146 0 157 0 127 3 rrcurveto
          -2 316 -282 -4 -486 0 -6 -314 rlineto
          41 0 143 -1 162 0 rrcurveto
          -209 508 rmoveto
          110 0 274 4 257 5 rrcurveto
          11 304 -464 -2.99035644531 -309.16758728 0 -17.8324127197 -310.009643555 rlineto
          endchar
        </CharString>
        <CharString name="eth">
          -75 945 265 rmoveto
          -121 -129 90 208 128 72 112 196 hvcurveto
          34 0 20 -5 45 -12 68 -124 31 -105 0 -83 rrcurveto
          -134 -82 -75 -134 vhcurveto
          -57 -317 rmoveto
          702 121 364 238 hvcurveto
          0 272 -145 248 -388 333 rrcurveto
          294 67 -150 148 -304 -67 rlineto
          -76 69 -111 60 -50 30 rrcurveto
          -2 hlineto
          -26 0 -217 -38 -90 -20 18 -18 159 -140 39 -53 rrcurveto
          -266 -73 rlineto
          -1 0 -1 -1 hvcurveto
          143 -156 254 72 rlineto
          52 -37 77 -109 36 -62 -46 5 -45 3 -44 0 rrcurveto
          -400 -320 -211 -322 -296 200 -305 586 hvcurveto
          endchar
        </CharString>
        <CharString name="exclam">
          -725 723 -1 rmoveto
          12 114 21 226 3 39 -137 0 -217 10 -129 -3 rrcurveto
          -39 -388 rlineto
          173 0 288 -3 25 5 rrcurveto
          395 1638 rmoveto
          -209 hlineto
          -209 0 -268 -3 -80 0 -19 0 -13 -8 -1 -25 rrcurveto
          50 -1031 336 0 rlineto
          endchar
        </CharString>
        <CharString name="exclamdown">
          -725 572 1098 rmoveto
          -12 -114 -21 -226 -3 -39 137 0 217 -10 129 3 rrcurveto
          39 388 rlineto
          -173 0 -288 3 -25 -5 rrcurveto
          -395 -1638 rmoveto
          209 hlineto
          209 0 268 3 80 0 19 0 13 8 1 25 rrcurveto
          -50 1031 -336 0 rlineto
          endchar
        </CharString>
        <CharString name="f">
          -511 891 -4 rmoveto
          -85 callsubr
          endchar
        </CharString>
        <CharString name="five">
          -350 161 -45 rmoveto
          666 614 51 553 hvcurveto
          0 305 -237 63 -420 46 rrcurveto
          127 vlineto
          31 0 60 -2 70 0 183 0 255 16 4 121 rrcurveto
          7 208 -1129 -4 -39 -690 4 -46 rlineto
          215 315 -6 -129 hvcurveto
          0 -200 -597 11 0 -8 rrcurveto
          endchar
        </CharString>
        <CharString name="florin">
          -466 357 245 rmoveto
          -11 -176 -11 -152 -184 0 -27 0 -31 3 -35 7 rrcurveto
          -13 -201 rlineto
          112 -47 119 -27 115 0 289 0 258 169 24 443 rrcurveto
          27 483 340 0 30 234 -357 0 rlineto
          43 143 29 62 169 0 39 0 47 -4 56 -6 rrcurveto
          2 322 rlineto
          -98 13 -93 7 -86 0 -399 0 -258 -150 -38 -387 rrcurveto
          -209 0 -14 -227 rlineto
          27 -7 -25 -2 55 0 rrcurveto
          140 hlineto
          endchar
        </CharString>
        <CharString name="four">
          52 723 568 rmoveto
          290 464 -69 -464 rlineto
          949.514465332 -20.0712890625 rmoveto
          3.98068237305 28.7254943848 -37.3348846436 8.34579467773 -28.1602630615 0 -17 0 -15 -3 -149 -1 rrcurveto
          52.4421234131 826.971969604 rlineto
          1.64546203613 25.9478912354 -13.0885314941 10.2864227295 -31 0 rrcurveto
          -714.999069214 -3.20626831055 -862 -1163 rlineto
          -3.99446105957 -5.38928222656 -1.00553894043 -5.61071777344 0 -6 rrcurveto
          -20 20 -15 36 vhcurveto
          773 0 -29.364654541 -237.955001831 734.246109009 6.9635925293 17.1185455322 235.991394043 133 0 rlineto
          111 0 -29 8 10 31 rrcurveto
          endchar
        </CharString>
        <CharString name="fraction">
          -563 1238 1486 rmoveto
          27 63 36 70 -375 11 -328 -660 rlineto
          -192 -390 -174 -368 -188 -376 rrcurveto
          12 0 368 -18 33 59 rlineto
          endchar
        </CharString>
        <CharString name="g">
          -4 760 -554 rmoveto
          -84 callsubr
          -59 1050 rmoveto
          -83 callsubr
          endchar
        </CharString>
        <CharString name="gbreve">
          -4 950.084960938 1421 rmoveto
          -42 callsubr
          -190.084960938 -1975 rmoveto
          -84 callsubr
          -59 1050 rmoveto
          -83 callsubr
          endchar
        </CharString>
        <CharString name="gcircumflex">
          -4 780.724609375 1237 rmoveto
          -48 callsubr
          -20.724609375 -1788 rmoveto
          -84 callsubr
          -59 1050 rmoveto
          -83 callsubr
          endchar
        </CharString>
        <CharString name="gcommaaccent">
          -4 1144 1916 rmoveto
          -141 0 -228 -96 -16 -253 rrcurveto
          -21 -329 409 0 33 360 -139 0 rlineto
          14 75 35 70 98 13 rrcurveto
          16 153 rlineto
          -18 5 -20 2 -22 0 rrcurveto
          -384 -2470 rmoveto
          -84 callsubr
          -59 1050 rmoveto
          -83 callsubr
          endchar
        </CharString>
        <CharString name="gdotaccent">
          -4 742.973632812 1240 rmoveto
          -36 callsubr
          17.0263671875 -1798 rmoveto
          -84 callsubr
          -59 1050 rmoveto
          -83 callsubr
          endchar
        </CharString>
        <CharString name="germandbls">
          217 942 -112 rmoveto
          567 20 499 204 0 352 0 154 -150 148 -245 37 222 65 57 138 0 101 0 241 -305 127 -451 -11 -857 -20 -72 -333 -61 -774 rrcurveto
          -25 -315 46 -8 550 -40 28 283 79 701 rlineto
          17 148 185 33 79 0 101 0 62 -50 0 -62 0 -79 -103 -100 -252 -38 rrcurveto
          -189 vlineto
          194 -14 118 -89 0 -95 0 -92 -110 -99 -256 -43 rrcurveto
          endchar
        </CharString>
        <CharString name="grave">
          -1240 595 1251 rmoveto
          -93 callsubr
          endchar
        </CharString>
        <CharString name="greater">
          -853 1053 742 rmoveto
          -1 10 -4 9 -8 0 -133 64 -382.419326782 136.733566284 -280.580673218 106.266433716 -20.4193267822 7.73356628418 -15.5806732178 1.26643371582 -9 0 -9 0 -6.02346801758 -4.86756896973 -0.976531982422 -11.1324310303 -9.02346801758 -102.86756897 -5.97653198242 -118.13243103 -24 -100 0 -15 4 -7 8 -1 rrcurveto
          440 -162 rlineto
          -45 -24 -342 -171 -69 -36 -7 -3 -1 -3 0 -5 0 -4 1 -4 1 -4 52 -100 34 -107 39 -104 5 -13 5 -6 15 0 11 0 8 4 19 8 rrcurveto
          656 382 rlineto
          41.3535003662 24.0808563232 12.6464996338 4.91914367676 0 27 0 101.079177856 8 102.920822144 12 112 0 3 1 1 0 1 rrcurveto
          endchar
        </CharString>
        <CharString name="greaterequal">
          -716 737 -1 rmoveto
          52 0 80 1 67 0 rrcurveto
          140 0 2 241 -980 0 -12.9976959229 -239.417831421 rlineto
          1010.99768066 1060.41781616 rmoveto
          -133 34 -673 157 -150 46 rrcurveto
          -48 -341 620 -122 rlineto
          -45 -24 -522 -121 -49 -16 rrcurveto
          93.7205810547 -337.053192139 908.279418945 268.053192139 rlineto
          endchar
        </CharString>
        <CharString name="guillemotleft">
          128 956 825 rmoveto
          -7 0 -3 -10 -2 -9 0 -1 1 -1 0 -2 6 -90 0 -83 0 -80 rrcurveto
          -60 vlineto
          0 -28 8 -8 36 -21 rrcurveto
          540 -379 rlineto
          14.6421203613 -10.2765960693 8.35787963867 -1.72340393066 9 0 11 0 7 6 4 13 rrcurveto
          120.330718994 319.498825073 rlineto
          0 4.00001525879 -4.33071899414 5.50117492676 -4 3 -56 34 -284 171 -37 24 rrcurveto
          377 160 rlineto
          7 1 4 6 0 16 rrcurveto
          -22 319 rlineto
          -1 10 -5 5 -7 0 -8 0 -12 -3 -18 -4 -239 -109 -329 -133 -115 -64 rrcurveto
          -836 hmoveto
          -7 0 -3 -10 -2 -9 0 -1 1 -1 0 -2 5 -90 1 -83 0 -80 rrcurveto
          -60 vlineto
          0 -28 7 -8 37 -21 rrcurveto
          540 -379 rlineto
          14.6421203613 -10.2765960693 8.35787963867 -1.72340393066 9 0 12 0 7 6 4 13 rrcurveto
          119.299377441 319.514846802 rlineto
          0 4.00001525879 -4.29937744141 5.48515319824 -4 3 -56 34 -285 171 -35 24 rrcurveto
          376 160 rlineto
          7 1 4 6 0 16 rrcurveto
          -21 319 rlineto
          -0.669891357422 10.1760101318 -5.33010864258 4.82398986816 -7 0 -9 0 -13.9324645996 0.0647125244141 -16.0675354004 -7.06471252441 -241.030578613 -105.978424072 -326.969421387 -136.021575928 -115 -64 rrcurveto
          endchar
        </CharString>
        <CharString name="guillemotright">
          107 1022.1111908 842.019683838 rmoveto
          0.222564697266 10.0474090576 -4.33377075195 8.93290710449 -8 0 -133 64 -309.419326782 146.733566284 -280.580673218 106.266433716 -20.4193267822 7.73356628418 -15.5806732178 1.26643371582 -9 0 -9 0 -5 -5 -2 -11 rrcurveto
          -39 -321 rlineto
          -1.80912780762 -14.8905029297 5.80912780762 -7.10949707031 8 -1 rrcurveto
          380 -172 rlineto
          -45 -24 -282 -161 -69 -36 -7 -3 -1 -3 0 -5 0 -4 1 -4 1 -4 rrcurveto
          125 -311 rlineto
          5 -13 5 -6 15 0 11 0 8 4 19 8 rrcurveto
          596 372 rlineto
          40.5953674316 25.3380432129 13.4046325684 3.66195678711 0 27 rrcurveto
          930 291 rmoveto
          0 10.0498809814 -1.52870178223 31.8243103027 -10.4712982178 5.12580871582 -132.528701782 64.8741912842 -272.890625 137.859375 -280.580673218 106.266433716 -20.4193267822 7.73356628418 -15.5806732178 1.26643371582 -9 0 -9 0 -5 -5 -2 -11 rrcurveto
          -39 -321 rlineto
          -1.80912780762 -14.8905029297 5.80912780762 -7.10949707031 8 -1 rrcurveto
          330 -162 rlineto
          -45 -24 -222 -171 -69 -36 -7 -3 -1 -3 0 -5 0 -4 1 -4 1 -4 rrcurveto
          125 -311 rlineto
          5 -13 5 -6 15 0 11 0 8 4 19 8 rrcurveto
          556 392 rlineto
          39.2471160889 27.6706237793 14.7528839111 11.3293762207 0 27 rrcurveto
          endchar
        </CharString>
        <CharString name="guilsinglleft">
          -855 81 761 rmoveto
          -104 callsubr
          endchar
        </CharString>
        <CharString name="guilsinglright">
          -856 981 737 rmoveto
          -74 30 rlineto
          -122.640701294 62.7491912842 -353.16835022 132.361557007 -258.190948486 105.889251709 -21 6 -15 3 -9 0 -9 0 -5 -5 -2 -11 rrcurveto
          -27 -344 440 -162 rlineto
          -45 -24 -342 -171 -69 -36 -7 -3 -1 -3 0 -5 0 -4 1 -4 1 -4 rrcurveto
          150 -330 rlineto
          11 0 8 4 19 8 rrcurveto
          656 382 64 46 rlineto
          endchar
        </CharString>
        <CharString name="h">
          27 1794 1 rmoveto
          -82 callsubr
          endchar
        </CharString>
        <CharString name="hbar">
          27 77.1533203125 1297.18457031 rmoveto
          -37 callsubr
          702.571289062 -1306.421875 rmoveto
          -82 callsubr
          endchar
        </CharString>
        <CharString name="hcircumflex">
          27 831.497070312 1644 rmoveto
          -59 callsubr
          962.502929688 -1640 rmoveto
          -82 callsubr
          endchar
        </CharString>
        <CharString name="hungarumlaut">
          -812 226 1159 rmoveto
          -27 callsubr
          535 -88 rmoveto
          -26 callsubr
          endchar
        </CharString>
        <CharString name="hyphen">
          -643 142 887 rmoveto
          -63 -361 154 0 rlineto
          131 0 468 6 310 6 11 50 25 265 0 28 rrcurveto
          34 vlineto
          -270 -8 -499 -10 -267 -10 rrcurveto
          endchar
        </CharString>
        <CharString name="i">
          -960 683 1026 rmoveto
          -81 callsubr
          161 352 rmoveto
          -80 callsubr
          endchar
        </CharString>
        <CharString name="iacute">
          -960 484.018554688 1234 rmoveto
          -72 callsubr
          -279.018554688 -214 rmoveto
          -49 callsubr
          endchar
        </CharString>
        <CharString name="ibreve">
          -960 482.463867188 1421 rmoveto
          -42 callsubr
          -277.463867188 -401 rmoveto
          -49 callsubr
          endchar
        </CharString>
        <CharString name="icircumflex">
          -960 313.103515625 1237 rmoveto
          -48 callsubr
          -108.103515625 -214 rmoveto
          -49 callsubr
          endchar
        </CharString>
        <CharString name="idieresis">
          -960 991.643554688 1234 rmoveto
          -74 callsubr
          -632.111328125 6.00390625 rmoveto
          -54 callsubr
          212.356445312 -571 rmoveto
          -49 callsubr
          endchar
        </CharString>
        <CharString name="igrave">
          -960 624.64453125 1289 rmoveto
          -93 callsubr
          -294.64453125 -224 rmoveto
          -49 callsubr
          endchar
        </CharString>
        <CharString name="ij">
          127 881 -438 rmoveto
          -79 callsubr
          1089 1848 rmoveto
          -78 callsubr
          -1287 -384 rmoveto
          -81 callsubr
          161 352 rmoveto
          -80 callsubr
          endchar
        </CharString>
        <CharString name="imacron">
          -960 64.0537109375 1539 rmoveto
          -33 callsubr
          -722.053710938 -537 rmoveto
          -49 callsubr
          endchar
        </CharString>
        <CharString name="infinity">
          97 1137 771 rmoveto
          119 86 76 59 82 0 rrcurveto
          94 45 -72 -73 -73 -47 -73 -92 hvcurveto
          -82 0 -79 59 -116 87 rrcurveto
          -136 -222 rmoveto
          142 -142 188 -78 169 0 rrcurveto
          222 187 135 306 307 -187 136 -222 hvcurveto
          -169 0 -188 -79 -142 -142 -142 142 -189 79 -169 0 rrcurveto
          -222 -187 -136 -306 -307 187 -135 222 hvcurveto
          169 0 189 78 142 142 rrcurveto
          -137 222 rmoveto
          -116 -87 -79 -59 -82 0 rrcurveto
          -92 -47 73 73 73 45 72 94 hvcurveto
          82 0 76 -59 119 -86 rrcurveto
          endchar
        </CharString>
        <CharString name="integral">
          -576 359 245 rmoveto
          -14 -174 -38 -91 -160 0 -26 0 -29 2 -32 5 rrcurveto
          -13 -251 rlineto
          110 -36 109 -19 103 0 315 0 258 176 22 407 rrcurveto
          40 717 rlineto
          9 161 26 43 115 0 33 0 41 -4 49 -5 rrcurveto
          2 322 rlineto
          -93 12 -87 7 -80 0 -357 0 -214 -138 -31 -398 rrcurveto
          endchar
        </CharString>
        <CharString name="iogonek">
          -960 220 -350 rmoveto
          -41 callsubr
          463 1376 rmoveto
          -81 callsubr
          161 352 rmoveto
          -80 callsubr
          endchar
        </CharString>
        <CharString name="itilde">
          -960 602.051757812 1598 rmoveto
          -34 callsubr
          -397.051757812 -578 rmoveto
          -49 callsubr
          endchar
        </CharString>
        <CharString name="j">
          -817 -63 -438 rmoveto
          -79 callsubr
          1089 1848 rmoveto
          -78 callsubr
          endchar
        </CharString>
        <CharString name="jcircumflex">
          -817 493.567382812 1237 rmoveto
          -52 callsubr
          -556.567382812 -1672 rmoveto
          -32 callsubr
          endchar
        </CharString>
        <CharString name="k">
          -136 1156 -28 rmoveto
          -77 callsubr
          endchar
        </CharString>
        <CharString name="kcommaaccent">
          -136 749.672851562 -869 rmoveto
          -107 callsubr
          406.327148438 841 rmoveto
          -77 callsubr
          endchar
        </CharString>
        <CharString name="kgreenlandic">
          -136 1146 -18 rmoveto
          616 25 rlineto
          -149 145 -170 166 -180 191 157.498504639 154.168167114 147.420578003 164.246078491 152.080917358 159.585754395 -39 1 -40 1 -42 0 rrcurveto
          -552 -11 rlineto
          -103.963439941 -112.369888306 -102.603546143 -113.729797363 -102.433013916 -113.900314331 rrcurveto
          14.9769592285 351.958435059 -416.976959229 5.04156494141 -171 0 -34.5709533691 -1006.01473999 582.570953369 9.01473999023 5 243 115 90 rlineto
          endchar
        </CharString>
        <CharString name="l">
          -1012 146 -17 rmoveto
          583.761352539 16.0087432861 rlineto
          19.4758148193 488.267501831 13.3248138428 494.418487549 23.4380187988 484.305282593 -191 -10 -312 -13 -88 -5 0 -2 -12 -341 -7 -167 rrcurveto
          endchar
        </CharString>
        <CharString name="lacute">
          -1012 487.131835938 1630 rmoveto
          -72 callsubr
          -341.131835938 -1647 rmoveto
          -29 callsubr
          endchar
        </CharString>
        <CharString name="lcaron">
          -1012 1073.76269531 788 rmoveto
          -107 callsubr
          -927.762695312 -805 rmoveto
          -29 callsubr
          endchar
        </CharString>
        <CharString name="lcommaaccent">
          -1012 262.048828125 -858 rmoveto
          -107 callsubr
          -116.048828125 841 rmoveto
          -29 callsubr
          endchar
        </CharString>
        <CharString name="ldot">
          -451 1048 811 rmoveto
          -40 callsubr
          -902 -832 rmoveto
          -29 callsubr
          endchar
        </CharString>
        <CharString name="less">
          -828 128 761 rmoveto
          -104 callsubr
          endchar
        </CharString>
        <CharString name="lessequal">
          -715 744 -1 rmoveto
          52 0 80 1 67 0 rrcurveto
          140 0 2 241 -987 0 -5.99769592285 -239.417831421 rlineto
          8.99768066406 1060.41781616 rmoveto
          -2 -456 908.279418945 -268.053192139 93.7205810547 337.053192139 rlineto
          -49 16 -533 133 -34 12 rrcurveto
          620 122 -48 341 rlineto
          0 -1 -823 -202 -133 -34 rrcurveto
          endchar
        </CharString>
        <CharString name="logicalnot">
          -688 603 374 rmoveto
          129 0 -18.6475830078 -280.957015991 23.6475830078 -3.04298400879 285 -7 rlineto
          2 30 21 369 0 57 rrcurveto
          6 202 -87 0 rlineto
          -42 0 -150 -1 -166 -4 rrcurveto
          -466 -4 -27 -365 171 0 rlineto
          endchar
        </CharString>
        <CharString name="lozenge">
          -828 379 1565 rmoveto
          -75 -199 -192 -476 -40 -108 38 -104 196 -485 73 -195 rrcurveto
          313 hlineto
          95 236 138 312 79 238 -86 233 -131 315 -95 235 -70 -2 -172 0 -71 0 rrcurveto
          -9 -783 rmoveto
          185 501 172 -499 -172 -502 rlineto
          endchar
        </CharString>
        <CharString name="lslash">
          -1012 767.726669312 1035.28933716 rmoveto
          11.2733306885 307.710662842 7 123 rlineto
          -191 -10 -312 -13 -88 -5 0 -2 -12 -341 -7 -167 rrcurveto
          -1.9059753418 -60.0383148193 rlineto
          -75.13230896 -21.1842651367 -62.4765167236 -17.6234283447 -39.4851989746 -11.154006958 rrcurveto
          21 -361 rlineto
          33.0691986084 9.5493927002 50.425491333 14.6781005859 60.8855285645 17.7495422363 rrcurveto
          -16.3802185059 -515.977035522 583.761352539 16.0087432861 24.6228942871 672.092926025 rlineto
          128.295959473 36.9617004395 97.2913665771 27.530960083 17.028427124 3.4056854248 2 44 -16 266 0 47 -44.8320007324 -12.6584472656 -77.4495239258 -21.8386383057 -92.9918060303 -26.2135772705 rrcurveto
          endchar
        </CharString>
        <CharString name="m">
          918 742 -9 rmoveto
          0 122 -2 119 0 71 rrcurveto
          39 vlineto
          0 222 5 193 192 12 127 8 60 -60 0 -188 0 -7 -10 -288 0 -162 rrcurveto
          0 -81 597 18 0 314 rlineto
          0 394 98 23 84 7 148 12 49 -106 0 -154 rrcurveto
          -510 vlineto
          73 0 407 12 115 -2 10 364 8 103 0 74 0 314 -200 216 -374 0 -198 0 -206 -56 -132 -163 -106 148 -121 71 -228 0 -211 0 -206 -61 -126 -186 rrcurveto
          -107 206 -325 -41 rlineto
          -1 -27 -15 -639 -10 -229 rrcurveto
          -6 -104 rlineto
          endchar
        </CharString>
        <CharString name="macron">
          -515 269 890 rmoveto
          -12 -306 127 2 rlineto
          107.986618042 1.70057678223 368.013381958 6.29942321777 256 8 rrcurveto
          2 34 rlineto
          3 51 9 144 2 77 rrcurveto
          endchar
        </CharString>
        <CharString name="minus">
          -839 954 517 rmoveto
          9 96 rlineto
          3 35 7 74 0 17 rrcurveto
          -48 hlineto
          -17 0 -273 -6 -48 0 rrcurveto
          -472 0 -23 -216 rlineto
          endchar
        </CharString>
        <CharString name="mu">
          -627 678 -420 rmoveto
          -2 15 3 0 0 0 rrcurveto
          15 368 rlineto
          17 -1 17 0 18 0 207 0 220 71 137 157 rrcurveto
          96 -207 rlineto
          163 22 78 12 74 13 rrcurveto
          49 888 rlineto
          0 38 0 36 -1 39 -282 -16 -145 -8 -142 -10 rrcurveto
          -429 -8 -323 -270 -143 -59 116 146 vhcurveto
          0 11 15 332 9 173 -43 4 -47 4 -56 0 -146 0 -229 -30 -82 -14 -5 -165 -15 -111 -2 -233 rrcurveto
          -6 vlineto
          -1 -19 0 -23 0 -23 0 -8 1 -9 -1 -856 rrcurveto
          endchar
        </CharString>
        <CharString name="multiply">
          -774 751 249 rmoveto
          222 233 -205 213 rlineto
          73.2889099121 70.7110900879 72.4676361084 71.5323638916 71.2434539795 72.7565460205 rrcurveto
          -210 218 -214 -225 -207 237 -238 -207 rlineto
          79.8702697754 -83.1297302246 83.5254669189 -79.4745330811 77.6042633057 -85.3957366943 rrcurveto
          -226 -239 193 -219 224 234 rlineto
          endchar
        </CharString>
        <CharString name="n">
          21 999 709 rmoveto
          118 82 -104 -136 hvcurveto
          -6 -476 596 4 rlineto
          10 364 8 105 0 74 0 48 -1.77516174316 50.2804107666 -11.2248382568 46.7195892334 -62.7751617432 261.280410767 -236.224838257 123.719589233 -312 0 -211 0 -245 -61 -126 -186 rrcurveto
          -107 206 -335 -71 rlineto
          -1 -32 -26 -836 -1 -100 rrcurveto
          597 10 rlineto
          0 5 232 71 207 41 199 225 hvcurveto
          endchar
        </CharString>
        <CharString name="nacute">
          21 991.71875 1234 rmoveto
          -72 callsubr
          7.28125 -525 rmoveto
          -47 callsubr
          endchar
        </CharString>
        <CharString name="ncaron">
          21 1191.20996094 1822 rmoveto
          -28 callsubr
          -192.209960938 -1116 rmoveto
          -47 callsubr
          endchar
        </CharString>
        <CharString name="ncommaaccent">
          21 776.703125 -851 rmoveto
          -107 callsubr
          222.296875 1560 rmoveto
          -47 callsubr
          endchar
        </CharString>
        <CharString name="nine">
          120 1021 1166 rmoveto
          134 44 -94 -132 -128 -38 -150 -150 -133 -45 85 151 149 41 119 147 hvcurveto
          196 -1291 rmoveto
          511 591 rlineto
          136 157 51 120 0 147 rrcurveto
          173 -147 418 -686 -622 -309 -226 -370 -190 169 -273 441 vhcurveto
          49 0 22 4 57 7 -80 -115 -158 -183 -95 -113 28 -15 583 -121 50 -11 rrcurveto
          endchar
        </CharString>
        <CharString name="notequal">
          -768 403 76 rmoveto
          97 211 41 0 rlineto
          122 0 262 0 106 3 rrcurveto
          -2 256 -412 -4 105 227 rlineto
          109 1 112 2 90 2 rrcurveto
          11 253 -204 0 139 303 -234 11 -149 -315.899917603 -486.585906982 0 -16.4140777588 -260.100082397 381 0 -106 -223 -267 0 -6 -254 154 0 -118 -253 240 -18 rlineto
          endchar
        </CharString>
        <CharString name="ntilde">
          21 1109.75097656 1598 rmoveto
          -65 callsubr
          -110.750976562 -889 rmoveto
          -47 callsubr
          endchar
        </CharString>
        <CharString name="numbersign">
          102 878 705 rmoveto
          22 135 241 -1 -23 -134 rlineto
          -1024 10 rmoveto
          -32 -260 268 0 -61 -443 492 -9 72 450 246 -2 -56 -444 504 -9 59 447 291 0 33 267 -278 0 22 130 258 0 36 246 rlineto
          -252 0 55 359 -517 -11 -51 -349 -242 2 45 353 -505 -5 -52 -343 -300 3 -30 -257 286 -3 -16 -122 rlineto
          endchar
        </CharString>
        <CharString name="o">
          -103 1146 522 rmoveto
          -162 -75.9729003906 -124 -166.027099609 -162 -74 96 168 131 67 142 164 160 87 -110 -141 vhcurveto
          -1032 -30 rmoveto
          -76 callsubr
          endchar
        </CharString>
        <CharString name="oacute">
          -103 917.123046875 1234 rmoveto
          -72 callsubr
          228.876953125 -712 rmoveto
          -46 callsubr
          -1032 -30 rmoveto
          -76 callsubr
          endchar
        </CharString>
        <CharString name="obreve">
          -103 915.568359375 1421 rmoveto
          -42 callsubr
          230.431640625 -899 rmoveto
          -46 callsubr
          -1032 -30 rmoveto
          -76 callsubr
          endchar
        </CharString>
        <CharString name="ocircumflex">
          -103 746.208007812 1237 rmoveto
          -59 callsubr
          399.791992188 -712 rmoveto
          -46 callsubr
          -1032 -30 rmoveto
          -76 callsubr
          endchar
        </CharString>
        <CharString name="odieresis">
          -103 1424.74804688 1234 rmoveto
          -74 callsubr
          -632.112304688 6.00390625 rmoveto
          -64 callsubr
          720.251953125 -1069 rmoveto
          -46 callsubr
          -1032 -30 rmoveto
          -76 callsubr
          endchar
        </CharString>
        <CharString name="oe">
          761 1146 519 rmoveto
          -11 -164 -59.9736938477 -119 -171.026306152 0 rrcurveto
          -162 -74 96 168 131 67 142 164 160 87 -110 -141 hvcurveto
          755 -560 rmoveto
          256 -1 233 58 80 61 rrcurveto
          19 254 -54 0 rlineto
          -145 -60 -134 -27 -113 0 -184 1 -130 73 -32 121 rrcurveto
          811 -4 10.6846160889 146.023071289 rlineto
          13.0000152588 354.18182373 -353.684616089 131.740997314 -272 1.05410766602 -159 1.18939208984 -203 -64.2272644043 -110 -93.9621276855 -108 96 -189 60 -192 0 rrcurveto
          -486 -345 -156 -422 -439 407 -90 367 hvcurveto
          173 0 214 28 134 105 111 -89 209 -44 172 -1 rrcurveto
          -184 662 rmoveto
          15 92.0705871582 63 80.9411773682 119 -1.01176452637 98 -1 64 -40 2 -131 rrcurveto
          endchar
        </CharString>
        <CharString name="ogonek">
          -1360 50 -386 rmoveto
          -41 callsubr
          endchar
        </CharString>
        <CharString name="ograve">
          -103 1057.74804688 1289 rmoveto
          -93 callsubr
          213.251953125 -722 rmoveto
          -46 callsubr
          -1032 -30 rmoveto
          -76 callsubr
          endchar
        </CharString>
        <CharString name="ohungarumlaut">
          -103 719.685546875 1239 rmoveto
          -27 callsubr
          535 -88 rmoveto
          -26 callsubr
          141.314453125 -811 rmoveto
          -46 callsubr
          -1032 -30 rmoveto
          -76 callsubr
          endchar
        </CharString>
        <CharString name="omacron">
          -103 497.158203125 1539 rmoveto
          -43 callsubr
          -214.158203125 -1035 rmoveto
          -46 callsubr
          -1032 -30 rmoveto
          -76 callsubr
          endchar
        </CharString>
        <CharString name="one">
          -611 332 -25 rmoveto
          83 0 594 18 rlineto
          36.5931243896 469.073547363 71.4068756104 472.142608643 0 467.783843994 0 14 -2 7 -10 1 rrcurveto
          3 vlineto
          7 -4 2 -6 vhcurveto
          1 1 0 1 0 0 rrcurveto
          -964 -132 34 -300 271 45 rlineto
          -28 -251 -68 -782 -9 -43 rrcurveto
          endchar
        </CharString>
        <CharString name="onehalf">
          454 2179 624 rmoveto
          -73 callsubr
          -1715 -529 rmoveto
          -4 -7 -2 -6 0 -5 0 -33 98 -19 25 -7 rrcurveto
          127 -40 rlineto
          11.5249176025 -3.62989807129 11.4750823975 -3.37010192871 10 0 26 0 -4 19 14 23 rrcurveto
          807.32182312 1349.20906067 rlineto
          -1.52587890625e-05 6.99998474121 -10.3218231201 3.79093933105 -10 2 -89 13 -87 39 -91 27 rrcurveto
          -8 hlineto
          -24 0 -7 -12 -21 -37 -101 -174 -90 -166 -102 -168 -207 -339 -118 -216 -155 -247 rrcurveto
          -296 478 rmoveto
          -1 2 -1 2 0 3 rrcurveto
          -12 vlineto
          1 0 0 2 1 3 rrcurveto
          0 vmoveto
          8 -16 19 -6 23 0 rrcurveto
          355 11 64.2682037354 844.055725098 rlineto
          0.683319091797 8.97401428223 -0.951507568359 3.97026062012 -6 1 rrcurveto
          1 vlineto
          5 -2.11582946777 1.84748840332 -4 vhcurveto
          -576.884170532 -78.8474884033 20 -180 163 27 rlineto
          -17 -150 -41 -447 -5 -26 rrcurveto
          endchar
        </CharString>
        <CharString name="onequarter">
          421 1516 391 rmoveto
          -69 callsubr
          522 11 rmoveto
          -68 callsubr
          -1297 708 rmoveto
          -67 callsubr
          -371 -335 rmoveto
          64.2682037354 844.055725098 rlineto
          0.683319091797 8.97401428223 -0.951507568359 3.97026062012 -6 1 rrcurveto
          1 vlineto
          5 -2.11582946777 1.84748840332 -4 vhcurveto
          -576.884170532 -78.8474884033 20 -180 163 27 rlineto
          -17 -150 -41 -447 -5 -26 -1 2 -1 2 0 3 rrcurveto
          -12 vlineto
          1 0 0 2 1 3 8 -16 19 -6 23 0 rrcurveto
          endchar
        </CharString>
        <CharString name="ordfeminine">
          -600 544 570 rmoveto
          160 0 101 84 49 102 rrcurveto
          40 -160 243 23 2 829 -292 30 -2 -173 rlineto
          -76 122 -91 34 -144 0 rrcurveto
          -211 -188 -163 -311 -294 215 -123 194 hvcurveto
          110 245 rmoveto
          -73 -67 51 121 109 51 93 93 91 51 -79 -103 -123 -50.9526367188 -69 -95.0473632812 hvcurveto
          endchar
        </CharString>
        <CharString name="ordmasculine">
          -875 609 1245 rmoveto
          87 86 -75 -139 -170 -89 -77 -88 -88 -87 76 134 172 90 79 89 hvcurveto
          461 -207 rmoveto
          220 -128 223 -315 -349 -148 -240 -265 -223 151 -207 294 272 223 180 312 vhcurveto
          endchar
        </CharString>
        <CharString name="oslash">
          -103 1375 1199 rmoveto
          -1 1 -124 53 -4 0 rrcurveto
          -798 -1427 114 -76 rlineto
          584 772 rmoveto
          -46 callsubr
          -1032 -30 rmoveto
          -76 callsubr
          endchar
        </CharString>
        <CharString name="otilde">
          -103 1035.15625 1598 rmoveto
          -65 callsubr
          110.84375 -1076 rmoveto
          -46 callsubr
          -1032 -30 rmoveto
          -76 callsubr
          endchar
        </CharString>
        <CharString name="p">
          1205 509 rmoveto
          -90 callsubr
          -510 -820 rmoveto
          0 159 14 184 0 33 rrcurveto
          7 vlineto
          100 -64 153 -45 159 0 rrcurveto
          362 324 238 359 292 -265 218 -346 hvcurveto
          -236 0 -225 -57 -131 -159 rrcurveto
          -108 199 -232 -35 rlineto
          -32.6906280518 -4.9317779541 -25.3093719482 -2.0682220459 -23 -17 rrcurveto
          -50 -1226 rlineto
          -1.71147155762 -41.9651184082 3.71147155762 -42.0348815918 1 -37 rrcurveto
          10 hlineto
          86 0 254 21 209 21 rrcurveto
          endchar
        </CharString>
        <CharString name="paragraph">
          -418 800 -62 rmoveto
          10 367 16 868 117 -7 -43 -1241 348 4 rlineto
          3 86 7 151 2 130 rrcurveto
          9 241 rlineto
          7.88690185547 211.193740845 -1.88690185547 291.806259155 8 127 77 -4 71 -2 25 0 rrcurveto
          -5 251 rlineto
          -95 8 -420 21 -213 5 rrcurveto
          -28 hlineto
          -298 -320 -89 -272 hvcurveto
          0 -14 1 -15 2 -15 20 -176 150 -126 223 -70 rrcurveto
          -22.2718963623 -739.021942139 rlineto
          endchar
        </CharString>
        <CharString name="parenleft">
          -951 818 132 rmoveto
          -136 27 -58 198 0 220 0 289 100 329 150 31 rrcurveto
          2 308 rlineto
          -556 -22 -228 -408 0 -479 rrcurveto
          -659 530 -141 196 vhcurveto
          endchar
        </CharString>
        <CharString name="parenright">
          -949 157 -180 rmoveto
          509.446624756 242.553375244 483.862457275 402.137542725 hvcurveto
          0 440.02986145 -258.311447144 373.064163208 -445.688552856 14.9059753418 -8 -34 -32 -107 0 -172 161.182601929 -23.0260925293 108.817398071 -307.60899353 0 -201.36491394 0 -253 -89 -263 -189 -27 -9 -33 -2 -37 0 -65 0 -49 0 -112 11 -30 rrcurveto
          endchar
        </CharString>
        <CharString name="percent">
          825 2176 -49 rmoveto
          326 185 199 242 216 -160 213 -337 -344 -171 -211 -232 -231 185 -196 316 hvcurveto
          17 629 rmoveto
          115 52 -88 -111 -113 -50 -90 -127 -120 -48 84 113 116 53 89 125 hvcurveto
          -1346 -432 rmoveto
          212 -74 123 -75 35 0 rrcurveto
          815.007705688 1357.59570312 -427.007705688 174.404296875 rlineto
          -253 -454 -261 -495 -244 -434 rrcurveto
          -244 415 rmoveto
          329 187 207 252 226 -162 219 -339 -351 -172 -217 -244 -239 186 -204 322 hvcurveto
          11 662 rmoveto
          122 58 -93 -115 -118 -54 -93 -134 -131 -48 86 118 122 55 93 132 hvcurveto
          endchar
        </CharString>
        <CharString name="period">
          -1176 558 348 rmoveto
          -106 callsubr
          endchar
        </CharString>
        <CharString name="periodcentered">
          -1343 156 811 rmoveto
          -71 callsubr
          endchar
        </CharString>
        <CharString name="perthousand">
          1145 2443 384 rmoveto
          -7 callsubr
          -256 -20 rmoveto
          -6 callsubr
          -671 20 rmoveto
          -7 callsubr
          -256 -20 rmoveto
          -6 callsubr
          -955 783 rmoveto
          -7 callsubr
          -256 -20 rmoveto
          -6 callsubr
          905 -263 rmoveto
          -159.500106812 -194.409576416 -126.499893188 -162.590423584 -158 -179 0 -16 -1 -10 11 -7 13 -13 21 -4 152 -125 15 -3 7 -2 7 0 12 0 -3 6 11 13 rrcurveto
          788 955 rlineto
          2 2 1 2 0 3 0 11 -22 9 -11 4 -64 39 -61 47 -65 52 -1 1 -3 0 -5 0 -13 0 -5 -9 -16 -20 -108 -133 -112.500106812 -137.409576416 -105.499893188 -128.590423584 rrcurveto
          endchar
        </CharString>
        <CharString name="plus">
          -831 69 450 rmoveto
          314 0 -16.9053955078 -329.004867554 rlineto
          87 -1.52587890625e-05 153.429946899 -0.970260620117 82 0 rrcurveto
          17.4754486084 333.975128174 315 0 11 115 rlineto
          7.16413879395 74.8977661133 5.83586120605 71.1022338867 2 41 rrcurveto
          -310 hlineto
          4 78 8 128 7 127 rrcurveto
          -320 0 -17.1906738281 -335 -313.809326172 0 rlineto
          -11 -86 -21 -148 -4 -70 rrcurveto
          endchar
        </CharString>
        <CharString name="plusminus">
          -859 782.98979187 13 rmoveto
          212.01020813 0 10 216 -890 -6 -25.8767700195 -216.014755249 rlineto
          922.87677002 962.014770508 rmoveto
          -22 0 -154 -1 -91 -5 rrcurveto
          0 19 269 9 hvcurveto
          -28 0 -95 -3 rlineto
          -48.9755859375 -1.5466003418 -104.024414062 -1.4533996582 -16 0 rrcurveto
          -20.5610046387 -277.032577515 -269.934066772 -3.02113342285 -31.4727020264 -295.843322754 rlineto
          31 -1.52587890625e-05 173.967773438 -0.102951049805 68 1 rrcurveto
          -24.4611206055 -262.957107544 rlineto
          59 -1.52587890625e-05 153.461120605 -4.04289245605 45 0 rrcurveto
          52 0 13 272 273 3 rlineto
          endchar
        </CharString>
        <CharString name="product">
          257 2089 1454 rmoveto
          -436 0 -248 -1 -584 0 -113 0 -479 -17 -75 -12 rrcurveto
          -12 -14 -4 -60 rlineto
          -17 -166 -7 -110 -6 -108 rrcurveto
          -21.0117492676 -563.999557495 rlineto
          -5.25259399414 -140.99079895 -3.73565673828 -158.009628296 0 -120 rrcurveto
          130.042770386 -6.92395019531 559.957229614 25.9239501953 64 940 534 0 rlineto
          -9 -115 -43 -611 0 -115 rrcurveto
          -152 vlineto
          75 0 122 10 86 7 rrcurveto
          435 36 rlineto
          17 696 4 -21 0 40 0 75 37 642 -1 20 rrcurveto
          endchar
        </CharString>
        <CharString name="q">
          9 918 241 rmoveto
          -137 -74 91 132 160 105 136 139 hvcurveto
          110.048583984 0 72.9514160156 -26.729019165 60 -34.270980835 -1.10345458984 -186.81590271 -2.34481811523 -106.53137207 -4.55172729492 -75.6527252197 -63.9266052246 -50 -97.1192626953 -39 -106.95413208 0 rrcurveto
          253 -595 rmoveto
          55 0 55 5 52 2 0 0 227.89074707 38.0654449463 22.1092529297 1.93455505371 57.8907470703 5.06544494629 48.1092529297 1.93455505371 44 5 rrcurveto
          118 vlineto
          18 362 9 357 18 361 1 24 4 26 3 23 -22 3 -20 3 -21 4 rrcurveto
          -55 9 -87 -87 rlineto
          -265 115 -229 47 -193 0 rrcurveto
          -517 -258 -309 -280 -334 293 -184 340 hvcurveto
          159 0 157 47 107 64 -4 -73 -6 -138 0 -101 0 -54 2 -43 4 -19 rrcurveto
          endchar
        </CharString>
        <CharString name="question">
          -373 659 -49 rmoveto
          129 0 49 2 113 1 rrcurveto
          60 0 -2 322 rlineto
          -134 0 -65 -2 -159 0 rrcurveto
          -2 -312 rlineto
          -11 0 0 11 vhcurveto
          314 1042 rmoveto
          0 -105 -68 -142 -316 -133 rrcurveto
          109 -210 rlineto
          443 57 322 259 0 295 rrcurveto
          297 -239 171 -341 -250 -404 -95 -375 vhcurveto
          0 -42 21 -68 24 -36 68 15 262 55 75 18 0 9 -17 32 0 35 rrcurveto
          71 77 38 77 101 56 -60 -86 vhcurveto
          endchar
        </CharString>
        <CharString name="questiondown">
          -548 879 1446 rmoveto
          -129 0 -49 -2 -113 -1 rrcurveto
          -60 0 2 -322 rlineto
          134 0 65 2 159 0 rrcurveto
          2 312 rlineto
          11 0 0 -11 vhcurveto
          -314 -1042 rmoveto
          0 105 68 142 316 133 rrcurveto
          -109 210 rlineto
          -443 -57 -322 -259 0 -295 rrcurveto
          -297 239 -171 341 250 404 95 375 vhcurveto
          0 42 -21 68 -24 36 -68 -15 -262 -55 -75 -18 0 -9 17 -32 0 -35 rrcurveto
          -71 -77 -38 -77 -101 -56 60 86 vhcurveto
          endchar
        </CharString>
        <CharString name="quotedbl">
          -705 717 785 rmoveto
          -14 1 -50 20 vhcurveto
          80 0 64 2 72 0 25 0 2 17 9 43 rrcurveto
          133 637 2 30 rlineto
          -134 0 -168 -2 -140 0 rrcurveto
          8 -61 rlineto
          9 -201 8 -213 9 -188 rrcurveto
          -603 hmoveto
          -14 1 -50 20 vhcurveto
          80 0 64 2 72 0 25 0 0 17 11 43 rrcurveto
          156 637 3 30 rlineto
          -140 0 -175 -2 -146 0 rrcurveto
          3 -61 rlineto
          9 -201 8 -213 9 -188 rrcurveto
          endchar
        </CharString>
        <CharString name="quotedblbase">
          -701 130 -331 rmoveto
          -107 callsubr
          595 hmoveto
          -107 callsubr
          endchar
        </CharString>
        <CharString name="quotedblleft">
          -693 462 1576 rmoveto
          -10 callsubr
          600 hmoveto
          -10 callsubr
          endchar
        </CharString>
        <CharString name="quotedblright">
          -693 750 898 rmoveto
          -9 callsubr
          -600 hmoveto
          -9 callsubr
          endchar
        </CharString>
        <CharString name="quoteleft">
          -1293 462 1592 rmoveto
          -10 callsubr
          endchar
        </CharString>
        <CharString name="quoteright">
          -1293 150 914 rmoveto
          -9 callsubr
          endchar
        </CharString>
        <CharString name="quotesinglbase">
          -1283 157 -331 rmoveto
          141 0 222 96 3 253 rrcurveto
          4 329 -429 0 6 -360 139 0 rlineto
          -10 -75 -32 -70 -97 -13 rrcurveto
          -8 -153 rlineto
          18 -5 21 -2 22 0 rrcurveto
          endchar
        </CharString>
        <CharString name="quotesingle">
          -1278 200 784 rmoveto
          -14 1 -50 20 vhcurveto
          80 0 64 2 72 0 25 0 0 17 11 43 rrcurveto
          157.386245728 642.660507202 rlineto
          -1.52587890625e-05 18.9999847412 -10.3862457275 5.33949279785 -12 0 -123 0 -154 -2 -128 0 rrcurveto
          -23.3452301025 -5.65476989746 -13 -35 hvcurveto
          -13 vlineto
          9 -201 8 -213 9 -188 rrcurveto
          endchar
        </CharString>
        <CharString name="r">
          -641 249 -9 rmoveto
          433 21 42 637 rlineto
          1 0 60 69 133 0 56 0 69 -12 82 -34 rrcurveto
          105 290 rlineto
          -35 46 -130 54 -110 0 -106 0 -134 -63 -141 -182 rrcurveto
          -116 201 -277 -59 -37 -897 rlineto
          -1.03033447266 -24.9787597656 4.03033447266 -25.0212402344 3 -23 rrcurveto
          endchar
        </CharString>
        <CharString name="racute">
          -641 703.448242188 1234 rmoveto
          -72 callsubr
          -454.448242188 -1243 rmoveto
          -24 callsubr
          endchar
        </CharString>
        <CharString name="rcaron">
          -641 902.940429688 1822 rmoveto
          -38 callsubr
          -653.940429688 -1834 rmoveto
          -24 callsubr
          endchar
        </CharString>
        <CharString name="rcommaaccent">
          -641 488.407226562 -852 rmoveto
          -107 callsubr
          -239.407226562 843 rmoveto
          -24 callsubr
          endchar
        </CharString>
        <CharString name="registered">
          167 984 747 rmoveto
          16 244 rlineto
          20 3 17 3 26 0 76 0 40 -33 3 -67 3 -58 -108 -92 -93 0 rrcurveto
          260 -504 rmoveto
          81 35 77 30 81 38 -187 261 -65 79 0 3 102 18 111 64 -6 138 -8 173 -181 59 -184 0 -133 0 -107 -15 -90 -16 -2 -57 -7 -108 0 -1 rrcurveto
          -11 -230 -19 -351 3 -74 rrcurveto
          272 8 8 361 rlineto
          4 -579 rmoveto
          -359 0 -227 267 -13 306 -17 376 325 249 393 0 343 0 251 -243 13 -304 17 -391 -319 -260 -407 0 rrcurveto
          -23 -163 rmoveto
          544 0 427 336 -22 505 -18 393 -335 314 -458 0 -525 0 -436 -322 22 -487 18 -394 306 -345 477 0 rrcurveto
          endchar
        </CharString>
        <CharString name="ring">
          -1194 457 1478 rmoveto
          -70 -39 -70 -84 -71.0633544922 -17.9366455078 67 51 66 39 72 89 64 20 -67 -49 vhcurveto
          -105 -286 rmoveto
          -62 callsubr
          endchar
        </CharString>
        <CharString name="s">
          -339 748 -37 rmoveto
          568 131 141 211 hvcurveto
          0 318 -362 24 -300 39 -72 9 -42 7 0 32 0 25 52 9 74 0 176 0 260 -31 82 -20 rrcurveto
          48 280 rlineto
          -143 36 -164 27 -200 0 -194 0 -537 -30 0 -318 0 -288 357.076461792 -9.62574768066 307.923538208 -62.3742523193 82.076461792 -16.6257476807 40.923538208 -7.37425231934 0 -38 0 -17 -63 -15 -114 0 -125 0 -185 17 -234 49 rrcurveto
          -66 -277 rlineto
          132 -73 312 -21 178 0 rrcurveto
          endchar
        </CharString>
        <CharString name="sacute">
          -339 802.385742188 1234 rmoveto
          -72 callsubr
          -54.3857421875 -1271 rmoveto
          -22 callsubr
          endchar
        </CharString>
        <CharString name="scaron">
          -339 1001.87695312 1822 rmoveto
          -28 callsubr
          -253.876953125 -1862 rmoveto
          -22 callsubr
          endchar
        </CharString>
        <CharString name="scedilla">
          -339 852.002929688 -156.233398438 rmoveto
          -70 callsubr
          -104.002929688 119.233398438 rmoveto
          -22 callsubr
          endchar
        </CharString>
        <CharString name="scircumflex">
          -339 631.470703125 1237 rmoveto
          -59 callsubr
          116.529296875 -1271 rmoveto
          -22 callsubr
          endchar
        </CharString>
        <CharString name="scommaaccent">
          -339 586.696289062 -878 rmoveto
          -107 callsubr
          161.303710938 841 rmoveto
          -22 callsubr
          endchar
        </CharString>
        <CharString name="section">
          -429 1362 210 rmoveto
          0 110 -43.5000457764 123.999984741 -124.499954224 40.0000152588 195 37 56 72 0 125 0 226 -230 37 -440 65 -81 12 -43 37 0 35 0 35 44 32 93 0 189 0 278 -29 88 -19 rrcurveto
          52 262 rlineto
          -180 41.125 -216 28.875 -201 0 -345 0 -301 -93.4603118896 0 -274.53968811 0 -113 61 -107 67 -48 -90 -43 -41 -93 0 -85 0 -9 1 -10 1 -9 21 -195 200 -53 403 -57 rrcurveto
          93 -13 45 -33 0 -34 0 -43 -73 -27 -137 0 -132 0 -193 25 -243 62 rrcurveto
          -71 -296 rlineto
          152 -68 206 -29 191 0 608 0 141 178 0 197 rrcurveto
          -807 476 rmoveto
          42 57 43 1 vhcurveto
          173 -29 rlineto
          102 -17 64 -18 0 -30 rrcurveto
          -35 -42 -33 -28 vhcurveto
          -4 hlineto
          -132 18 -191 17 0 42 rrcurveto
          endchar
        </CharString>
        <CharString name="semicolon">
          -1056 626 30 rmoveto
          238 vlineto
          0 19.0262908936 -1 79.9737091064 -1 17 -15 2 -17 1 -17 0 -108 0 -158 -1 -109 0 1 -54 -4 -239 0 -71 rrcurveto
          -57 219 vlineto
          -17 -54 -103 -138 -125 -35 rrcurveto
          -149 vlineto
          302 52 153 209 0 180 rrcurveto
          16.9957580566 1081.53312683 rmoveto
          -105 callsubr
          endchar
        </CharString>
        <CharString name="seven">
          -209 1338 1445 rmoveto
          -278.908843994 7.13119506836 -192.091156006 -9.13119506836 -567 -4 rrcurveto
          -68 -399 rlineto
          -1.3440246582 -7.88629150391 37.3482208252 -1.78657531738 46 0 rrcurveto
          428.995803833 2.67286682129 -185 -419 rlineto
          -135.917617798 -307.835021973 -122.082382202 -268.164978027 -11 -24 -3 -5 -4 -6 0 -5 rrcurveto
          734 -6 rlineto
          220.368331909 485.631668091 223.198516846 482.801483154 230.433151245 475.566848755 rrcurveto
          endchar
        </CharString>
        <CharString name="six">
          104 1026 270 rmoveto
          -134 -44 94 132 128 38 150 150 133 45 -85 -151 -149 -41 -119 -147 hvcurveto
          -196 1291 rmoveto
          -511 -591 rlineto
          -136 -157 -51 -120 0 -147 rrcurveto
          -173 147 -418 686 622 309 226 370 211 -195 243 -410 vhcurveto
          -67 hlineto
          -20 0 -20 0 -26 -2 80 115 158 183 95 113 -28 15 -583 121 -50 11 rrcurveto
          endchar
        </CharString>
        <CharString name="slash">
          -594 1199 1471 rmoveto
          33 78 36 70 -335 71 rlineto
          -306.935562134 -588.397781372 -292.008514404 -603.324813843 -293.055923462 -602.277404785 rrcurveto
          350 -78 rlineto
          endchar
        </CharString>
        <CharString name="space">
          -1423 endchar
        </CharString>
        <CharString name="sterling">
          6 1090 859 rmoveto
          183 128 80 179 vhcurveto
          103 0 120 -26 123 -48 rrcurveto
          32 284 rlineto
          -208 109 -224 50 -206 0 -381 0 -316 -172 -23 -277 rrcurveto
          -15 -189 -280 0 -15 -230 101 -2 184 0 rlineto
          -14 -159 -35 -139 -112 -182 -12 -20 -7 -21 0 -21 0 -54 48 -50 146 0 4 -1 5 0 6 0 355 -1 845 0 23 0 rrcurveto
          108 0 21 363 -69 0 rlineto
          -24 0 -39 1 -52 0 -116 0 -281 -2 -219 -3 95 81 -9 101 5 107 rrcurveto
          409 -2 -10 100 -16 129 -357 2 rlineto
          endchar
        </CharString>
        <CharString name="t">
          -369 1397 44 rmoveto
          2 21 3 21.916809082 0 24.083190918 0 113.441619873 2 69.558380127 -5 49 -69 -19 -127.873825073 -40 -99.1261749268 0 -110.004547119 0 -82.9954528809 31 5 153 rrcurveto
          10 279 335 0 rlineto
          42 0 38 1 28 9 rrcurveto
          53 213 rlineto
          -27 8 -29 4 -32 0 rrcurveto
          -389 0 17 363 rlineto
          2 27 0 25 -1 25 -153 1 -282 -20 -161 -15 -12 -98 4 -120 -25 -185 rrcurveto
          -182 0 -62 -229 rlineto
          24 -7 39 -2 55 0 rrcurveto
          102 hlineto
          -5 -27 0 -221 -6 -57 rrcurveto
          -12 vlineto
          -5 -321 240 -143 367 -2 128 0 229 25 140 55 rrcurveto
          endchar
        </CharString>
        <CharString name="tcaron">
          -369 1722.50976562 744.040039062 rmoveto
          -107 callsubr
          -325.509765625 -700.040039062 rmoveto
          -20 callsubr
          endchar
        </CharString>
        <CharString name="thorn">
          9 691 -311 rmoveto
          0 159 14 184 0 33 rrcurveto
          7 vlineto
          100 -62.2385253906 153 -43.7614746094 159 0 rrcurveto
          362 324 236.804016113 357.195983887 291.880172729 -265 218.119827271 -346 hvcurveto
          -178 0 -172 -33 -129 -86 rrcurveto
          7 469 rlineto
          0.4033203125 26.9970703125 -15.4033203125 7.0029296875 -25 0 -30 0 -38 -7 -22 -6 -99 -29 -274 -64 0 -9 rrcurveto
          -23.6159057617 -30.9324493408 -64.3840942383 -1540.06755066 rlineto
          -1.7543182373 -41.9633483887 3.7543182373 -42.0366516113 1 -37 rrcurveto
          10 hlineto
          86 0 254 21 209 21 rrcurveto
          295 1062 rmoveto
          127 99 -81 -147 -145 -99 -145 -154 -135 -104 44 173 110 7 191 259 hvcurveto
          endchar
        </CharString>
        <CharString name="three">
          -267 1553 430 rmoveto
          0 212 -171 96 -118 44 105 56 155 103 0 165 0 267 -317 108 -396 0 -181 0 -198 -22 -191 -37 rrcurveto
          -301 vlineto
          91 23 133 27 115 0 rrcurveto
          89 52 -68 -68 -67 -51 -66 -117 hvcurveto
          -142 0 -31 -288 220 0 rlineto
          93 45 -62 -63 -66 -49 -67 -96 hvcurveto
          -104 0 -129 22 -107 27 rrcurveto
          -2 -348 rlineto
          121 -54 223 -48 220 0 490 0 248 211 0 264 rrcurveto
          endchar
        </CharString>
        <CharString name="threequarters">
          729 1824 391 rmoveto
          -69 callsubr
          -783 506 rmoveto
          -67 callsubr
          1305 -495 rmoveto
          -68 callsubr
          -1607 642 rmoveto
          0 132 -88 59 -61 27 54 35 80 64 0 102 0 167 -164 68 -205 0 -94 0 -102 -14 -99 -25 rrcurveto
          -187 vlineto
          47 15 69 16 60 0 rrcurveto
          46 27 -42 -42 -41 -27 -41 -60 hvcurveto
          -74 0 -16 -179 114 0 rlineto
          48 23 -38 -39 -41 -25 -42 -50 hvcurveto
          -54 0 -67 14 -56 17 rrcurveto
          -212 vlineto
          63 -33 115 -30 114 0 254 0 128 129 0 161 rrcurveto
          endchar
        </CharString>
        <CharString name="tilde">
          -784 672 1579 rmoveto
          -85 119 -76 6 -106 0 rrcurveto
          -188 -154 -169 -251 hvcurveto
          230 9 rlineto
          51 16 59 63 vhcurveto
          34 0 24 -5 22 -32 87 -127 82 -25 86 0 rrcurveto
          211 142 222 192 hvcurveto
          -230 10 rlineto
          -24.9764099121 1.0859375 23.9764099121 -108.0859375 -83 0 -29 0 -20 13 -25 35 rrcurveto
          endchar
        </CharString>
        <CharString name="trademark">
          498 619 482 rmoveto
          13 5 0 9 1 7 rrcurveto
          41 400 rlineto
          16.0121917725 156.216552734 11.9878082275 66.7834472656 11 91 rrcurveto
          330 0 22.4571228027 247 -979.457122803 0 -37.6404571533 -228.894683838 rlineto
          -0.973571777344 -5.9204864502 3.61404418945 -10.1848297119 12 0 rrcurveto
          293 -2 -70.1918334961 -724.981430054 rlineto
          -1.73463439941 -17.916229248 17.9264678955 -5.10235595703 16 0 rrcurveto
          1594 977 rmoveto
          -212 -403 -175 397 -291 11 -189.809356689 -947.038208008 rlineto
          0 -11 12.8093566895 -3.96179199219 5 -2 rrcurveto
          260 -11 rlineto
          11 0 5 2 2 5 rrcurveto
          91 496 193 -375 rlineto
          8.10897827148 -15.7557830811 10.8910217285 -14.2442169189 20 0 19 0 15 10 17 20 rrcurveto
          224 376 85 -482 rlineto
          3.41204833984 -19.3483276367 12.5879516602 -4.65167236328 15 0 14 0 273 20 7 17 rrcurveto
          7 21 -132 880 rlineto
          -3 24 -13 12 -17 0 -6 0 -3 -2 -7 0 rrcurveto
          endchar
        </CharString>
        <CharString name="two">
          -223 173 18 rmoveto
          -21 17 -10 29 vhcurveto
          1190 6 rlineto
          21 98 56 205 10 48 rrcurveto
          1 vlineto
          8 -16 4 -29 vhcurveto
          -294 -9 rlineto
          104 127 271 329 0 281 rrcurveto
          15 vlineto
          -10 305 -294 76 -298 0 -260 0 -256 -56 -47 -15 rrcurveto
          -79 -381 rlineto
          -1 -4 3 -7 8 0 rrcurveto
          4 hlineto
          135 28 103 11 79 0 156 0 36 -48 0 -46 0 -18 -5 -18 -6 -14 -28 -72 -451 -594 -120 -167 -19 -27 -9 -21 0 -14 rrcurveto
          endchar
        </CharString>
        <CharString name="u">
          1310 190 rmoveto
          18 -45 58 -122 20 -40 rrcurveto
          315 47 49 888 rlineto
          1.90838623047 34.5845489502 -1.90838623047 33.7782897949 -1 34.6371612549 -282 -6.58824157715 -145 -3.29411315918 -142 -4.11764526367 rrcurveto
          -160 vlineto
          -358 -15 -244 -263 -144 -58 116 146 vhcurveto
          0 11 15 332 9 173 rrcurveto
          -196 -12 rlineto
          -129.783248901 -7.94590759277 -204.188308716 -3.64500427246 -73.0284423828 -5.40908813477 -5 -182.172409058 -18 -118.412078857 0 -286.415512085 0 -337 326 -107 302 0 207 0 220 71 137 156 rrcurveto
          endchar
        </CharString>
        <CharString name="uacute">
          956.301757812 1234 rmoveto
          -72 callsubr
          353.698242188 -1044 rmoveto
          -45 callsubr
          endchar
        </CharString>
        <CharString name="ubreve">
          954.74609375 1421 rmoveto
          -42 callsubr
          355.25390625 -1231 rmoveto
          -45 callsubr
          endchar
        </CharString>
        <CharString name="ucircumflex">
          785.385742188 1237 rmoveto
          -59 callsubr
          524.614257812 -1044 rmoveto
          -45 callsubr
          endchar
        </CharString>
        <CharString name="udieresis">
          1463.92675781 1234 rmoveto
          -74 callsubr
          -632.111328125 6.00390625 rmoveto
          -54 callsubr
          845.073242188 -1401 rmoveto
          -45 callsubr
          endchar
        </CharString>
        <CharString name="ugrave">
          1096.92675781 1289 rmoveto
          -93 callsubr
          338.073242188 -1054 rmoveto
          -45 callsubr
          endchar
        </CharString>
        <CharString name="uhungarumlaut">
          758.864257812 1239 rmoveto
          -27 callsubr
          535 -88 rmoveto
          -26 callsubr
          266.135742188 -1143 rmoveto
          -45 callsubr
          endchar
        </CharString>
        <CharString name="umacron">
          536.3359375 1539 rmoveto
          -43 callsubr
          -89.3359375 -1367 rmoveto
          -45 callsubr
          endchar
        </CharString>
</ttFont>
